<?xml version="1.0" encoding="UTF-8" standalone="no"?><svg xmlns="http://www.w3.org/2000/svg" xmlns:xlink="http://www.w3.org/1999/xlink" clip-rule="evenodd" stroke-miterlimit="10" viewBox="0 0 1024 768"><desc>SVG generated by Keynote</desc><defs></defs><g transform="matrix(1.00, 0.00, -0.00, -1.00, 0.0, 768.0)"><path d="M 0.0 768.0 L 1024.0 768.0 L 1024.0 0.0 L 0.0 0.0 Z M 0.0 768.0 " fill="#FEFFFF"></path><text xml:space="preserve" font-family="Palatino-Roman,Palatino" font-size="84.0" fill="#164E86" transform="matrix(1.00, 0.00, -0.00, -1.00, 93.4, 640.3)">P</text><text xml:space="preserve" font-family="Palatino-Roman,Palatino" font-size="84.0" fill="#164E86" transform="matrix(1.00, 0.00, -0.00, -1.00, 144.1, 640.3)">L</text><text xml:space="preserve" font-family="Palatino-Roman,Palatino" font-size="84.0" fill="#164E86" transform="matrix(1.00, 0.00, -0.00, -1.00, 195.4, 640.3)">U</text><text xml:space="preserve" font-family="Palatino-Roman,Palatino" font-size="84.0" fill="#164E86" transform="matrix(1.00, 0.00, -0.00, -1.00, 260.7, 640.3)">S</text><text xml:space="preserve" font-family="Palatino-Roman,Palatino" font-size="84.0" fill="#164E86" transform="matrix(1.00, 0.00, -0.00, -1.00, 304.8, 640.3)">K</text><text xml:space="preserve" font-family="Palatino-Roman,Palatino" font-size="84.0" fill="#164E86" transform="matrix(1.00, 0.00, -0.00, -1.00, 365.8, 640.3)">V</text><text xml:space="preserve" font-family="Palatino-Roman,Palatino" font-size="84.0" fill="#164E86" transform="matrix(1.00, 0.00, -0.00, -1.00, 417.2, 640.3)">A</text><text xml:space="preserve" font-family="Palatino-Roman,Palatino" font-size="84.0" fill="#164E86" transform="matrix(1.00, 0.00, -0.00, -1.00, 482.5, 640.3)">M</text><text xml:space="preserve" font-family="Palatino-Roman,Palatino" font-size="84.0" fill="#164E86" transform="matrix(1.00, 0.00, -0.00, -1.00, 561.9, 640.3)">P</text><text xml:space="preserve" font-family="Palatino-Roman,Palatino" font-size="84.0" fill="#164E86" transform="matrix(1.00, 0.00, -0.00, -1.00, 612.7, 640.3)">E</text><text xml:space="preserve" font-family="Palatino-Roman,Palatino" font-size="84.0" fill="#164E86" transform="matrix(1.00, 0.00, -0.00, -1.00, 664.0, 640.3)">R</text><text xml:space="preserve" font-family="Palatino-Roman,Palatino" font-size="84.0" fill="#164E86" transform="matrix(1.00, 0.00, -0.00, -1.00, 720.1, 640.3)">F</text><text xml:space="preserve" font-family="Palatino-Roman,Palatino" font-size="84.0" fill="#164E86" transform="matrix(1.00, 0.00, -0.00, -1.00, 766.8, 640.3)">E</text><text xml:space="preserve" font-family="Palatino-Roman,Palatino" font-size="84.0" fill="#164E86" transform="matrix(1.00, 0.00, -0.00, -1.00, 818.1, 640.3)">K</text><text xml:space="preserve" font-family="Palatino-Roman,Palatino" font-size="84.0" fill="#164E86" transform="matrix(1.00, 0.00, -0.00, -1.00, 879.1, 640.3)">T</text><text xml:space="preserve" font-family="LucidaGrande,Lucida Grande" font-size="36.0" fill="#164E86" transform="matrix(1.00, 0.00, -0.00, -1.00, 73.5, 555.5)">‣</text><text xml:space="preserve" font-family="Palatino-Roman,Palatino" font-size="36.0" fill="#000000" transform="matrix(1.00, 0.00, -0.00, -1.00, 118.5, 555.4)">E</text><text xml:space="preserve" font-family="Palatino-Roman,Palatino" font-size="36.0" fill="#000000" transform="matrix(1.00, 0.00, -0.00, -1.00, 140.5, 555.4)">t</text><text xml:space="preserve" font-family="Palatino-Roman,Palatino" font-size="36.0" fill="#000000" transform="matrix(1.00, 0.00, -0.00, -1.00, 152.3, 555.4)">t</text><text xml:space="preserve" font-family="Palatino-Roman,Palatino" font-size="36.0" fill="#000000" transform="matrix(1.00, 0.00, -0.00, -1.00, 164.0, 555.4)"> </text><text xml:space="preserve" font-family="Palatino-Roman,Palatino" font-size="36.0" fill="#000000" transform="matrix(1.00, 0.00, -0.00, -1.00, 173.0, 555.4)">t</text><text xml:space="preserve" font-family="Palatino-Roman,Palatino" font-size="36.0" fill="#000000" transform="matrix(1.00, 0.00, -0.00, -1.00, 184.8, 555.4)">e</text><text xml:space="preserve" font-family="Palatino-Roman,Palatino" font-size="36.0" fill="#000000" transform="matrix(1.00, 0.00, -0.00, -1.00, 202.0, 555.4)">m</text><text xml:space="preserve" font-family="Palatino-Roman,Palatino" font-size="36.0" fill="#000000" transform="matrix(1.00, 0.00, -0.00, -1.00, 233.8, 555.4)">p</text><text xml:space="preserve" font-family="Palatino-Roman,Palatino" font-size="36.0" fill="#000000" transform="matrix(1.00, 0.00, -0.00, -1.00, 255.4, 555.4)">u</text><text xml:space="preserve" font-family="Palatino-Roman,Palatino" font-size="36.0" fill="#000000" transform="matrix(1.00, 0.00, -0.00, -1.00, 277.1, 555.4)">s</text><text xml:space="preserve" font-family="Palatino-Roman,Palatino" font-size="36.0" fill="#000000" transform="matrix(1.00, 0.00, -0.00, -1.00, 292.4, 555.4)">m</text><text xml:space="preserve" font-family="Palatino-Roman,Palatino" font-size="36.0" fill="#000000" transform="matrix(1.00, 0.00, -0.00, -1.00, 324.2, 555.4)">ä</text><text xml:space="preserve" font-family="Palatino-Roman,Palatino" font-size="36.0" fill="#000000" transform="matrix(1.00, 0.00, -0.00, -1.00, 342.2, 555.4)">r</text><text xml:space="preserve" font-family="Palatino-Roman,Palatino" font-size="36.0" fill="#000000" transform="matrix(1.00, 0.00, -0.00, -1.00, 356.4, 555.4)">k</text><text xml:space="preserve" font-family="Palatino-Roman,Palatino" font-size="36.0" fill="#000000" transform="matrix(1.00, 0.00, -0.00, -1.00, 376.4, 555.4)">e</text><text xml:space="preserve" font-family="Palatino-Roman,Palatino" font-size="36.0" fill="#000000" transform="matrix(1.00, 0.00, -0.00, -1.00, 393.6, 555.4)"> </text><text xml:space="preserve" font-family="Palatino-Italic,Palatino" font-style="italic" font-size="36.0" fill="#000000" transform="matrix(1.00, 0.00, -0.00, -1.00, 402.6, 555.4)">-</text><text xml:space="preserve" font-family="Palatino-Italic,Palatino" font-style="italic" font-size="36.0" fill="#000000" transform="matrix(1.00, 0.00, -0.00, -1.00, 414.6, 555.4)">e</text><text xml:space="preserve" font-family="Palatino-Italic,Palatino" font-style="italic" font-size="36.0" fill="#000000" transform="matrix(1.00, 0.00, -0.00, -1.00, 428.6, 555.4)">r</text><text xml:space="preserve" font-family="Palatino-Italic,Palatino" font-style="italic" font-size="36.0" fill="#000000" transform="matrix(1.00, 0.00, -0.00, -1.00, 442.7, 555.4)">a</text><text xml:space="preserve" font-family="Palatino-Italic,Palatino" font-style="italic" font-size="36.0" fill="#000000" transform="matrix(1.00, 0.00, -0.00, -1.00, 458.6, 555.4)">-</text><text xml:space="preserve" font-family="Palatino-Italic,Palatino" font-style="italic" font-size="36.0" fill="#000000" transform="matrix(1.00, 0.00, -0.00, -1.00, 470.6, 555.4)"> </text><text xml:space="preserve" font-family="Palatino-Roman,Palatino" font-size="36.0" fill="#000000" transform="matrix(1.00, 0.00, -0.00, -1.00, 479.6, 555.4)">s</text><text xml:space="preserve" font-family="Palatino-Roman,Palatino" font-size="36.0" fill="#000000" transform="matrix(1.00, 0.00, -0.00, -1.00, 494.9, 555.4)">k</text><text xml:space="preserve" font-family="Palatino-Roman,Palatino" font-size="36.0" fill="#000000" transform="matrix(1.00, 0.00, -0.00, -1.00, 514.9, 555.4)">j</text><text xml:space="preserve" font-family="Palatino-Roman,Palatino" font-size="36.0" fill="#000000" transform="matrix(1.00, 0.00, -0.00, -1.00, 523.3, 555.4)">u</text><text xml:space="preserve" font-family="Palatino-Roman,Palatino" font-size="36.0" fill="#000000" transform="matrix(1.00, 0.00, -0.00, -1.00, 545.0, 555.4)">t</text><text xml:space="preserve" font-family="Palatino-Roman,Palatino" font-size="36.0" fill="#000000" transform="matrix(1.00, 0.00, -0.00, -1.00, 556.8, 555.4)">s</text><text xml:space="preserve" font-family="Palatino-Roman,Palatino" font-size="36.0" fill="#000000" transform="matrix(1.00, 0.00, -0.00, -1.00, 572.0, 555.4)"> </text><text xml:space="preserve" font-family="Palatino-Roman,Palatino" font-size="36.0" fill="#000000" transform="matrix(1.00, 0.00, -0.00, -1.00, 581.0, 555.4)">i</text><text xml:space="preserve" font-family="Palatino-Roman,Palatino" font-size="36.0" fill="#000000" transform="matrix(1.00, 0.00, -0.00, -1.00, 591.5, 555.4)">n</text><text xml:space="preserve" font-family="Palatino-Roman,Palatino" font-size="36.0" fill="#000000" transform="matrix(1.00, 0.00, -0.00, -1.00, 612.5, 555.4)"> </text><text xml:space="preserve" font-family="Palatino-Roman,Palatino" font-size="36.0" fill="#000000" transform="matrix(1.00, 0.00, -0.00, -1.00, 621.5, 555.4)">m</text><text xml:space="preserve" font-family="Palatino-Roman,Palatino" font-size="36.0" fill="#000000" transform="matrix(1.00, 0.00, -0.00, -1.00, 653.2, 555.4)">e</text><text xml:space="preserve" font-family="Palatino-Roman,Palatino" font-size="36.0" fill="#000000" transform="matrix(1.00, 0.00, -0.00, -1.00, 670.5, 555.4)">l</text><text xml:space="preserve" font-family="Palatino-Roman,Palatino" font-size="36.0" fill="#000000" transform="matrix(1.00, 0.00, -0.00, -1.00, 680.9, 555.4)">l</text><text xml:space="preserve" font-family="Palatino-Roman,Palatino" font-size="36.0" fill="#000000" transform="matrix(1.00, 0.00, -0.00, -1.00, 691.4, 555.4)">a</text><text xml:space="preserve" font-family="Palatino-Roman,Palatino" font-size="36.0" fill="#000000" transform="matrix(1.00, 0.00, -0.00, -1.00, 709.4, 555.4)">n</text><text xml:space="preserve" font-family="Palatino-Roman,Palatino" font-size="36.0" fill="#000000" transform="matrix(1.00, 0.00, -0.00, -1.00, 730.4, 555.4)"> </text><text xml:space="preserve" font-family="Palatino-Bold,Palatino" font-weight="bold" font-size="36.0" fill="#000000" transform="matrix(1.00, 0.00, -0.00, -1.00, 118.5, 507.4)">p</text><text xml:space="preserve" font-family="Palatino-Bold,Palatino" font-weight="bold" font-size="36.0" fill="#000000" transform="matrix(1.00, 0.00, -0.00, -1.00, 140.5, 507.4)">e</text><text xml:space="preserve" font-family="Palatino-Bold,Palatino" font-weight="bold" font-size="36.0" fill="#000000" transform="matrix(1.00, 0.00, -0.00, -1.00, 158.5, 507.4)">r</text><text xml:space="preserve" font-family="Palatino-Bold,Palatino" font-weight="bold" font-size="36.0" fill="#000000" transform="matrix(1.00, 0.00, -0.00, -1.00, 172.5, 507.4)">f</text><text xml:space="preserve" font-family="Palatino-Bold,Palatino" font-weight="bold" font-size="36.0" fill="#000000" transform="matrix(1.00, 0.00, -0.00, -1.00, 186.5, 507.4)">e</text><text xml:space="preserve" font-family="Palatino-Bold,Palatino" font-weight="bold" font-size="36.0" fill="#000000" transform="matrix(1.00, 0.00, -0.00, -1.00, 204.5, 507.4)">k</text><text xml:space="preserve" font-family="Palatino-Bold,Palatino" font-weight="bold" font-size="36.0" fill="#000000" transform="matrix(1.00, 0.00, -0.00, -1.00, 226.5, 507.4)">t</text><text xml:space="preserve" font-family="Palatino-Bold,Palatino" font-weight="bold" font-size="36.0" fill="#000000" transform="matrix(1.00, 0.00, -0.00, -1.00, 238.5, 507.4)">s</text><text xml:space="preserve" font-family="Palatino-Bold,Palatino" font-weight="bold" font-size="36.0" fill="#000000" transform="matrix(1.00, 0.00, -0.00, -1.00, 254.5, 507.4)">t</text><text xml:space="preserve" font-family="Palatino-Bold,Palatino" font-weight="bold" font-size="36.0" fill="#000000" transform="matrix(1.00, 0.00, -0.00, -1.00, 266.5, 507.4)">a</text><text xml:space="preserve" font-family="Palatino-Bold,Palatino" font-weight="bold" font-size="36.0" fill="#000000" transform="matrix(1.00, 0.00, -0.00, -1.00, 284.5, 507.4)">m</text><text xml:space="preserve" font-family="Palatino-Bold,Palatino" font-weight="bold" font-size="36.0" fill="#000000" transform="matrix(1.00, 0.00, -0.00, -1.00, 316.5, 507.4)">m</text><text xml:space="preserve" font-family="Palatino-Bold,Palatino" font-weight="bold" font-size="36.0" fill="#000000" transform="matrix(1.00, 0.00, -0.00, -1.00, 348.5, 507.4)">e</text><text xml:space="preserve" font-family="Palatino-Bold,Palatino" font-weight="bold" font-size="36.0" fill="#000000" transform="matrix(1.00, 0.00, -0.00, -1.00, 366.5, 507.4)">n</text><text xml:space="preserve" font-family="Palatino-Roman,Palatino" font-size="36.0" fill="#000000" transform="matrix(1.00, 0.00, -0.00, -1.00, 388.5, 507.4)"> </text><text xml:space="preserve" font-family="Palatino-Roman,Palatino" font-size="36.0" fill="#000000" transform="matrix(1.00, 0.00, -0.00, -1.00, 397.5, 507.4)">o</text><text xml:space="preserve" font-family="Palatino-Roman,Palatino" font-size="36.0" fill="#000000" transform="matrix(1.00, 0.00, -0.00, -1.00, 417.1, 507.4)">c</text><text xml:space="preserve" font-family="Palatino-Roman,Palatino" font-size="36.0" fill="#000000" transform="matrix(1.00, 0.00, -0.00, -1.00, 433.1, 507.4)">h</text><text xml:space="preserve" font-family="Palatino-Roman,Palatino" font-size="36.0" fill="#000000" transform="matrix(1.00, 0.00, -0.00, -1.00, 454.1, 507.4)"> </text><text xml:space="preserve" font-family="Palatino-Roman,Palatino" font-size="36.0" fill="#000000" transform="matrix(1.00, 0.00, -0.00, -1.00, 463.1, 507.4)">ä</text><text xml:space="preserve" font-family="Palatino-Roman,Palatino" font-size="36.0" fill="#000000" transform="matrix(1.00, 0.00, -0.00, -1.00, 481.1, 507.4)">n</text><text xml:space="preserve" font-family="Palatino-Roman,Palatino" font-size="36.0" fill="#000000" transform="matrix(1.00, 0.00, -0.00, -1.00, 502.0, 507.4)">d</text><text xml:space="preserve" font-family="Palatino-Roman,Palatino" font-size="36.0" fill="#000000" transform="matrix(1.00, 0.00, -0.00, -1.00, 524.0, 507.4)">e</text><text xml:space="preserve" font-family="Palatino-Roman,Palatino" font-size="36.0" fill="#000000" transform="matrix(1.00, 0.00, -0.00, -1.00, 541.2, 507.4)">l</text><text xml:space="preserve" font-family="Palatino-Roman,Palatino" font-size="36.0" fill="#000000" transform="matrix(1.00, 0.00, -0.00, -1.00, 551.7, 507.4)">s</text><text xml:space="preserve" font-family="Palatino-Roman,Palatino" font-size="36.0" fill="#000000" transform="matrix(1.00, 0.00, -0.00, -1.00, 567.0, 507.4)">e</text><text xml:space="preserve" font-family="Palatino-Roman,Palatino" font-size="36.0" fill="#000000" transform="matrix(1.00, 0.00, -0.00, -1.00, 584.2, 507.4)">n</text><text xml:space="preserve" font-family="Palatino-Roman,Palatino" font-size="36.0" fill="#000000" transform="matrix(1.00, 0.00, -0.00, -1.00, 605.2, 507.4)"> </text><text xml:space="preserve" font-family="Palatino-Roman,Palatino" font-size="36.0" fill="#000000" transform="matrix(1.00, 0.00, -0.00, -1.00, 614.2, 507.4)">(</text><text xml:space="preserve" font-family="Palatino-Italic,Palatino" font-style="italic" font-size="36.0" fill="#000000" transform="matrix(1.00, 0.00, -0.00, -1.00, 626.2, 507.4)">-</text><text xml:space="preserve" font-family="Palatino-Italic,Palatino" font-style="italic" font-size="36.0" fill="#000000" transform="matrix(1.00, 0.00, -0.00, -1.00, 638.2, 507.4)">m</text><text xml:space="preserve" font-family="Palatino-Italic,Palatino" font-style="italic" font-size="36.0" fill="#000000" transform="matrix(1.00, 0.00, -0.00, -1.00, 666.2, 507.4)">,</text><text xml:space="preserve" font-family="Palatino-Italic,Palatino" font-style="italic" font-size="36.0" fill="#000000" transform="matrix(1.00, 0.00, -0.00, -1.00, 675.2, 507.4)"> </text><text xml:space="preserve" font-family="Palatino-Italic,Palatino" font-style="italic" font-size="36.0" fill="#000000" transform="matrix(1.00, 0.00, -0.00, -1.00, 684.2, 507.4)">-</text><text xml:space="preserve" font-family="Palatino-Italic,Palatino" font-style="italic" font-size="36.0" fill="#000000" transform="matrix(1.00, 0.00, -0.00, -1.00, 696.2, 507.4)">s</text><text xml:space="preserve" font-family="Palatino-Italic,Palatino" font-style="italic" font-size="36.0" fill="#000000" transform="matrix(1.00, 0.00, -0.00, -1.00, 710.2, 507.4)">,</text><text xml:space="preserve" font-family="Palatino-Italic,Palatino" font-style="italic" font-size="36.0" fill="#000000" transform="matrix(1.00, 0.00, -0.00, -1.00, 719.2, 507.4)"> </text><text xml:space="preserve" font-family="Palatino-Italic,Palatino" font-style="italic" font-size="36.0" fill="#000000" transform="matrix(1.00, 0.00, -0.00, -1.00, 728.2, 507.4)">-</text><text xml:space="preserve" font-family="Palatino-Italic,Palatino" font-style="italic" font-size="36.0" fill="#000000" transform="matrix(1.00, 0.00, -0.00, -1.00, 740.2, 507.4)">t</text><text xml:space="preserve" font-family="Palatino-Italic,Palatino" font-style="italic" font-size="36.0" fill="#000000" transform="matrix(1.00, 0.00, -0.00, -1.00, 752.1, 507.4)">,</text><text xml:space="preserve" font-family="Palatino-Italic,Palatino" font-style="italic" font-size="36.0" fill="#000000" transform="matrix(1.00, 0.00, -0.00, -1.00, 761.1, 507.4)"> </text><text xml:space="preserve" font-family="Palatino-Italic,Palatino" font-style="italic" font-size="36.0" fill="#000000" transform="matrix(1.00, 0.00, -0.00, -1.00, 770.1, 507.4)">-</text><text xml:space="preserve" font-family="Palatino-Italic,Palatino" font-style="italic" font-size="36.0" fill="#000000" transform="matrix(1.00, 0.00, -0.00, -1.00, 782.1, 507.4)">m</text><text xml:space="preserve" font-family="Palatino-Italic,Palatino" font-style="italic" font-size="36.0" fill="#000000" transform="matrix(1.00, 0.00, -0.00, -1.00, 810.1, 507.4)">u</text><text xml:space="preserve" font-family="Palatino-Italic,Palatino" font-style="italic" font-size="36.0" fill="#000000" transform="matrix(1.00, 0.00, -0.00, -1.00, 830.2, 507.4)">s</text><text xml:space="preserve" font-family="Palatino-Italic,Palatino" font-style="italic" font-size="36.0" fill="#000000" transform="matrix(1.00, 0.00, -0.00, -1.00, 844.2, 507.4)">,</text><text xml:space="preserve" font-family="Palatino-Italic,Palatino" font-style="italic" font-size="36.0" fill="#000000" transform="matrix(1.00, 0.00, -0.00, -1.00, 853.2, 507.4)"> </text><text xml:space="preserve" font-family="Palatino-Italic,Palatino" font-style="italic" font-size="36.0" fill="#000000" transform="matrix(1.00, 0.00, -0.00, -1.00, 862.2, 507.4)">-</text><text xml:space="preserve" font-family="Palatino-Italic,Palatino" font-style="italic" font-size="36.0" fill="#000000" transform="matrix(1.00, 0.00, -0.00, -1.00, 874.2, 507.4)">t</text><text xml:space="preserve" font-family="Palatino-Italic,Palatino" font-style="italic" font-size="36.0" fill="#000000" transform="matrix(1.00, 0.00, -0.00, -1.00, 886.2, 507.4)">i</text><text xml:space="preserve" font-family="Palatino-Italic,Palatino" font-style="italic" font-size="36.0" fill="#000000" transform="matrix(1.00, 0.00, -0.00, -1.00, 896.1, 507.4)">s</text><text xml:space="preserve" font-family="Palatino-Italic,Palatino" font-style="italic" font-size="36.0" fill="#000000" transform="matrix(1.00, 0.00, -0.00, -1.00, 910.2, 507.4)">,</text><text xml:space="preserve" font-family="Palatino-Italic,Palatino" font-style="italic" font-size="36.0" fill="#000000" transform="matrix(1.00, 0.00, -0.00, -1.00, 919.2, 507.4)"> </text><text xml:space="preserve" font-family="Palatino-Italic,Palatino" font-style="italic" font-size="36.0" fill="#000000" transform="matrix(1.00, 0.00, -0.00, -1.00, 928.2, 507.4)">-</text><text xml:space="preserve" font-family="Palatino-Italic,Palatino" font-style="italic" font-size="36.0" fill="#000000" transform="matrix(1.00, 0.00, -0.00, -1.00, 940.2, 507.4)">n</text><text xml:space="preserve" font-family="Palatino-Italic,Palatino" font-style="italic" font-size="36.0" fill="#000000" transform="matrix(1.00, 0.00, -0.00, -1.00, 960.2, 507.4)">t</text><text xml:space="preserve" font-family="Palatino-Roman,Palatino" font-size="36.0" fill="#000000" transform="matrix(1.00, 0.00, -0.00, -1.00, 972.2, 507.4)">)</text><text xml:space="preserve" font-family="Palatino-Italic,Palatino" font-style="italic" font-size="36.0" fill="#000000" transform="matrix(1.00, 0.00, -0.00, -1.00, 153.5, 447.4)">l</text><text xml:space="preserve" font-family="Palatino-Italic,Palatino" font-style="italic" font-size="36.0" fill="#000000" transform="matrix(1.00, 0.00, -0.00, -1.00, 163.5, 447.4)">a</text><text xml:space="preserve" font-family="Palatino-Italic,Palatino" font-style="italic" font-size="36.0" fill="#000000" transform="matrix(1.00, 0.00, -0.00, -1.00, 179.5, 447.4)">u</text><text xml:space="preserve" font-family="Palatino-Italic,Palatino" font-style="italic" font-size="36.0" fill="#000000" transform="matrix(1.00, 0.00, -0.00, -1.00, 199.5, 447.4)">d</text><text xml:space="preserve" font-family="Palatino-Italic,Palatino" font-style="italic" font-size="36.0" fill="#000000" transform="matrix(1.00, 0.00, -0.00, -1.00, 217.5, 447.4)">a</text><text xml:space="preserve" font-family="Palatino-Italic,Palatino" font-style="italic" font-size="36.0" fill="#000000" transform="matrix(1.00, 0.00, -0.00, -1.00, 233.5, 447.4)">v</text><text xml:space="preserve" font-family="Palatino-Italic,Palatino" font-style="italic" font-size="36.0" fill="#000000" transform="matrix(1.00, 0.00, -0.00, -1.00, 251.5, 447.4)"> </text><text xml:space="preserve" font-family="Palatino-Italic,Palatino" font-style="italic" font-size="36.0" fill="#000000" transform="matrix(1.00, 0.00, -0.00, -1.00, 260.5, 447.4)">+</text><text xml:space="preserve" font-family="Palatino-Italic,Palatino" font-style="italic" font-size="36.0" fill="#000000" transform="matrix(1.00, 0.00, -0.00, -1.00, 282.3, 447.4)"> </text><text xml:space="preserve" font-family="Palatino-Italic,Palatino" font-style="italic" font-size="36.0" fill="#000000" transform="matrix(1.00, 0.00, -0.00, -1.00, 291.3, 447.4)">e</text><text xml:space="preserve" font-family="Palatino-Italic,Palatino" font-style="italic" font-size="36.0" fill="#000000" transform="matrix(1.00, 0.00, -0.00, -1.00, 305.3, 447.4)">r</text><text xml:space="preserve" font-family="Palatino-Italic,Palatino" font-style="italic" font-size="36.0" fill="#000000" transform="matrix(1.00, 0.00, -0.00, -1.00, 319.3, 447.4)">a</text><text xml:space="preserve" font-family="Palatino-Italic,Palatino" font-style="italic" font-size="36.0" fill="#000000" transform="matrix(1.00, 0.00, -0.00, -1.00, 335.3, 447.4)"> </text><text xml:space="preserve" font-family="Palatino-Italic,Palatino" font-style="italic" font-size="36.0" fill="#000000" transform="matrix(1.00, 0.00, -0.00, -1.00, 344.3, 447.4)">+</text><text xml:space="preserve" font-family="Palatino-Italic,Palatino" font-style="italic" font-size="36.0" fill="#000000" transform="matrix(1.00, 0.00, -0.00, -1.00, 366.1, 447.4)"> </text><text xml:space="preserve" font-family="Palatino-Italic,Palatino" font-style="italic" font-size="36.0" fill="#000000" transform="matrix(1.00, 0.00, -0.00, -1.00, 375.1, 447.4)">m</text><text xml:space="preserve" font-family="Palatino-Italic,Palatino" font-style="italic" font-size="36.0" fill="#000000" transform="matrix(1.00, 0.00, -0.00, -1.00, 403.1, 447.4)">u</text><text xml:space="preserve" font-family="Palatino-Italic,Palatino" font-style="italic" font-size="36.0" fill="#000000" transform="matrix(1.00, 0.00, -0.00, -1.00, 423.1, 447.4)">s</text><text xml:space="preserve" font-family="Palatino-Roman,Palatino" font-size="36.0" fill="#000000" transform="matrix(1.00, 0.00, -0.00, -1.00, 437.2, 447.4)"> </text><text xml:space="preserve" font-family="Palatino-Roman,Palatino" font-size="36.0" fill="#000000" transform="matrix(1.00, 0.00, -0.00, -1.00, 446.2, 447.4)">=</text><text xml:space="preserve" font-family="Palatino-Roman,Palatino" font-size="36.0" fill="#000000" transform="matrix(1.00, 0.00, -0.00, -1.00, 468.0, 447.4)">&gt;</text><text xml:space="preserve" font-family="Palatino-Roman,Palatino" font-size="36.0" fill="#000000" transform="matrix(1.00, 0.00, -0.00, -1.00, 489.8, 447.4)"> </text><text xml:space="preserve" font-family="Palatino-Italic,Palatino" font-style="italic" font-size="36.0" fill="#000000" transform="matrix(1.00, 0.00, -0.00, -1.00, 498.8, 447.4)">l</text><text xml:space="preserve" font-family="Palatino-Italic,Palatino" font-style="italic" font-size="36.0" fill="#000000" transform="matrix(1.00, 0.00, -0.00, -1.00, 508.8, 447.4)">a</text><text xml:space="preserve" font-family="Palatino-Italic,Palatino" font-style="italic" font-size="36.0" fill="#000000" transform="matrix(1.00, 0.00, -0.00, -1.00, 524.8, 447.4)">u</text><text xml:space="preserve" font-family="Palatino-Italic,Palatino" font-style="italic" font-size="36.0" fill="#000000" transform="matrix(1.00, 0.00, -0.00, -1.00, 544.8, 447.4)">d</text><text xml:space="preserve" font-family="Palatino-Italic,Palatino" font-style="italic" font-size="36.0" fill="#000000" transform="matrix(1.00, 0.00, -0.00, -1.00, 562.8, 447.4)">a</text><text xml:space="preserve" font-family="Palatino-Italic,Palatino" font-style="italic" font-size="36.0" fill="#000000" transform="matrix(1.00, 0.00, -0.00, -1.00, 578.8, 447.4)">v</text><text xml:space="preserve" font-family="Palatino-Italic,Palatino" font-style="italic" font-size="36.0" fill="#000000" transform="matrix(1.00, 0.00, -0.00, -1.00, 596.8, 447.4)">e</text><text xml:space="preserve" font-family="Palatino-Italic,Palatino" font-style="italic" font-size="36.0" fill="#000000" transform="matrix(1.00, 0.00, -0.00, -1.00, 610.8, 447.4)">r</text><text xml:space="preserve" font-family="Palatino-Italic,Palatino" font-style="italic" font-size="36.0" fill="#000000" transform="matrix(1.00, 0.00, -0.00, -1.00, 624.8, 447.4)">a</text><text xml:space="preserve" font-family="Palatino-Italic,Palatino" font-style="italic" font-size="36.0" fill="#000000" transform="matrix(1.00, 0.00, -0.00, -1.00, 640.8, 447.4)">m</text><text xml:space="preserve" font-family="Palatino-Italic,Palatino" font-style="italic" font-size="36.0" fill="#000000" transform="matrix(1.00, 0.00, -0.00, -1.00, 668.8, 447.4)">u</text><text xml:space="preserve" font-family="Palatino-Italic,Palatino" font-style="italic" font-size="36.0" fill="#000000" transform="matrix(1.00, 0.00, -0.00, -1.00, 688.8, 447.4)">s</text><text xml:space="preserve" font-family="Palatino-Roman,Palatino" font-size="36.0" fill="#000000" transform="matrix(1.00, 0.00, -0.00, -1.00, 723.5, 447.4)">v</text><text xml:space="preserve" font-family="Palatino-Roman,Palatino" font-size="36.0" fill="#000000" transform="matrix(1.00, 0.00, -0.00, -1.00, 743.9, 447.4)">i</text><text xml:space="preserve" font-family="Palatino-Roman,Palatino" font-size="36.0" fill="#000000" transform="matrix(1.00, 0.00, -0.00, -1.00, 754.3, 447.4)"> </text><text xml:space="preserve" font-family="Palatino-Roman,Palatino" font-size="36.0" fill="#000000" transform="matrix(1.00, 0.00, -0.00, -1.00, 763.3, 447.4)">h</text><text xml:space="preserve" font-family="Palatino-Roman,Palatino" font-size="36.0" fill="#000000" transform="matrix(1.00, 0.00, -0.00, -1.00, 784.3, 447.4)">a</text><text xml:space="preserve" font-family="Palatino-Roman,Palatino" font-size="36.0" fill="#000000" transform="matrix(1.00, 0.00, -0.00, -1.00, 802.3, 447.4)">d</text><text xml:space="preserve" font-family="Palatino-Roman,Palatino" font-size="36.0" fill="#000000" transform="matrix(1.00, 0.00, -0.00, -1.00, 824.3, 447.4)">e</text><text xml:space="preserve" font-family="Palatino-Roman,Palatino" font-size="36.0" fill="#000000" transform="matrix(1.00, 0.00, -0.00, -1.00, 841.5, 447.4)"> </text><text xml:space="preserve" font-family="Palatino-Roman,Palatino" font-size="36.0" fill="#000000" transform="matrix(1.00, 0.00, -0.00, -1.00, 850.5, 447.4)">b</text><text xml:space="preserve" font-family="Palatino-Roman,Palatino" font-size="36.0" fill="#000000" transform="matrix(1.00, 0.00, -0.00, -1.00, 870.4, 447.4)">e</text><text xml:space="preserve" font-family="Palatino-Roman,Palatino" font-size="36.0" fill="#000000" transform="matrix(1.00, 0.00, -0.00, -1.00, 887.7, 447.4)">r</text><text xml:space="preserve" font-family="Palatino-Roman,Palatino" font-size="36.0" fill="#000000" transform="matrix(1.00, 0.00, -0.00, -1.00, 901.9, 447.4)">ö</text><text xml:space="preserve" font-family="Palatino-Roman,Palatino" font-size="36.0" fill="#000000" transform="matrix(1.00, 0.00, -0.00, -1.00, 921.6, 447.4)">m</text><text xml:space="preserve" font-family="Palatino-Roman,Palatino" font-size="36.0" fill="#000000" transform="matrix(1.00, 0.00, -0.00, -1.00, 953.3, 447.4)">t</text><text xml:space="preserve" font-family="Palatino-Italic,Palatino" font-style="italic" font-size="36.0" fill="#000000" transform="matrix(1.00, 0.00, -0.00, -1.00, 153.5, 387.4)">m</text><text xml:space="preserve" font-family="Palatino-Italic,Palatino" font-style="italic" font-size="36.0" fill="#000000" transform="matrix(1.00, 0.00, -0.00, -1.00, 181.5, 387.4)">i</text><text xml:space="preserve" font-family="Palatino-Italic,Palatino" font-style="italic" font-size="36.0" fill="#000000" transform="matrix(1.00, 0.00, -0.00, -1.00, 191.5, 387.4)">s</text><text xml:space="preserve" font-family="Palatino-Italic,Palatino" font-style="italic" font-size="36.0" fill="#000000" transform="matrix(1.00, 0.00, -0.00, -1.00, 205.5, 387.4)"> </text><text xml:space="preserve" font-family="Palatino-Italic,Palatino" font-style="italic" font-size="36.0" fill="#000000" transform="matrix(1.00, 0.00, -0.00, -1.00, 214.5, 387.4)">+</text><text xml:space="preserve" font-family="Palatino-Italic,Palatino" font-style="italic" font-size="36.0" fill="#000000" transform="matrix(1.00, 0.00, -0.00, -1.00, 236.3, 387.4)"> </text><text xml:space="preserve" font-family="Palatino-Italic,Palatino" font-style="italic" font-size="36.0" fill="#000000" transform="matrix(1.00, 0.00, -0.00, -1.00, 245.3, 387.4)">e</text><text xml:space="preserve" font-family="Palatino-Italic,Palatino" font-style="italic" font-size="36.0" fill="#000000" transform="matrix(1.00, 0.00, -0.00, -1.00, 259.4, 387.4)">r</text><text xml:space="preserve" font-family="Palatino-Italic,Palatino" font-style="italic" font-size="36.0" fill="#000000" transform="matrix(1.00, 0.00, -0.00, -1.00, 273.4, 387.4)">a</text><text xml:space="preserve" font-family="Palatino-Italic,Palatino" font-style="italic" font-size="36.0" fill="#000000" transform="matrix(1.00, 0.00, -0.00, -1.00, 289.4, 387.4)"> </text><text xml:space="preserve" font-family="Palatino-Italic,Palatino" font-style="italic" font-size="36.0" fill="#000000" transform="matrix(1.00, 0.00, -0.00, -1.00, 298.4, 387.4)">+</text><text xml:space="preserve" font-family="Palatino-Italic,Palatino" font-style="italic" font-size="36.0" fill="#000000" transform="matrix(1.00, 0.00, -0.00, -1.00, 320.2, 387.4)"> </text><text xml:space="preserve" font-family="Palatino-Italic,Palatino" font-style="italic" font-size="36.0" fill="#000000" transform="matrix(1.00, 0.00, -0.00, -1.00, 329.2, 387.4)">s</text><text xml:space="preserve" font-family="Palatino-Italic,Palatino" font-style="italic" font-size="36.0" fill="#000000" transform="matrix(1.00, 0.00, -0.00, -1.00, 343.2, 387.4)"> </text><text xml:space="preserve" font-family="Palatino-Italic,Palatino" font-style="italic" font-size="36.0" fill="#000000" transform="matrix(1.00, 0.00, -0.00, -1.00, 352.2, 387.4)">=</text><text xml:space="preserve" font-family="Palatino-Italic,Palatino" font-style="italic" font-size="36.0" fill="#000000" transform="matrix(1.00, 0.00, -0.00, -1.00, 374.0, 387.4)">&gt;</text><text xml:space="preserve" font-family="Palatino-Italic,Palatino" font-style="italic" font-size="36.0" fill="#000000" transform="matrix(1.00, 0.00, -0.00, -1.00, 395.8, 387.4)"> </text><text xml:space="preserve" font-family="Palatino-Italic,Palatino" font-style="italic" font-size="36.0" fill="#000000" transform="matrix(1.00, 0.00, -0.00, -1.00, 404.8, 387.4)">m</text><text xml:space="preserve" font-family="Palatino-Italic,Palatino" font-style="italic" font-size="36.0" fill="#000000" transform="matrix(1.00, 0.00, -0.00, -1.00, 432.8, 387.4)">i</text><text xml:space="preserve" font-family="Palatino-Italic,Palatino" font-style="italic" font-size="36.0" fill="#000000" transform="matrix(1.00, 0.00, -0.00, -1.00, 442.8, 387.4)">s</text><text xml:space="preserve" font-family="Palatino-Italic,Palatino" font-style="italic" font-size="36.0" fill="#000000" transform="matrix(1.00, 0.00, -0.00, -1.00, 456.8, 387.4)">e</text><text xml:space="preserve" font-family="Palatino-Italic,Palatino" font-style="italic" font-size="36.0" fill="#000000" transform="matrix(1.00, 0.00, -0.00, -1.00, 470.8, 387.4)">r</text><text xml:space="preserve" font-family="Palatino-Italic,Palatino" font-style="italic" font-size="36.0" fill="#000000" transform="matrix(1.00, 0.00, -0.00, -1.00, 484.9, 387.4)">a</text><text xml:space="preserve" font-family="Palatino-Italic,Palatino" font-style="italic" font-size="36.0" fill="#000000" transform="matrix(1.00, 0.00, -0.00, -1.00, 500.8, 387.4)">s</text><text xml:space="preserve" font-family="Palatino-Italic,Palatino" font-style="italic" font-size="36.0" fill="#000000" transform="matrix(1.00, 0.00, -0.00, -1.00, 642.5, 387.4)"> </text><text xml:space="preserve" font-family="Palatino-Italic,Palatino" font-style="italic" font-size="36.0" fill="#000000" transform="matrix(1.00, 0.00, -0.00, -1.00, 651.5, 387.4)"> </text><text xml:space="preserve" font-family="Palatino-Roman,Palatino" font-size="36.0" fill="#000000" transform="matrix(1.00, 0.00, -0.00, -1.00, 723.5, 387.4)">d</text><text xml:space="preserve" font-family="Palatino-Roman,Palatino" font-size="36.0" fill="#000000" transform="matrix(1.00, 0.00, -0.00, -1.00, 745.5, 387.4)">u</text><text xml:space="preserve" font-family="Palatino-Roman,Palatino" font-size="36.0" fill="#000000" transform="matrix(1.00, 0.00, -0.00, -1.00, 767.2, 387.4)"> </text><text xml:space="preserve" font-family="Palatino-Roman,Palatino" font-size="36.0" fill="#000000" transform="matrix(1.00, 0.00, -0.00, -1.00, 776.2, 387.4)">h</text><text xml:space="preserve" font-family="Palatino-Roman,Palatino" font-size="36.0" fill="#000000" transform="matrix(1.00, 0.00, -0.00, -1.00, 797.2, 387.4)">a</text><text xml:space="preserve" font-family="Palatino-Roman,Palatino" font-size="36.0" fill="#000000" transform="matrix(1.00, 0.00, -0.00, -1.00, 815.2, 387.4)">d</text><text xml:space="preserve" font-family="Palatino-Roman,Palatino" font-size="36.0" fill="#000000" transform="matrix(1.00, 0.00, -0.00, -1.00, 837.2, 387.4)">e</text><text xml:space="preserve" font-family="Palatino-Roman,Palatino" font-size="36.0" fill="#000000" transform="matrix(1.00, 0.00, -0.00, -1.00, 854.4, 387.4)"> </text><text xml:space="preserve" font-family="Palatino-Roman,Palatino" font-size="36.0" fill="#000000" transform="matrix(1.00, 0.00, -0.00, -1.00, 863.4, 387.4)">s</text><text xml:space="preserve" font-family="Palatino-Roman,Palatino" font-size="36.0" fill="#000000" transform="matrix(1.00, 0.00, -0.00, -1.00, 878.6, 387.4)">k</text><text xml:space="preserve" font-family="Palatino-Roman,Palatino" font-size="36.0" fill="#000000" transform="matrix(1.00, 0.00, -0.00, -1.00, 898.7, 387.4)">i</text><text xml:space="preserve" font-family="Palatino-Roman,Palatino" font-size="36.0" fill="#000000" transform="matrix(1.00, 0.00, -0.00, -1.00, 909.2, 387.4)">c</text><text xml:space="preserve" font-family="Palatino-Roman,Palatino" font-size="36.0" fill="#000000" transform="matrix(1.00, 0.00, -0.00, -1.00, 925.1, 387.4)">k</text><text xml:space="preserve" font-family="Palatino-Roman,Palatino" font-size="36.0" fill="#000000" transform="matrix(1.00, 0.00, -0.00, -1.00, 945.2, 387.4)">a</text><text xml:space="preserve" font-family="Palatino-Roman,Palatino" font-size="36.0" fill="#000000" transform="matrix(1.00, 0.00, -0.00, -1.00, 963.2, 387.4)">t</text><text xml:space="preserve" font-family="Palatino-Roman,Palatino" font-size="16.0" fill="#000000" transform="matrix(1.00, 0.00, -0.00, -1.00, 829.2, 29.4)">©</text><text xml:space="preserve" font-family="Palatino-Roman,Palatino" font-size="16.0" fill="#000000" transform="matrix(1.00, 0.00, -0.00, -1.00, 841.2, 29.4)"> </text><text xml:space="preserve" font-family="Palatino-Roman,Palatino" font-size="16.0" fill="#000000" transform="matrix(1.00, 0.00, -0.00, -1.00, 845.2, 29.4)">J</text><text xml:space="preserve" font-family="Palatino-Roman,Palatino" font-size="16.0" fill="#000000" transform="matrix(1.00, 0.00, -0.00, -1.00, 850.5, 29.4)">o</text><text xml:space="preserve" font-family="Palatino-Roman,Palatino" font-size="16.0" fill="#000000" transform="matrix(1.00, 0.00, -0.00, -1.00, 859.2, 29.4)">o</text><text xml:space="preserve" font-family="Palatino-Roman,Palatino" font-size="16.0" fill="#000000" transform="matrix(1.00, 0.00, -0.00, -1.00, 868.0, 29.4)">n</text><text xml:space="preserve" font-family="Palatino-Roman,Palatino" font-size="16.0" fill="#000000" transform="matrix(1.00, 0.00, -0.00, -1.00, 877.3, 29.4)">a</text><text xml:space="preserve" font-family="Palatino-Roman,Palatino" font-size="16.0" fill="#000000" transform="matrix(1.00, 0.00, -0.00, -1.00, 885.3, 29.4)">s</text><text xml:space="preserve" font-family="Palatino-Roman,Palatino" font-size="16.0" fill="#000000" transform="matrix(1.00, 0.00, -0.00, -1.00, 892.1, 29.4)"> </text><text xml:space="preserve" font-family="Palatino-Roman,Palatino" font-size="16.0" fill="#000000" transform="matrix(1.00, 0.00, -0.00, -1.00, 896.1, 29.4)">V</text><text xml:space="preserve" font-family="Palatino-Roman,Palatino" font-size="16.0" fill="#000000" transform="matrix(1.00, 0.00, -0.00, -1.00, 906.1, 29.4)">a</text><text xml:space="preserve" font-family="Palatino-Roman,Palatino" font-size="16.0" fill="#000000" transform="matrix(1.00, 0.00, -0.00, -1.00, 914.1, 29.4)">n</text><text xml:space="preserve" font-family="Palatino-Roman,Palatino" font-size="16.0" fill="#000000" transform="matrix(1.00, 0.00, -0.00, -1.00, 923.5, 29.4)">h</text><text xml:space="preserve" font-family="Palatino-Roman,Palatino" font-size="16.0" fill="#000000" transform="matrix(1.00, 0.00, -0.00, -1.00, 932.8, 29.4)">a</text><text xml:space="preserve" font-family="Palatino-Roman,Palatino" font-size="16.0" fill="#000000" transform="matrix(1.00, 0.00, -0.00, -1.00, 940.8, 29.4)">l</text><text xml:space="preserve" font-family="Palatino-Roman,Palatino" font-size="16.0" fill="#000000" transform="matrix(1.00, 0.00, -0.00, -1.00, 945.4, 29.4)">a</text><text xml:space="preserve" font-family="Palatino-Roman,Palatino" font-size="16.0" fill="#000000" transform="matrix(1.00, 0.00, -0.00, -1.00, 953.4, 29.4)"> </text><text xml:space="preserve" font-family="Palatino-Roman,Palatino" font-size="16.0" fill="#000000" transform="matrix(1.00, 0.00, -0.00, -1.00, 957.4, 29.4)">2</text><text xml:space="preserve" font-family="Palatino-Roman,Palatino" font-size="16.0" fill="#000000" transform="matrix(1.00, 0.00, -0.00, -1.00, 965.4, 29.4)">0</text><text xml:space="preserve" font-family="Palatino-Roman,Palatino" font-size="16.0" fill="#000000" transform="matrix(1.00, 0.00, -0.00, -1.00, 973.4, 29.4)">1</text><text xml:space="preserve" font-family="Palatino-Roman,Palatino" font-size="16.0" fill="#000000" transform="matrix(1.00, 0.00, -0.00, -1.00, 981.4, 29.4)">6</text><image xlink:href="../../1BA58BB0-1E7D-4ABB-8DE7-36A48F485C56/assets/131F4CCB734297B162A05D637B6FABC7.jpeg" width="640.00" height="274.00" transform="matrix(1.00, 0.00, -0.00, -1.00, 86.7, 336.7)"></image><text xml:space="preserve" font-family="Palatino-Roman,Palatino" font-size="18.0" fill="#000000" transform="matrix(1.00, 0.00, -0.00, -1.00, 88.5, 45.7)">R</text><text xml:space="preserve" font-family="Palatino-Roman,Palatino" font-size="18.0" fill="#000000" transform="matrix(1.00, 0.00, -0.00, -1.00, 100.5, 45.7)">o</text><text xml:space="preserve" font-family="Palatino-Roman,Palatino" font-size="18.0" fill="#000000" transform="matrix(1.00, 0.00, -0.00, -1.00, 110.4, 45.7)">m</text><text xml:space="preserve" font-family="Palatino-Roman,Palatino" font-size="18.0" fill="#000000" transform="matrix(1.00, 0.00, -0.00, -1.00, 126.2, 45.7)">e</text><text xml:space="preserve" font-family="Palatino-Roman,Palatino" font-size="18.0" fill="#000000" transform="matrix(1.00, 0.00, -0.00, -1.00, 134.9, 45.7)">r</text><text xml:space="preserve" font-family="Palatino-Roman,Palatino" font-size="18.0" fill="#000000" transform="matrix(1.00, 0.00, -0.00, -1.00, 142.0, 45.7)">s</text><text xml:space="preserve" font-family="Palatino-Roman,Palatino" font-size="18.0" fill="#000000" transform="matrix(1.00, 0.00, -0.00, -1.00, 149.6, 45.7)">k</text><text xml:space="preserve" font-family="Palatino-Roman,Palatino" font-size="18.0" fill="#000000" transform="matrix(1.00, 0.00, -0.00, -1.00, 159.6, 45.7)"> </text><text xml:space="preserve" font-family="Palatino-Roman,Palatino" font-size="18.0" fill="#000000" transform="matrix(1.00, 0.00, -0.00, -1.00, 164.1, 45.7)">f</text><text xml:space="preserve" font-family="Palatino-Roman,Palatino" font-size="18.0" fill="#000000" transform="matrix(1.00, 0.00, -0.00, -1.00, 170.1, 45.7)">r</text><text xml:space="preserve" font-family="Palatino-Roman,Palatino" font-size="18.0" fill="#000000" transform="matrix(1.00, 0.00, -0.00, -1.00, 176.9, 45.7)">e</text><text xml:space="preserve" font-family="Palatino-Roman,Palatino" font-size="18.0" fill="#000000" transform="matrix(1.00, 0.00, -0.00, -1.00, 185.5, 45.7)">s</text><text xml:space="preserve" font-family="Palatino-Roman,Palatino" font-size="18.0" fill="#000000" transform="matrix(1.00, 0.00, -0.00, -1.00, 193.2, 45.7)">k</text></g></svg>