<?xml version="1.0" encoding="UTF-8" standalone="no"?><svg xmlns="http://www.w3.org/2000/svg" xmlns:xlink="http://www.w3.org/1999/xlink" clip-rule="evenodd" stroke-miterlimit="10" viewBox="0 0 1024 768"><desc>SVG generated by Keynote</desc><defs></defs><g transform="matrix(1.00, 0.00, -0.00, -1.00, 0.0, 768.0)"><path d="M 0.0 768.0 L 1024.0 768.0 L 1024.0 0.0 L 0.0 0.0 Z M 0.0 768.0 " fill="#FEFFFF"></path><text xml:space="preserve" font-family="Palatino-Roman,Palatino" font-size="16.0" fill="#000000" transform="matrix(1.00, 0.00, -0.00, -1.00, 829.2, 29.4)">©</text><text xml:space="preserve" font-family="Palatino-Roman,Palatino" font-size="16.0" fill="#000000" transform="matrix(1.00, 0.00, -0.00, -1.00, 841.2, 29.4)"> </text><text xml:space="preserve" font-family="Palatino-Roman,Palatino" font-size="16.0" fill="#000000" transform="matrix(1.00, 0.00, -0.00, -1.00, 845.2, 29.4)">J</text><text xml:space="preserve" font-family="Palatino-Roman,Palatino" font-size="16.0" fill="#000000" transform="matrix(1.00, 0.00, -0.00, -1.00, 850.5, 29.4)">o</text><text xml:space="preserve" font-family="Palatino-Roman,Palatino" font-size="16.0" fill="#000000" transform="matrix(1.00, 0.00, -0.00, -1.00, 859.2, 29.4)">o</text><text xml:space="preserve" font-family="Palatino-Roman,Palatino" font-size="16.0" fill="#000000" transform="matrix(1.00, 0.00, -0.00, -1.00, 868.0, 29.4)">n</text><text xml:space="preserve" font-family="Palatino-Roman,Palatino" font-size="16.0" fill="#000000" transform="matrix(1.00, 0.00, -0.00, -1.00, 877.3, 29.4)">a</text><text xml:space="preserve" font-family="Palatino-Roman,Palatino" font-size="16.0" fill="#000000" transform="matrix(1.00, 0.00, -0.00, -1.00, 885.3, 29.4)">s</text><text xml:space="preserve" font-family="Palatino-Roman,Palatino" font-size="16.0" fill="#000000" transform="matrix(1.00, 0.00, -0.00, -1.00, 892.1, 29.4)"> </text><text xml:space="preserve" font-family="Palatino-Roman,Palatino" font-size="16.0" fill="#000000" transform="matrix(1.00, 0.00, -0.00, -1.00, 896.1, 29.4)">V</text><text xml:space="preserve" font-family="Palatino-Roman,Palatino" font-size="16.0" fill="#000000" transform="matrix(1.00, 0.00, -0.00, -1.00, 906.1, 29.4)">a</text><text xml:space="preserve" font-family="Palatino-Roman,Palatino" font-size="16.0" fill="#000000" transform="matrix(1.00, 0.00, -0.00, -1.00, 914.1, 29.4)">n</text><text xml:space="preserve" font-family="Palatino-Roman,Palatino" font-size="16.0" fill="#000000" transform="matrix(1.00, 0.00, -0.00, -1.00, 923.5, 29.4)">h</text><text xml:space="preserve" font-family="Palatino-Roman,Palatino" font-size="16.0" fill="#000000" transform="matrix(1.00, 0.00, -0.00, -1.00, 932.8, 29.4)">a</text><text xml:space="preserve" font-family="Palatino-Roman,Palatino" font-size="16.0" fill="#000000" transform="matrix(1.00, 0.00, -0.00, -1.00, 940.8, 29.4)">l</text><text xml:space="preserve" font-family="Palatino-Roman,Palatino" font-size="16.0" fill="#000000" transform="matrix(1.00, 0.00, -0.00, -1.00, 945.4, 29.4)">a</text><text xml:space="preserve" font-family="Palatino-Roman,Palatino" font-size="16.0" fill="#000000" transform="matrix(1.00, 0.00, -0.00, -1.00, 953.4, 29.4)"> </text><text xml:space="preserve" font-family="Palatino-Roman,Palatino" font-size="16.0" fill="#000000" transform="matrix(1.00, 0.00, -0.00, -1.00, 957.4, 29.4)">2</text><text xml:space="preserve" font-family="Palatino-Roman,Palatino" font-size="16.0" fill="#000000" transform="matrix(1.00, 0.00, -0.00, -1.00, 965.4, 29.4)">0</text><text xml:space="preserve" font-family="Palatino-Roman,Palatino" font-size="16.0" fill="#000000" transform="matrix(1.00, 0.00, -0.00, -1.00, 973.4, 29.4)">1</text><text xml:space="preserve" font-family="Palatino-Roman,Palatino" font-size="16.0" fill="#000000" transform="matrix(1.00, 0.00, -0.00, -1.00, 981.4, 29.4)">6</text><text xml:space="preserve" font-family="LucidaGrande,Lucida Grande" font-size="40.0" fill="#164E86" transform="matrix(1.00, 0.00, -0.00, -1.00, 73.5, 551.8)">‣</text><text xml:space="preserve" font-family="Palatino-Roman,Palatino" font-size="40.0" fill="#000000" transform="matrix(1.00, 0.00, -0.00, -1.00, 123.5, 551.5)">M</text><text xml:space="preserve" font-family="Palatino-Roman,Palatino" font-size="40.0" fill="#000000" transform="matrix(1.00, 0.00, -0.00, -1.00, 161.4, 551.5)">å</text><text xml:space="preserve" font-family="Palatino-Roman,Palatino" font-size="40.0" fill="#000000" transform="matrix(1.00, 0.00, -0.00, -1.00, 181.4, 551.5)">n</text><text xml:space="preserve" font-family="Palatino-Roman,Palatino" font-size="40.0" fill="#000000" transform="matrix(1.00, 0.00, -0.00, -1.00, 204.6, 551.5)">g</text><text xml:space="preserve" font-family="Palatino-Roman,Palatino" font-size="40.0" fill="#000000" transform="matrix(1.00, 0.00, -0.00, -1.00, 226.9, 551.5)">a</text><text xml:space="preserve" font-family="Palatino-Roman,Palatino" font-size="40.0" fill="#000000" transform="matrix(1.00, 0.00, -0.00, -1.00, 246.9, 551.5)"> </text><text xml:space="preserve" font-family="Palatino-Roman,Palatino" font-size="40.0" fill="#000000" transform="matrix(1.00, 0.00, -0.00, -1.00, 256.9, 551.5)">i</text><text xml:space="preserve" font-family="Palatino-Roman,Palatino" font-size="40.0" fill="#000000" transform="matrix(1.00, 0.00, -0.00, -1.00, 268.5, 551.5)">n</text><text xml:space="preserve" font-family="Palatino-Roman,Palatino" font-size="40.0" fill="#000000" transform="matrix(1.00, 0.00, -0.00, -1.00, 291.8, 551.5)">d</text><text xml:space="preserve" font-family="Palatino-Roman,Palatino" font-size="40.0" fill="#000000" transform="matrix(1.00, 0.00, -0.00, -1.00, 316.2, 551.5)">e</text><text xml:space="preserve" font-family="Palatino-Roman,Palatino" font-size="40.0" fill="#000000" transform="matrix(1.00, 0.00, -0.00, -1.00, 335.4, 551.5)">ﬁ</text><text xml:space="preserve" font-family="Palatino-Roman,Palatino" font-size="40.0" fill="#000000" transform="matrix(1.00, 0.00, -0.00, -1.00, 359.6, 551.5)">n</text><text xml:space="preserve" font-family="Palatino-Roman,Palatino" font-size="40.0" fill="#000000" transform="matrix(1.00, 0.00, -0.00, -1.00, 382.9, 551.5)">i</text><text xml:space="preserve" font-family="Palatino-Roman,Palatino" font-size="40.0" fill="#000000" transform="matrix(1.00, 0.00, -0.00, -1.00, 394.5, 551.5)">t</text><text xml:space="preserve" font-family="Palatino-Roman,Palatino" font-size="40.0" fill="#000000" transform="matrix(1.00, 0.00, -0.00, -1.00, 407.6, 551.5)">a</text><text xml:space="preserve" font-family="Palatino-Roman,Palatino" font-size="40.0" fill="#000000" transform="matrix(1.00, 0.00, -0.00, -1.00, 427.6, 551.5)"> </text><text xml:space="preserve" font-family="Palatino-Roman,Palatino" font-size="40.0" fill="#000000" transform="matrix(1.00, 0.00, -0.00, -1.00, 437.6, 551.5)">p</text><text xml:space="preserve" font-family="Palatino-Roman,Palatino" font-size="40.0" fill="#000000" transform="matrix(1.00, 0.00, -0.00, -1.00, 461.6, 551.5)">r</text><text xml:space="preserve" font-family="Palatino-Roman,Palatino" font-size="40.0" fill="#000000" transform="matrix(1.00, 0.00, -0.00, -1.00, 476.7, 551.5)">o</text><text xml:space="preserve" font-family="Palatino-Roman,Palatino" font-size="40.0" fill="#000000" transform="matrix(1.00, 0.00, -0.00, -1.00, 498.5, 551.5)">n</text><text xml:space="preserve" font-family="Palatino-Roman,Palatino" font-size="40.0" fill="#000000" transform="matrix(1.00, 0.00, -0.00, -1.00, 521.8, 551.5)">o</text><text xml:space="preserve" font-family="Palatino-Roman,Palatino" font-size="40.0" fill="#000000" transform="matrix(1.00, 0.00, -0.00, -1.00, 543.7, 551.5)">m</text><text xml:space="preserve" font-family="Palatino-Roman,Palatino" font-size="40.0" fill="#000000" transform="matrix(1.00, 0.00, -0.00, -1.00, 579.0, 551.5)">e</text><text xml:space="preserve" font-family="Palatino-Roman,Palatino" font-size="40.0" fill="#000000" transform="matrix(1.00, 0.00, -0.00, -1.00, 598.1, 551.5)">n</text><text xml:space="preserve" font-family="Palatino-Roman,Palatino" font-size="40.0" fill="#000000" transform="matrix(1.00, 0.00, -0.00, -1.00, 621.4, 551.5)"> </text><text xml:space="preserve" font-family="Palatino-Roman,Palatino" font-size="40.0" fill="#000000" transform="matrix(1.00, 0.00, -0.00, -1.00, 123.5, 498.5)">h</text><text xml:space="preserve" font-family="Palatino-Roman,Palatino" font-size="40.0" fill="#000000" transform="matrix(1.00, 0.00, -0.00, -1.00, 146.8, 498.5)">a</text><text xml:space="preserve" font-family="Palatino-Roman,Palatino" font-size="40.0" fill="#000000" transform="matrix(1.00, 0.00, -0.00, -1.00, 166.8, 498.5)">r</text><text xml:space="preserve" font-family="Palatino-Roman,Palatino" font-size="40.0" fill="#000000" transform="matrix(1.00, 0.00, -0.00, -1.00, 182.6, 498.5)"> </text><text xml:space="preserve" font-family="Palatino-Roman,Palatino" font-size="40.0" fill="#000000" transform="matrix(1.00, 0.00, -0.00, -1.00, 192.6, 498.5)">i</text><text xml:space="preserve" font-family="Palatino-Roman,Palatino" font-size="40.0" fill="#000000" transform="matrix(1.00, 0.00, -0.00, -1.00, 204.2, 498.5)"> </text><text xml:space="preserve" font-family="Palatino-Roman,Palatino" font-size="40.0" fill="#000000" transform="matrix(1.00, 0.00, -0.00, -1.00, 214.2, 498.5)">v</text><text xml:space="preserve" font-family="Palatino-Roman,Palatino" font-size="40.0" fill="#000000" transform="matrix(1.00, 0.00, -0.00, -1.00, 236.8, 498.5)">i</text><text xml:space="preserve" font-family="Palatino-Roman,Palatino" font-size="40.0" fill="#000000" transform="matrix(1.00, 0.00, -0.00, -1.00, 248.5, 498.5)">s</text><text xml:space="preserve" font-family="Palatino-Roman,Palatino" font-size="40.0" fill="#000000" transform="matrix(1.00, 0.00, -0.00, -1.00, 265.4, 498.5)">s</text><text xml:space="preserve" font-family="Palatino-Roman,Palatino" font-size="40.0" fill="#000000" transform="matrix(1.00, 0.00, -0.00, -1.00, 282.4, 498.5)"> </text><text xml:space="preserve" font-family="Palatino-Roman,Palatino" font-size="40.0" fill="#000000" transform="matrix(1.00, 0.00, -0.00, -1.00, 292.4, 498.5)">m</text><text xml:space="preserve" font-family="Palatino-Roman,Palatino" font-size="40.0" fill="#000000" transform="matrix(1.00, 0.00, -0.00, -1.00, 327.7, 498.5)">å</text><text xml:space="preserve" font-family="Palatino-Roman,Palatino" font-size="40.0" fill="#000000" transform="matrix(1.00, 0.00, -0.00, -1.00, 347.7, 498.5)">n</text><text xml:space="preserve" font-family="Palatino-Roman,Palatino" font-size="40.0" fill="#000000" transform="matrix(1.00, 0.00, -0.00, -1.00, 371.0, 498.5)"> </text><text xml:space="preserve" font-family="Palatino-Roman,Palatino" font-size="40.0" fill="#000000" transform="matrix(1.00, 0.00, -0.00, -1.00, 381.0, 498.5)">o</text><text xml:space="preserve" font-family="Palatino-Roman,Palatino" font-size="40.0" fill="#000000" transform="matrix(1.00, 0.00, -0.00, -1.00, 402.8, 498.5)">r</text><text xml:space="preserve" font-family="Palatino-Roman,Palatino" font-size="40.0" fill="#000000" transform="matrix(1.00, 0.00, -0.00, -1.00, 417.9, 498.5)">e</text><text xml:space="preserve" font-family="Palatino-Roman,Palatino" font-size="40.0" fill="#000000" transform="matrix(1.00, 0.00, -0.00, -1.00, 437.0, 498.5)">g</text><text xml:space="preserve" font-family="Palatino-Roman,Palatino" font-size="40.0" fill="#000000" transform="matrix(1.00, 0.00, -0.00, -1.00, 459.3, 498.5)">e</text><text xml:space="preserve" font-family="Palatino-Roman,Palatino" font-size="40.0" fill="#000000" transform="matrix(1.00, 0.00, -0.00, -1.00, 478.5, 498.5)">l</text><text xml:space="preserve" font-family="Palatino-Roman,Palatino" font-size="40.0" fill="#000000" transform="matrix(1.00, 0.00, -0.00, -1.00, 490.1, 498.5)">b</text><text xml:space="preserve" font-family="Palatino-Roman,Palatino" font-size="40.0" fill="#000000" transform="matrix(1.00, 0.00, -0.00, -1.00, 512.2, 498.5)">u</text><text xml:space="preserve" font-family="Palatino-Roman,Palatino" font-size="40.0" fill="#000000" transform="matrix(1.00, 0.00, -0.00, -1.00, 536.4, 498.5)">n</text><text xml:space="preserve" font-family="Palatino-Roman,Palatino" font-size="40.0" fill="#000000" transform="matrix(1.00, 0.00, -0.00, -1.00, 559.6, 498.5)">d</text><text xml:space="preserve" font-family="Palatino-Roman,Palatino" font-size="40.0" fill="#000000" transform="matrix(1.00, 0.00, -0.00, -1.00, 584.1, 498.5)">e</text><text xml:space="preserve" font-family="Palatino-Roman,Palatino" font-size="40.0" fill="#000000" transform="matrix(1.00, 0.00, -0.00, -1.00, 603.2, 498.5)">n</text><text xml:space="preserve" font-family="Palatino-Roman,Palatino" font-size="40.0" fill="#000000" transform="matrix(1.00, 0.00, -0.00, -1.00, 626.5, 498.5)"> </text><text xml:space="preserve" font-family="Palatino-Roman,Palatino" font-size="40.0" fill="#000000" transform="matrix(1.00, 0.00, -0.00, -1.00, 123.5, 445.5)">b</text><text xml:space="preserve" font-family="Palatino-Roman,Palatino" font-size="40.0" fill="#000000" transform="matrix(1.00, 0.00, -0.00, -1.00, 145.7, 445.5)">ö</text><text xml:space="preserve" font-family="Palatino-Roman,Palatino" font-size="40.0" fill="#000000" transform="matrix(1.00, 0.00, -0.00, -1.00, 167.5, 445.5)">j</text><text xml:space="preserve" font-family="Palatino-Roman,Palatino" font-size="40.0" fill="#000000" transform="matrix(1.00, 0.00, -0.00, -1.00, 176.8, 445.5)">n</text><text xml:space="preserve" font-family="Palatino-Roman,Palatino" font-size="40.0" fill="#000000" transform="matrix(1.00, 0.00, -0.00, -1.00, 200.1, 445.5)">i</text><text xml:space="preserve" font-family="Palatino-Roman,Palatino" font-size="40.0" fill="#000000" transform="matrix(1.00, 0.00, -0.00, -1.00, 211.8, 445.5)">n</text><text xml:space="preserve" font-family="Palatino-Roman,Palatino" font-size="40.0" fill="#000000" transform="matrix(1.00, 0.00, -0.00, -1.00, 235.0, 445.5)">g</text><text xml:space="preserve" font-family="LucidaGrande,Lucida Grande" font-size="40.0" fill="#164E86" transform="matrix(1.00, 0.00, -0.00, -1.00, 73.5, 380.8)">‣</text><text xml:space="preserve" font-family="Palatino-Roman,Palatino" font-size="40.0" fill="#000000" transform="matrix(1.00, 0.00, -0.00, -1.00, 123.5, 380.5)">B</text><text xml:space="preserve" font-family="Palatino-Roman,Palatino" font-size="40.0" fill="#000000" transform="matrix(1.00, 0.00, -0.00, -1.00, 148.0, 380.5)">ö</text><text xml:space="preserve" font-family="Palatino-Roman,Palatino" font-size="40.0" fill="#000000" transform="matrix(1.00, 0.00, -0.00, -1.00, 169.8, 380.5)">j</text><text xml:space="preserve" font-family="Palatino-Roman,Palatino" font-size="40.0" fill="#000000" transform="matrix(1.00, 0.00, -0.00, -1.00, 179.1, 380.5)">n</text><text xml:space="preserve" font-family="Palatino-Roman,Palatino" font-size="40.0" fill="#000000" transform="matrix(1.00, 0.00, -0.00, -1.00, 202.4, 380.5)">i</text><text xml:space="preserve" font-family="Palatino-Roman,Palatino" font-size="40.0" fill="#000000" transform="matrix(1.00, 0.00, -0.00, -1.00, 214.1, 380.5)">n</text><text xml:space="preserve" font-family="Palatino-Roman,Palatino" font-size="40.0" fill="#000000" transform="matrix(1.00, 0.00, -0.00, -1.00, 237.3, 380.5)">g</text><text xml:space="preserve" font-family="Palatino-Roman,Palatino" font-size="40.0" fill="#000000" transform="matrix(1.00, 0.00, -0.00, -1.00, 259.6, 380.5)"> </text><text xml:space="preserve" font-family="Palatino-Roman,Palatino" font-size="40.0" fill="#000000" transform="matrix(1.00, 0.00, -0.00, -1.00, 269.6, 380.5)">a</text><text xml:space="preserve" font-family="Palatino-Roman,Palatino" font-size="40.0" fill="#000000" transform="matrix(1.00, 0.00, -0.00, -1.00, 289.6, 380.5)">v</text><text xml:space="preserve" font-family="Palatino-Roman,Palatino" font-size="40.0" fill="#000000" transform="matrix(1.00, 0.00, -0.00, -1.00, 312.2, 380.5)"> </text><text xml:space="preserve" font-family="Palatino-Italic,Palatino" font-style="italic" font-size="40.0" fill="#000000" transform="matrix(1.00, 0.00, -0.00, -1.00, 322.2, 380.5)">n</text><text xml:space="preserve" font-family="Palatino-Italic,Palatino" font-style="italic" font-size="40.0" fill="#000000" transform="matrix(1.00, 0.00, -0.00, -1.00, 344.5, 380.5)">e</text><text xml:space="preserve" font-family="Palatino-Italic,Palatino" font-style="italic" font-size="40.0" fill="#000000" transform="matrix(1.00, 0.00, -0.00, -1.00, 360.0, 380.5)">m</text><text xml:space="preserve" font-family="Palatino-Italic,Palatino" font-style="italic" font-size="40.0" fill="#000000" transform="matrix(1.00, 0.00, -0.00, -1.00, 391.1, 380.5)">o</text><text xml:space="preserve" font-family="Palatino-Italic,Palatino" font-style="italic" font-size="40.0" fill="#000000" transform="matrix(1.00, 0.00, -0.00, -1.00, 408.9, 380.5)"> </text><text xml:space="preserve" font-family="Palatino-Roman,Palatino" font-size="40.0" fill="#000000" transform="matrix(1.00, 0.00, -0.00, -1.00, 418.9, 380.5)">(</text><text xml:space="preserve" font-family="Palatino-Roman,Palatino" font-size="40.0" fill="#000000" transform="matrix(1.00, 0.00, -0.00, -1.00, 432.2, 380.5)">i</text><text xml:space="preserve" font-family="Palatino-Roman,Palatino" font-size="40.0" fill="#000000" transform="matrix(1.00, 0.00, -0.00, -1.00, 443.8, 380.5)">n</text><text xml:space="preserve" font-family="Palatino-Roman,Palatino" font-size="40.0" fill="#000000" transform="matrix(1.00, 0.00, -0.00, -1.00, 467.1, 380.5)">g</text><text xml:space="preserve" font-family="Palatino-Roman,Palatino" font-size="40.0" fill="#000000" transform="matrix(1.00, 0.00, -0.00, -1.00, 489.4, 380.5)">e</text><text xml:space="preserve" font-family="Palatino-Roman,Palatino" font-size="40.0" fill="#000000" transform="matrix(1.00, 0.00, -0.00, -1.00, 508.5, 380.5)">n</text><text xml:space="preserve" font-family="Palatino-Roman,Palatino" font-size="40.0" fill="#000000" transform="matrix(1.00, 0.00, -0.00, -1.00, 531.8, 380.5)">)</text><text xml:space="preserve" font-family="Palatino-Roman,Palatino" font-size="40.0" fill="#000000" transform="matrix(1.00, 0.00, -0.00, -1.00, 545.1, 380.5)"> </text><text xml:space="preserve" font-family="Palatino-Roman,Palatino" font-size="40.0" fill="#000000" transform="matrix(1.00, 0.00, -0.00, -1.00, 555.1, 380.5)">o</text><text xml:space="preserve" font-family="Palatino-Roman,Palatino" font-size="40.0" fill="#000000" transform="matrix(1.00, 0.00, -0.00, -1.00, 577.0, 380.5)">c</text><text xml:space="preserve" font-family="Palatino-Roman,Palatino" font-size="40.0" fill="#000000" transform="matrix(1.00, 0.00, -0.00, -1.00, 594.7, 380.5)">h</text><text xml:space="preserve" font-family="Palatino-Roman,Palatino" font-size="40.0" fill="#000000" transform="matrix(1.00, 0.00, -0.00, -1.00, 618.0, 380.5)"> </text><text xml:space="preserve" font-family="Palatino-Italic,Palatino" font-style="italic" font-size="40.0" fill="#000000" transform="matrix(1.00, 0.00, -0.00, -1.00, 123.5, 327.5)">n</text><text xml:space="preserve" font-family="Palatino-Italic,Palatino" font-style="italic" font-size="40.0" fill="#000000" transform="matrix(1.00, 0.00, -0.00, -1.00, 145.8, 327.5)">i</text><text xml:space="preserve" font-family="Palatino-Italic,Palatino" font-style="italic" font-size="40.0" fill="#000000" transform="matrix(1.00, 0.00, -0.00, -1.00, 156.9, 327.5)">h</text><text xml:space="preserve" font-family="Palatino-Italic,Palatino" font-style="italic" font-size="40.0" fill="#000000" transform="matrix(1.00, 0.00, -0.00, -1.00, 176.9, 327.5)">i</text><text xml:space="preserve" font-family="Palatino-Italic,Palatino" font-style="italic" font-size="40.0" fill="#000000" transform="matrix(1.00, 0.00, -0.00, -1.00, 188.0, 327.5)">l</text><text xml:space="preserve" font-family="Palatino-Italic,Palatino" font-style="italic" font-size="40.0" fill="#000000" transform="matrix(1.00, 0.00, -0.00, -1.00, 199.1, 327.5)"> </text><text xml:space="preserve" font-family="Palatino-Roman,Palatino" font-size="40.0" fill="#000000" transform="matrix(1.00, 0.00, -0.00, -1.00, 209.1, 327.5)">(</text><text xml:space="preserve" font-family="Palatino-Roman,Palatino" font-size="40.0" fill="#000000" transform="matrix(1.00, 0.00, -0.00, -1.00, 222.4, 327.5)">i</text><text xml:space="preserve" font-family="Palatino-Roman,Palatino" font-size="40.0" fill="#000000" transform="matrix(1.00, 0.00, -0.00, -1.00, 234.1, 327.5)">n</text><text xml:space="preserve" font-family="Palatino-Roman,Palatino" font-size="40.0" fill="#000000" transform="matrix(1.00, 0.00, -0.00, -1.00, 257.4, 327.5)">g</text><text xml:space="preserve" font-family="Palatino-Roman,Palatino" font-size="40.0" fill="#000000" transform="matrix(1.00, 0.00, -0.00, -1.00, 279.6, 327.5)">e</text><text xml:space="preserve" font-family="Palatino-Roman,Palatino" font-size="40.0" fill="#000000" transform="matrix(1.00, 0.00, -0.00, -1.00, 298.8, 327.5)">n</text><text xml:space="preserve" font-family="Palatino-Roman,Palatino" font-size="40.0" fill="#000000" transform="matrix(1.00, 0.00, -0.00, -1.00, 322.0, 327.5)">t</text><text xml:space="preserve" font-family="Palatino-Roman,Palatino" font-size="40.0" fill="#000000" transform="matrix(1.00, 0.00, -0.00, -1.00, 335.1, 327.5)">i</text><text xml:space="preserve" font-family="Palatino-Roman,Palatino" font-size="40.0" fill="#000000" transform="matrix(1.00, 0.00, -0.00, -1.00, 346.7, 327.5)">n</text><text xml:space="preserve" font-family="Palatino-Roman,Palatino" font-size="40.0" fill="#000000" transform="matrix(1.00, 0.00, -0.00, -1.00, 370.0, 327.5)">g</text><text xml:space="preserve" font-family="Palatino-Roman,Palatino" font-size="40.0" fill="#000000" transform="matrix(1.00, 0.00, -0.00, -1.00, 392.3, 327.5)">)</text><text xml:space="preserve" font-family="Palatino-Roman,Palatino" font-size="40.0" fill="#000000" transform="matrix(1.00, 0.00, -0.00, -1.00, 405.6, 327.5)">,</text><text xml:space="preserve" font-family="Palatino-Roman,Palatino" font-size="40.0" fill="#000000" transform="matrix(1.00, 0.00, -0.00, -1.00, 415.6, 327.5)"> </text><text xml:space="preserve" font-family="Palatino-Roman,Palatino" font-size="40.0" fill="#000000" transform="matrix(1.00, 0.00, -0.00, -1.00, 425.6, 327.5)">s</text><text xml:space="preserve" font-family="Palatino-Roman,Palatino" font-size="40.0" fill="#000000" transform="matrix(1.00, 0.00, -0.00, -1.00, 442.5, 327.5)">o</text><text xml:space="preserve" font-family="Palatino-Roman,Palatino" font-size="40.0" fill="#000000" transform="matrix(1.00, 0.00, -0.00, -1.00, 464.4, 327.5)">m</text><text xml:space="preserve" font-family="Palatino-Roman,Palatino" font-size="40.0" fill="#000000" transform="matrix(1.00, 0.00, -0.00, -1.00, 499.7, 327.5)"> </text><text xml:space="preserve" font-family="Palatino-Roman,Palatino" font-size="40.0" fill="#000000" transform="matrix(1.00, 0.00, -0.00, -1.00, 123.5, 274.5)">a</text><text xml:space="preserve" font-family="Palatino-Roman,Palatino" font-size="40.0" fill="#000000" transform="matrix(1.00, 0.00, -0.00, -1.00, 143.5, 274.5)">n</text><text xml:space="preserve" font-family="Palatino-Roman,Palatino" font-size="40.0" fill="#000000" transform="matrix(1.00, 0.00, -0.00, -1.00, 166.8, 274.5)">v</text><text xml:space="preserve" font-family="Palatino-Roman,Palatino" font-size="40.0" fill="#000000" transform="matrix(1.00, 0.00, -0.00, -1.00, 189.4, 274.5)">ä</text><text xml:space="preserve" font-family="Palatino-Roman,Palatino" font-size="40.0" fill="#000000" transform="matrix(1.00, 0.00, -0.00, -1.00, 209.4, 274.5)">n</text><text xml:space="preserve" font-family="Palatino-Roman,Palatino" font-size="40.0" fill="#000000" transform="matrix(1.00, 0.00, -0.00, -1.00, 232.7, 274.5)">d</text><text xml:space="preserve" font-family="Palatino-Roman,Palatino" font-size="40.0" fill="#000000" transform="matrix(1.00, 0.00, -0.00, -1.00, 257.1, 274.5)">s</text><text xml:space="preserve" font-family="Palatino-Roman,Palatino" font-size="40.0" fill="#000000" transform="matrix(1.00, 0.00, -0.00, -1.00, 274.1, 274.5)"> </text><text xml:space="preserve" font-family="Palatino-Roman,Palatino" font-size="40.0" fill="#000000" transform="matrix(1.00, 0.00, -0.00, -1.00, 284.1, 274.5)">e</text><text xml:space="preserve" font-family="Palatino-Roman,Palatino" font-size="40.0" fill="#000000" transform="matrix(1.00, 0.00, -0.00, -1.00, 303.2, 274.5)">n</text><text xml:space="preserve" font-family="Palatino-Roman,Palatino" font-size="40.0" fill="#000000" transform="matrix(1.00, 0.00, -0.00, -1.00, 326.5, 274.5)">d</text><text xml:space="preserve" font-family="Palatino-Roman,Palatino" font-size="40.0" fill="#000000" transform="matrix(1.00, 0.00, -0.00, -1.00, 350.9, 274.5)">a</text><text xml:space="preserve" font-family="Palatino-Roman,Palatino" font-size="40.0" fill="#000000" transform="matrix(1.00, 0.00, -0.00, -1.00, 370.9, 274.5)">s</text><text xml:space="preserve" font-family="Palatino-Roman,Palatino" font-size="40.0" fill="#000000" transform="matrix(1.00, 0.00, -0.00, -1.00, 387.9, 274.5)">t</text><text xml:space="preserve" font-family="Palatino-Roman,Palatino" font-size="40.0" fill="#000000" transform="matrix(1.00, 0.00, -0.00, -1.00, 400.9, 274.5)"> </text><text xml:space="preserve" font-family="Palatino-Roman,Palatino" font-size="40.0" fill="#000000" transform="matrix(1.00, 0.00, -0.00, -1.00, 410.9, 274.5)">i</text><text xml:space="preserve" font-family="Palatino-Roman,Palatino" font-size="40.0" fill="#000000" transform="matrix(1.00, 0.00, -0.00, -1.00, 422.6, 274.5)"> </text><text xml:space="preserve" font-family="Palatino-Roman,Palatino" font-size="40.0" fill="#000000" transform="matrix(1.00, 0.00, -0.00, -1.00, 432.6, 274.5)">s</text><text xml:space="preserve" font-family="Palatino-Roman,Palatino" font-size="40.0" fill="#000000" transform="matrix(1.00, 0.00, -0.00, -1.00, 449.5, 274.5)">i</text><text xml:space="preserve" font-family="Palatino-Roman,Palatino" font-size="40.0" fill="#000000" transform="matrix(1.00, 0.00, -0.00, -1.00, 461.1, 274.5)">n</text><text xml:space="preserve" font-family="Palatino-Roman,Palatino" font-size="40.0" fill="#000000" transform="matrix(1.00, 0.00, -0.00, -1.00, 484.4, 274.5)">g</text><text xml:space="preserve" font-family="Palatino-Roman,Palatino" font-size="40.0" fill="#000000" transform="matrix(1.00, 0.00, -0.00, -1.00, 506.7, 274.5)">u</text><text xml:space="preserve" font-family="Palatino-Roman,Palatino" font-size="40.0" fill="#000000" transform="matrix(1.00, 0.00, -0.00, -1.00, 530.8, 274.5)">l</text><text xml:space="preserve" font-family="Palatino-Roman,Palatino" font-size="40.0" fill="#000000" transform="matrix(1.00, 0.00, -0.00, -1.00, 542.4, 274.5)">a</text><text xml:space="preserve" font-family="Palatino-Roman,Palatino" font-size="40.0" fill="#000000" transform="matrix(1.00, 0.00, -0.00, -1.00, 562.4, 274.5)">r</text><text xml:space="preserve" font-family="Palatino-Roman,Palatino" font-size="40.0" fill="#000000" transform="matrix(1.00, 0.00, -0.00, -1.00, 578.2, 274.5)">i</text><text xml:space="preserve" font-family="Palatino-Roman,Palatino" font-size="40.0" fill="#000000" transform="matrix(1.00, 0.00, -0.00, -1.00, 589.9, 274.5)">s</text><text xml:space="preserve" font-family="Palatino-Roman,Palatino" font-size="25.0" fill="#000000" transform="matrix(1.00, 0.00, -0.00, -1.00, 140.5, 224.3)">N</text><text xml:space="preserve" font-family="Palatino-Roman,Palatino" font-size="25.0" fill="#000000" transform="matrix(1.00, 0.00, -0.00, -1.00, 161.3, 224.3)">o</text><text xml:space="preserve" font-family="Palatino-Roman,Palatino" font-size="25.0" fill="#000000" transform="matrix(1.00, 0.00, -0.00, -1.00, 175.0, 224.3)">m</text><text xml:space="preserve" font-family="Palatino-Italic,Palatino" font-style="italic" font-size="25.0" fill="#000000" transform="matrix(1.00, 0.00, -0.00, -1.00, 278.5, 224.3)">n</text><text xml:space="preserve" font-family="Palatino-Italic,Palatino" font-style="italic" font-size="25.0" fill="#000000" transform="matrix(1.00, 0.00, -0.00, -1.00, 292.4, 224.3)">ē</text><text xml:space="preserve" font-family="Palatino-Italic,Palatino" font-style="italic" font-size="25.0" fill="#000000" transform="matrix(1.00, 0.00, -0.00, -1.00, 302.2, 224.3)">m</text><text xml:space="preserve" font-family="Palatino-Italic,Palatino" font-style="italic" font-size="25.0" fill="#000000" transform="matrix(1.00, 0.00, -0.00, -1.00, 321.6, 224.3)">ō</text><text xml:space="preserve" font-family="Palatino-Italic,Palatino" font-style="italic" font-size="25.0" fill="#000000" transform="matrix(1.00, 0.00, -0.00, -1.00, 443.8, 224.3)">n</text><text xml:space="preserve" font-family="Palatino-Italic,Palatino" font-style="italic" font-size="25.0" fill="#000000" transform="matrix(1.00, 0.00, -0.00, -1.00, 457.7, 224.3)">i</text><text xml:space="preserve" font-family="Palatino-Italic,Palatino" font-style="italic" font-size="25.0" fill="#000000" transform="matrix(1.00, 0.00, -0.00, -1.00, 464.6, 224.3)">h</text><text xml:space="preserve" font-family="Palatino-Italic,Palatino" font-style="italic" font-size="25.0" fill="#000000" transform="matrix(1.00, 0.00, -0.00, -1.00, 477.1, 224.3)">i</text><text xml:space="preserve" font-family="Palatino-Italic,Palatino" font-style="italic" font-size="25.0" fill="#000000" transform="matrix(1.00, 0.00, -0.00, -1.00, 484.1, 224.3)">l</text><text xml:space="preserve" font-family="Palatino-Roman,Palatino" font-size="25.0" fill="#000000" transform="matrix(1.00, 0.00, -0.00, -1.00, 140.5, 178.3)">G</text><text xml:space="preserve" font-family="Palatino-Roman,Palatino" font-size="25.0" fill="#000000" transform="matrix(1.00, 0.00, -0.00, -1.00, 159.6, 178.3)">e</text><text xml:space="preserve" font-family="Palatino-Roman,Palatino" font-size="25.0" fill="#000000" transform="matrix(1.00, 0.00, -0.00, -1.00, 171.6, 178.3)">n</text><text xml:space="preserve" font-family="Palatino-Italic,Palatino" font-style="italic" font-size="25.0" fill="#000000" transform="matrix(1.00, 0.00, -0.00, -1.00, 277.3, 178.3)">n</text><text xml:space="preserve" font-family="Palatino-Italic,Palatino" font-style="italic" font-size="25.0" fill="#000000" transform="matrix(1.00, 0.00, -0.00, -1.00, 291.2, 178.3)">ū</text><text xml:space="preserve" font-family="Palatino-Italic,Palatino" font-style="italic" font-size="25.0" fill="#000000" transform="matrix(1.00, 0.00, -0.00, -1.00, 305.1, 178.3)">l</text><text xml:space="preserve" font-family="Palatino-Italic,Palatino" font-style="italic" font-size="25.0" fill="#000000" transform="matrix(1.00, 0.00, -0.00, -1.00, 312.1, 178.3)">l</text><text xml:space="preserve" font-family="Palatino-Italic,Palatino" font-style="italic" font-size="25.0" fill="#000000" transform="matrix(1.00, 0.00, -0.00, -1.00, 319.0, 178.3)">ī</text><text xml:space="preserve" font-family="Palatino-Italic,Palatino" font-style="italic" font-size="25.0" fill="#000000" transform="matrix(1.00, 0.00, -0.00, -1.00, 326.0, 178.3)">u</text><text xml:space="preserve" font-family="Palatino-Italic,Palatino" font-style="italic" font-size="25.0" fill="#000000" transform="matrix(1.00, 0.00, -0.00, -1.00, 339.9, 178.3)">s</text><text xml:space="preserve" font-family="Palatino-Italic,Palatino" font-style="italic" font-size="25.0" fill="#000000" transform="matrix(1.00, 0.00, -0.00, -1.00, 462.5, 178.3)">n</text><text xml:space="preserve" font-family="Palatino-Italic,Palatino" font-style="italic" font-size="25.0" fill="#000000" transform="matrix(1.00, 0.00, -0.00, -1.00, 476.4, 178.3)">ū</text><text xml:space="preserve" font-family="Palatino-Italic,Palatino" font-style="italic" font-size="25.0" fill="#000000" transform="matrix(1.00, 0.00, -0.00, -1.00, 490.3, 178.3)">l</text><text xml:space="preserve" font-family="Palatino-Italic,Palatino" font-style="italic" font-size="25.0" fill="#000000" transform="matrix(1.00, 0.00, -0.00, -1.00, 497.3, 178.3)">l</text><text xml:space="preserve" font-family="Palatino-Italic,Palatino" font-style="italic" font-size="25.0" fill="#000000" transform="matrix(1.00, 0.00, -0.00, -1.00, 504.2, 178.3)">ī</text><text xml:space="preserve" font-family="Palatino-Italic,Palatino" font-style="italic" font-size="25.0" fill="#000000" transform="matrix(1.00, 0.00, -0.00, -1.00, 511.2, 178.3)">u</text><text xml:space="preserve" font-family="Palatino-Italic,Palatino" font-style="italic" font-size="25.0" fill="#000000" transform="matrix(1.00, 0.00, -0.00, -1.00, 525.1, 178.3)">s</text><text xml:space="preserve" font-family="Palatino-Italic,Palatino" font-style="italic" font-size="25.0" fill="#000000" transform="matrix(1.00, 0.00, -0.00, -1.00, 534.8, 178.3)"> </text><text xml:space="preserve" font-family="Palatino-Italic,Palatino" font-style="italic" font-size="25.0" fill="#000000" transform="matrix(1.00, 0.00, -0.00, -1.00, 541.1, 178.3)">r</text><text xml:space="preserve" font-family="Palatino-Italic,Palatino" font-style="italic" font-size="25.0" fill="#000000" transform="matrix(1.00, 0.00, -0.00, -1.00, 550.4, 178.3)">e</text><text xml:space="preserve" font-family="Palatino-Italic,Palatino" font-style="italic" font-size="25.0" fill="#000000" transform="matrix(1.00, 0.00, -0.00, -1.00, 560.1, 178.3)">ī</text><text xml:space="preserve" font-family="Palatino-Roman,Palatino" font-size="25.0" fill="#000000" transform="matrix(1.00, 0.00, -0.00, -1.00, 140.5, 132.3)">D</text><text xml:space="preserve" font-family="Palatino-Roman,Palatino" font-size="25.0" fill="#000000" transform="matrix(1.00, 0.00, -0.00, -1.00, 159.9, 132.3)">a</text><text xml:space="preserve" font-family="Palatino-Roman,Palatino" font-size="25.0" fill="#000000" transform="matrix(1.00, 0.00, -0.00, -1.00, 172.4, 132.3)">t</text><text xml:space="preserve" font-family="Palatino-Italic,Palatino" font-style="italic" font-size="25.0" fill="#000000" transform="matrix(1.00, 0.00, -0.00, -1.00, 278.5, 132.3)">n</text><text xml:space="preserve" font-family="Palatino-Italic,Palatino" font-style="italic" font-size="25.0" fill="#000000" transform="matrix(1.00, 0.00, -0.00, -1.00, 292.4, 132.3)">ē</text><text xml:space="preserve" font-family="Palatino-Italic,Palatino" font-style="italic" font-size="25.0" fill="#000000" transform="matrix(1.00, 0.00, -0.00, -1.00, 302.2, 132.3)">m</text><text xml:space="preserve" font-family="Palatino-Italic,Palatino" font-style="italic" font-size="25.0" fill="#000000" transform="matrix(1.00, 0.00, -0.00, -1.00, 321.6, 132.3)">i</text><text xml:space="preserve" font-family="Palatino-Italic,Palatino" font-style="italic" font-size="25.0" fill="#000000" transform="matrix(1.00, 0.00, -0.00, -1.00, 328.6, 132.3)">n</text><text xml:space="preserve" font-family="Palatino-Italic,Palatino" font-style="italic" font-size="25.0" fill="#000000" transform="matrix(1.00, 0.00, -0.00, -1.00, 342.5, 132.3)">i</text><text xml:space="preserve" font-family="Palatino-Italic,Palatino" font-style="italic" font-size="25.0" fill="#000000" transform="matrix(1.00, 0.00, -0.00, -1.00, 443.8, 132.3)">n</text><text xml:space="preserve" font-family="Palatino-Italic,Palatino" font-style="italic" font-size="25.0" fill="#000000" transform="matrix(1.00, 0.00, -0.00, -1.00, 457.7, 132.3)">ū</text><text xml:space="preserve" font-family="Palatino-Italic,Palatino" font-style="italic" font-size="25.0" fill="#000000" transform="matrix(1.00, 0.00, -0.00, -1.00, 471.6, 132.3)">l</text><text xml:space="preserve" font-family="Palatino-Italic,Palatino" font-style="italic" font-size="25.0" fill="#000000" transform="matrix(1.00, 0.00, -0.00, -1.00, 478.5, 132.3)">l</text><text xml:space="preserve" font-family="Palatino-Italic,Palatino" font-style="italic" font-size="25.0" fill="#000000" transform="matrix(1.00, 0.00, -0.00, -1.00, 485.5, 132.3)">ī</text><text xml:space="preserve" font-family="Palatino-Italic,Palatino" font-style="italic" font-size="25.0" fill="#000000" transform="matrix(1.00, 0.00, -0.00, -1.00, 492.4, 132.3)"> </text><text xml:space="preserve" font-family="Palatino-Italic,Palatino" font-style="italic" font-size="25.0" fill="#000000" transform="matrix(1.00, 0.00, -0.00, -1.00, 498.7, 132.3)">r</text><text xml:space="preserve" font-family="Palatino-Italic,Palatino" font-style="italic" font-size="25.0" fill="#000000" transform="matrix(1.00, 0.00, -0.00, -1.00, 508.0, 132.3)">e</text><text xml:space="preserve" font-family="Palatino-Italic,Palatino" font-style="italic" font-size="25.0" fill="#000000" transform="matrix(1.00, 0.00, -0.00, -1.00, 517.7, 132.3)">ī</text><text xml:space="preserve" font-family="Palatino-Roman,Palatino" font-size="25.0" fill="#000000" transform="matrix(1.00, 0.00, -0.00, -1.00, 140.5, 86.3)">A</text><text xml:space="preserve" font-family="Palatino-Roman,Palatino" font-size="25.0" fill="#000000" transform="matrix(1.00, 0.00, -0.00, -1.00, 160.0, 86.3)">c</text><text xml:space="preserve" font-family="Palatino-Roman,Palatino" font-size="25.0" fill="#000000" transform="matrix(1.00, 0.00, -0.00, -1.00, 171.1, 86.3)">k</text><text xml:space="preserve" font-family="Palatino-Italic,Palatino" font-style="italic" font-size="25.0" fill="#000000" transform="matrix(1.00, 0.00, -0.00, -1.00, 278.5, 86.3)">n</text><text xml:space="preserve" font-family="Palatino-Italic,Palatino" font-style="italic" font-size="25.0" fill="#000000" transform="matrix(1.00, 0.00, -0.00, -1.00, 292.4, 86.3)">ē</text><text xml:space="preserve" font-family="Palatino-Italic,Palatino" font-style="italic" font-size="25.0" fill="#000000" transform="matrix(1.00, 0.00, -0.00, -1.00, 302.2, 86.3)">m</text><text xml:space="preserve" font-family="Palatino-Italic,Palatino" font-style="italic" font-size="25.0" fill="#000000" transform="matrix(1.00, 0.00, -0.00, -1.00, 321.6, 86.3)">i</text><text xml:space="preserve" font-family="Palatino-Italic,Palatino" font-style="italic" font-size="25.0" fill="#000000" transform="matrix(1.00, 0.00, -0.00, -1.00, 328.6, 86.3)">n</text><text xml:space="preserve" font-family="Palatino-Italic,Palatino" font-style="italic" font-size="25.0" fill="#000000" transform="matrix(1.00, 0.00, -0.00, -1.00, 342.5, 86.3)">e</text><text xml:space="preserve" font-family="Palatino-Italic,Palatino" font-style="italic" font-size="25.0" fill="#000000" transform="matrix(1.00, 0.00, -0.00, -1.00, 352.2, 86.3)">m</text><text xml:space="preserve" font-family="Palatino-Italic,Palatino" font-style="italic" font-size="25.0" fill="#000000" transform="matrix(1.00, 0.00, -0.00, -1.00, 450.0, 86.3)">n</text><text xml:space="preserve" font-family="Palatino-Italic,Palatino" font-style="italic" font-size="25.0" fill="#000000" transform="matrix(1.00, 0.00, -0.00, -1.00, 463.9, 86.3)">i</text><text xml:space="preserve" font-family="Palatino-Italic,Palatino" font-style="italic" font-size="25.0" fill="#000000" transform="matrix(1.00, 0.00, -0.00, -1.00, 470.9, 86.3)">h</text><text xml:space="preserve" font-family="Palatino-Italic,Palatino" font-style="italic" font-size="25.0" fill="#000000" transform="matrix(1.00, 0.00, -0.00, -1.00, 483.4, 86.3)">i</text><text xml:space="preserve" font-family="Palatino-Italic,Palatino" font-style="italic" font-size="25.0" fill="#000000" transform="matrix(1.00, 0.00, -0.00, -1.00, 490.3, 86.3)">l</text><text xml:space="preserve" font-family="Palatino-Roman,Palatino" font-size="25.0" fill="#000000" transform="matrix(1.00, 0.00, -0.00, -1.00, 140.5, 40.3)">A</text><text xml:space="preserve" font-family="Palatino-Roman,Palatino" font-size="25.0" fill="#000000" transform="matrix(1.00, 0.00, -0.00, -1.00, 160.0, 40.3)">b</text><text xml:space="preserve" font-family="Palatino-Roman,Palatino" font-size="25.0" fill="#000000" transform="matrix(1.00, 0.00, -0.00, -1.00, 173.8, 40.3)">l</text><text xml:space="preserve" font-family="Palatino-Italic,Palatino" font-style="italic" font-size="25.0" fill="#000000" transform="matrix(1.00, 0.00, -0.00, -1.00, 262.2, 40.3)">n</text><text xml:space="preserve" font-family="Palatino-Italic,Palatino" font-style="italic" font-size="25.0" fill="#000000" transform="matrix(1.00, 0.00, -0.00, -1.00, 276.1, 40.3)">ū</text><text xml:space="preserve" font-family="Palatino-Italic,Palatino" font-style="italic" font-size="25.0" fill="#000000" transform="matrix(1.00, 0.00, -0.00, -1.00, 290.0, 40.3)">l</text><text xml:space="preserve" font-family="Palatino-Italic,Palatino" font-style="italic" font-size="25.0" fill="#000000" transform="matrix(1.00, 0.00, -0.00, -1.00, 296.9, 40.3)">l</text><text xml:space="preserve" font-family="Palatino-Italic,Palatino" font-style="italic" font-size="25.0" fill="#000000" transform="matrix(1.00, 0.00, -0.00, -1.00, 303.9, 40.3)">ō</text><text xml:space="preserve" font-family="Palatino-Italic,Palatino" font-style="italic" font-size="25.0" fill="#000000" transform="matrix(1.00, 0.00, -0.00, -1.00, 315.0, 40.3)">/</text><text xml:space="preserve" font-family="Palatino-Italic,Palatino" font-style="italic" font-size="25.0" fill="#000000" transform="matrix(1.00, 0.00, -0.00, -1.00, 322.4, 40.3)">-</text><text xml:space="preserve" font-family="Palatino-Italic,Palatino" font-style="italic" font-size="25.0" fill="#000000" transform="matrix(1.00, 0.00, -0.00, -1.00, 347.0, 40.3)">ā</text><text xml:space="preserve" font-family="Palatino-Italic,Palatino" font-style="italic" font-size="25.0" fill="#000000" transform="matrix(1.00, 0.00, -0.00, -1.00, 443.8, 40.3)">n</text><text xml:space="preserve" font-family="Palatino-Italic,Palatino" font-style="italic" font-size="25.0" fill="#000000" transform="matrix(1.00, 0.00, -0.00, -1.00, 457.7, 40.3)">ū</text><text xml:space="preserve" font-family="Palatino-Italic,Palatino" font-style="italic" font-size="25.0" fill="#000000" transform="matrix(1.00, 0.00, -0.00, -1.00, 471.6, 40.3)">l</text><text xml:space="preserve" font-family="Palatino-Italic,Palatino" font-style="italic" font-size="25.0" fill="#000000" transform="matrix(1.00, 0.00, -0.00, -1.00, 478.5, 40.3)">l</text><text xml:space="preserve" font-family="Palatino-Italic,Palatino" font-style="italic" font-size="25.0" fill="#000000" transform="matrix(1.00, 0.00, -0.00, -1.00, 485.5, 40.3)">ā</text><text xml:space="preserve" font-family="Palatino-Italic,Palatino" font-style="italic" font-size="25.0" fill="#000000" transform="matrix(1.00, 0.00, -0.00, -1.00, 496.6, 40.3)"> </text><text xml:space="preserve" font-family="Palatino-Italic,Palatino" font-style="italic" font-size="25.0" fill="#000000" transform="matrix(1.00, 0.00, -0.00, -1.00, 502.8, 40.3)">r</text><text xml:space="preserve" font-family="Palatino-Italic,Palatino" font-style="italic" font-size="25.0" fill="#000000" transform="matrix(1.00, 0.00, -0.00, -1.00, 512.5, 40.3)">ē</text><image xlink:href="../../7638D8F3-7C49-40F5-99A3-AE3C738935DC/assets/2446083E2ED88188F8D3B0C09E765500.jpeg" width="424.00" height="640.00" transform="matrix(0.77, 0.00, -0.00, -0.77, 663.2, 585.8)"></image><text xml:space="preserve" font-family="Palatino-Roman,Palatino" font-size="18.0" fill="#000000" transform="matrix(1.00, 0.00, -0.00, -1.00, 665.0, 75.5)">R</text><text xml:space="preserve" font-family="Palatino-Roman,Palatino" font-size="18.0" fill="#000000" transform="matrix(1.00, 0.00, -0.00, -1.00, 677.1, 75.5)">o</text><text xml:space="preserve" font-family="Palatino-Roman,Palatino" font-size="18.0" fill="#000000" transform="matrix(1.00, 0.00, -0.00, -1.00, 686.9, 75.5)">m</text><text xml:space="preserve" font-family="Palatino-Roman,Palatino" font-size="18.0" fill="#000000" transform="matrix(1.00, 0.00, -0.00, -1.00, 702.8, 75.5)">e</text><text xml:space="preserve" font-family="Palatino-Roman,Palatino" font-size="18.0" fill="#000000" transform="matrix(1.00, 0.00, -0.00, -1.00, 711.4, 75.5)">r</text><text xml:space="preserve" font-family="Palatino-Roman,Palatino" font-size="18.0" fill="#000000" transform="matrix(1.00, 0.00, -0.00, -1.00, 718.5, 75.5)">s</text><text xml:space="preserve" font-family="Palatino-Roman,Palatino" font-size="18.0" fill="#000000" transform="matrix(1.00, 0.00, -0.00, -1.00, 726.1, 75.5)">k</text><text xml:space="preserve" font-family="Palatino-Roman,Palatino" font-size="18.0" fill="#000000" transform="matrix(1.00, 0.00, -0.00, -1.00, 736.1, 75.5)"> </text><text xml:space="preserve" font-family="Palatino-Roman,Palatino" font-size="18.0" fill="#000000" transform="matrix(1.00, 0.00, -0.00, -1.00, 740.6, 75.5)">m</text><text xml:space="preserve" font-family="Palatino-Roman,Palatino" font-size="18.0" fill="#000000" transform="matrix(1.00, 0.00, -0.00, -1.00, 756.5, 75.5)">o</text><text xml:space="preserve" font-family="Palatino-Roman,Palatino" font-size="18.0" fill="#000000" transform="matrix(1.00, 0.00, -0.00, -1.00, 766.4, 75.5)">s</text><text xml:space="preserve" font-family="Palatino-Roman,Palatino" font-size="18.0" fill="#000000" transform="matrix(1.00, 0.00, -0.00, -1.00, 774.0, 75.5)">a</text><text xml:space="preserve" font-family="Palatino-Roman,Palatino" font-size="18.0" fill="#000000" transform="matrix(1.00, 0.00, -0.00, -1.00, 783.0, 75.5)">i</text><text xml:space="preserve" font-family="Palatino-Roman,Palatino" font-size="18.0" fill="#000000" transform="matrix(1.00, 0.00, -0.00, -1.00, 788.2, 75.5)">k</text><text xml:space="preserve" font-family="Palatino-Roman,Palatino" font-size="84.0" fill="#164E86" transform="matrix(1.00, 0.00, -0.00, -1.00, 122.9, 640.3)">I</text><text xml:space="preserve" font-family="Palatino-Roman,Palatino" font-size="84.0" fill="#164E86" transform="matrix(1.00, 0.00, -0.00, -1.00, 151.2, 640.3)">N</text><text xml:space="preserve" font-family="Palatino-Roman,Palatino" font-size="84.0" fill="#164E86" transform="matrix(1.00, 0.00, -0.00, -1.00, 221.0, 640.3)">D</text><text xml:space="preserve" font-family="Palatino-Roman,Palatino" font-size="84.0" fill="#164E86" transform="matrix(1.00, 0.00, -0.00, -1.00, 286.0, 640.3)">E</text><text xml:space="preserve" font-family="Palatino-Roman,Palatino" font-size="84.0" fill="#164E86" transform="matrix(1.00, 0.00, -0.00, -1.00, 337.3, 640.3)">F</text><text xml:space="preserve" font-family="Palatino-Roman,Palatino" font-size="84.0" fill="#164E86" transform="matrix(1.00, 0.00, -0.00, -1.00, 384.0, 640.3)">I</text><text xml:space="preserve" font-family="Palatino-Roman,Palatino" font-size="84.0" fill="#164E86" transform="matrix(1.00, 0.00, -0.00, -1.00, 412.3, 640.3)">N</text><text xml:space="preserve" font-family="Palatino-Roman,Palatino" font-size="84.0" fill="#164E86" transform="matrix(1.00, 0.00, -0.00, -1.00, 482.1, 640.3)">I</text><text xml:space="preserve" font-family="Palatino-Roman,Palatino" font-size="84.0" fill="#164E86" transform="matrix(1.00, 0.00, -0.00, -1.00, 510.4, 640.3)">T</text><text xml:space="preserve" font-family="Palatino-Roman,Palatino" font-size="84.0" fill="#164E86" transform="matrix(1.00, 0.00, -0.00, -1.00, 555.7, 640.3)">A</text><text xml:space="preserve" font-family="Palatino-Roman,Palatino" font-size="84.0" fill="#164E86" transform="matrix(1.00, 0.00, -0.00, -1.00, 616.4, 640.3)"> </text><text xml:space="preserve" font-family="Palatino-Roman,Palatino" font-size="84.0" fill="#164E86" transform="matrix(1.00, 0.00, -0.00, -1.00, 637.4, 640.3)">P</text><text xml:space="preserve" font-family="Palatino-Roman,Palatino" font-size="84.0" fill="#164E86" transform="matrix(1.00, 0.00, -0.00, -1.00, 688.1, 640.3)">R</text><text xml:space="preserve" font-family="Palatino-Roman,Palatino" font-size="84.0" fill="#164E86" transform="matrix(1.00, 0.00, -0.00, -1.00, 744.2, 640.3)">O</text><text xml:space="preserve" font-family="Palatino-Roman,Palatino" font-size="84.0" fill="#164E86" transform="matrix(1.00, 0.00, -0.00, -1.00, 810.3, 640.3)">N</text><text xml:space="preserve" font-family="Palatino-Roman,Palatino" font-size="84.0" fill="#164E86" transform="matrix(1.00, 0.00, -0.00, -1.00, 880.1, 640.3)">.</text></g></svg>