<?xml version="1.0" encoding="UTF-8" standalone="no"?><svg xmlns="http://www.w3.org/2000/svg" xmlns:xlink="http://www.w3.org/1999/xlink" clip-rule="evenodd" stroke-miterlimit="10" viewBox="0 0 1024 768"><desc>SVG generated by Keynote</desc><defs></defs><g transform="matrix(1.00, 0.00, -0.00, -1.00, 0.0, 768.0)"><path d="M 0.0 768.0 L 1024.0 768.0 L 1024.0 0.0 L 0.0 0.0 Z M 0.0 768.0 " fill="#FEFFFF"></path><text xml:space="preserve" font-family="Palatino-Roman,Palatino" font-size="84.0" fill="#164E86" transform="matrix(1.00, 0.00, -0.00, -1.00, 328.3, 640.3)">P</text><text xml:space="preserve" font-family="Palatino-Roman,Palatino" font-size="84.0" fill="#164E86" transform="matrix(1.00, 0.00, -0.00, -1.00, 379.0, 640.3)">R</text><text xml:space="preserve" font-family="Palatino-Roman,Palatino" font-size="84.0" fill="#164E86" transform="matrix(1.00, 0.00, -0.00, -1.00, 435.1, 640.3)">E</text><text xml:space="preserve" font-family="Palatino-Roman,Palatino" font-size="84.0" fill="#164E86" transform="matrix(1.00, 0.00, -0.00, -1.00, 486.4, 640.3)">S</text><text xml:space="preserve" font-family="Palatino-Roman,Palatino" font-size="84.0" fill="#164E86" transform="matrix(1.00, 0.00, -0.00, -1.00, 530.5, 640.3)">E</text><text xml:space="preserve" font-family="Palatino-Roman,Palatino" font-size="84.0" fill="#164E86" transform="matrix(1.00, 0.00, -0.00, -1.00, 581.8, 640.3)">N</text><text xml:space="preserve" font-family="Palatino-Roman,Palatino" font-size="84.0" fill="#164E86" transform="matrix(1.00, 0.00, -0.00, -1.00, 651.6, 640.3)">S</text><text xml:space="preserve" font-family="LucidaGrande,Lucida Grande" font-size="36.0" fill="#164E86" transform="matrix(1.00, 0.00, -0.00, -1.00, 73.5, 555.5)">‣</text><text xml:space="preserve" font-family="Palatino-Roman,Palatino" font-size="36.0" fill="#000000" transform="matrix(1.00, 0.00, -0.00, -1.00, 118.5, 555.4)">U</text><text xml:space="preserve" font-family="Palatino-Roman,Palatino" font-size="36.0" fill="#000000" transform="matrix(1.00, 0.00, -0.00, -1.00, 146.5, 555.4)">t</text><text xml:space="preserve" font-family="Palatino-Roman,Palatino" font-size="36.0" fill="#000000" transform="matrix(1.00, 0.00, -0.00, -1.00, 158.3, 555.4)">t</text><text xml:space="preserve" font-family="Palatino-Roman,Palatino" font-size="36.0" fill="#000000" transform="matrix(1.00, 0.00, -0.00, -1.00, 170.0, 555.4)">r</text><text xml:space="preserve" font-family="Palatino-Roman,Palatino" font-size="36.0" fill="#000000" transform="matrix(1.00, 0.00, -0.00, -1.00, 184.2, 555.4)">y</text><text xml:space="preserve" font-family="Palatino-Roman,Palatino" font-size="36.0" fill="#000000" transform="matrix(1.00, 0.00, -0.00, -1.00, 204.3, 555.4)">c</text><text xml:space="preserve" font-family="Palatino-Roman,Palatino" font-size="36.0" fill="#000000" transform="matrix(1.00, 0.00, -0.00, -1.00, 220.2, 555.4)">k</text><text xml:space="preserve" font-family="Palatino-Roman,Palatino" font-size="36.0" fill="#000000" transform="matrix(1.00, 0.00, -0.00, -1.00, 240.3, 555.4)">e</text><text xml:space="preserve" font-family="Palatino-Roman,Palatino" font-size="36.0" fill="#000000" transform="matrix(1.00, 0.00, -0.00, -1.00, 257.5, 555.4)">r</text><text xml:space="preserve" font-family="Palatino-Roman,Palatino" font-size="36.0" fill="#000000" transform="matrix(1.00, 0.00, -0.00, -1.00, 271.7, 555.4)"> </text><text xml:space="preserve" font-family="Palatino-Roman,Palatino" font-size="36.0" fill="#000000" transform="matrix(1.00, 0.00, -0.00, -1.00, 280.7, 555.4)">h</text><text xml:space="preserve" font-family="Palatino-Roman,Palatino" font-size="36.0" fill="#000000" transform="matrix(1.00, 0.00, -0.00, -1.00, 301.7, 555.4)">a</text><text xml:space="preserve" font-family="Palatino-Roman,Palatino" font-size="36.0" fill="#000000" transform="matrix(1.00, 0.00, -0.00, -1.00, 319.7, 555.4)">n</text><text xml:space="preserve" font-family="Palatino-Roman,Palatino" font-size="36.0" fill="#000000" transform="matrix(1.00, 0.00, -0.00, -1.00, 340.6, 555.4)">d</text><text xml:space="preserve" font-family="Palatino-Roman,Palatino" font-size="36.0" fill="#000000" transform="matrix(1.00, 0.00, -0.00, -1.00, 362.6, 555.4)">l</text><text xml:space="preserve" font-family="Palatino-Roman,Palatino" font-size="36.0" fill="#000000" transform="matrix(1.00, 0.00, -0.00, -1.00, 373.1, 555.4)">i</text><text xml:space="preserve" font-family="Palatino-Roman,Palatino" font-size="36.0" fill="#000000" transform="matrix(1.00, 0.00, -0.00, -1.00, 383.6, 555.4)">n</text><text xml:space="preserve" font-family="Palatino-Roman,Palatino" font-size="36.0" fill="#000000" transform="matrix(1.00, 0.00, -0.00, -1.00, 404.5, 555.4)">g</text><text xml:space="preserve" font-family="Palatino-Roman,Palatino" font-size="36.0" fill="#000000" transform="matrix(1.00, 0.00, -0.00, -1.00, 424.6, 555.4)">a</text><text xml:space="preserve" font-family="Palatino-Roman,Palatino" font-size="36.0" fill="#000000" transform="matrix(1.00, 0.00, -0.00, -1.00, 442.6, 555.4)">r</text><text xml:space="preserve" font-family="Palatino-Roman,Palatino" font-size="36.0" fill="#000000" transform="matrix(1.00, 0.00, -0.00, -1.00, 456.8, 555.4)"> </text><text xml:space="preserve" font-family="Palatino-Roman,Palatino" font-size="36.0" fill="#000000" transform="matrix(1.00, 0.00, -0.00, -1.00, 465.8, 555.4)">i</text><text xml:space="preserve" font-family="Palatino-Roman,Palatino" font-size="36.0" fill="#000000" transform="matrix(1.00, 0.00, -0.00, -1.00, 476.3, 555.4)"> </text><text xml:space="preserve" font-family="Palatino-Roman,Palatino" font-size="36.0" fill="#000000" transform="matrix(1.00, 0.00, -0.00, -1.00, 485.3, 555.4)">n</text><text xml:space="preserve" font-family="Palatino-Roman,Palatino" font-size="36.0" fill="#000000" transform="matrix(1.00, 0.00, -0.00, -1.00, 506.2, 555.4)">u</text><text xml:space="preserve" font-family="Palatino-Roman,Palatino" font-size="36.0" fill="#000000" transform="matrix(1.00, 0.00, -0.00, -1.00, 527.9, 555.4)">t</text><text xml:space="preserve" font-family="Palatino-Roman,Palatino" font-size="36.0" fill="#000000" transform="matrix(1.00, 0.00, -0.00, -1.00, 539.7, 555.4)">i</text><text xml:space="preserve" font-family="Palatino-Roman,Palatino" font-size="36.0" fill="#000000" transform="matrix(1.00, 0.00, -0.00, -1.00, 550.1, 555.4)">d</text><text xml:space="preserve" font-family="Palatino-Italic,Palatino" font-style="italic" font-size="36.0" fill="#000000" transform="matrix(1.00, 0.00, -0.00, -1.00, 153.5, 492.4)">v</text><text xml:space="preserve" font-family="Palatino-Italic,Palatino" font-style="italic" font-size="36.0" fill="#000000" transform="matrix(1.00, 0.00, -0.00, -1.00, 171.5, 492.4)">i</text><text xml:space="preserve" font-family="Palatino-Italic,Palatino" font-style="italic" font-size="36.0" fill="#000000" transform="matrix(1.00, 0.00, -0.00, -1.00, 181.5, 492.4)">d</text><text xml:space="preserve" font-family="Palatino-Italic,Palatino" font-style="italic" font-size="36.0" fill="#000000" transform="matrix(1.00, 0.00, -0.00, -1.00, 199.5, 492.4)">e</text><text xml:space="preserve" font-family="Palatino-Italic,Palatino" font-style="italic" font-size="36.0" fill="#000000" transform="matrix(1.00, 0.00, -0.00, -1.00, 213.5, 492.4)">o</text><text xml:space="preserve" font-family="Palatino-Roman,Palatino" font-size="36.0" fill="#000000" transform="matrix(1.00, 0.00, -0.00, -1.00, 554.5, 492.4)">j</text><text xml:space="preserve" font-family="Palatino-Roman,Palatino" font-size="36.0" fill="#000000" transform="matrix(1.00, 0.00, -0.00, -1.00, 562.9, 492.4)">a</text><text xml:space="preserve" font-family="Palatino-Roman,Palatino" font-size="36.0" fill="#000000" transform="matrix(1.00, 0.00, -0.00, -1.00, 580.9, 492.4)">g</text><text xml:space="preserve" font-family="Palatino-Roman,Palatino" font-size="36.0" fill="#000000" transform="matrix(1.00, 0.00, -0.00, -1.00, 601.0, 492.4)"> </text><text xml:space="preserve" font-family="Palatino-Roman,Palatino" font-size="36.0" fill="#000000" transform="matrix(1.00, 0.00, -0.00, -1.00, 610.0, 492.4)">s</text><text xml:space="preserve" font-family="Palatino-Roman,Palatino" font-size="36.0" fill="#000000" transform="matrix(1.00, 0.00, -0.00, -1.00, 625.2, 492.4)">e</text><text xml:space="preserve" font-family="Palatino-Roman,Palatino" font-size="36.0" fill="#000000" transform="matrix(1.00, 0.00, -0.00, -1.00, 642.5, 492.4)">r</text><text xml:space="preserve" font-family="Palatino-Italic,Palatino" font-style="italic" font-size="36.0" fill="#000000" transform="matrix(1.00, 0.00, -0.00, -1.00, 153.5, 429.4)">p</text><text xml:space="preserve" font-family="Palatino-Italic,Palatino" font-style="italic" font-size="36.0" fill="#000000" transform="matrix(1.00, 0.00, -0.00, -1.00, 171.5, 429.4)">u</text><text xml:space="preserve" font-family="Palatino-Italic,Palatino" font-style="italic" font-size="36.0" fill="#000000" transform="matrix(1.00, 0.00, -0.00, -1.00, 191.6, 429.4)">e</text><text xml:space="preserve" font-family="Palatino-Italic,Palatino" font-style="italic" font-size="36.0" fill="#000000" transform="matrix(1.00, 0.00, -0.00, -1.00, 205.6, 429.4)">r</text><text xml:space="preserve" font-family="Palatino-Italic,Palatino" font-style="italic" font-size="36.0" fill="#000000" transform="matrix(1.00, 0.00, -0.00, -1.00, 219.6, 429.4)">i</text><text xml:space="preserve" font-family="Palatino-Italic,Palatino" font-style="italic" font-size="36.0" fill="#000000" transform="matrix(1.00, 0.00, -0.00, -1.00, 229.6, 429.4)"> </text><text xml:space="preserve" font-family="Palatino-Italic,Palatino" font-style="italic" font-size="36.0" fill="#000000" transform="matrix(1.00, 0.00, -0.00, -1.00, 238.6, 429.4)">i</text><text xml:space="preserve" font-family="Palatino-Italic,Palatino" font-style="italic" font-size="36.0" fill="#000000" transform="matrix(1.00, 0.00, -0.00, -1.00, 248.6, 429.4)">n</text><text xml:space="preserve" font-family="Palatino-Italic,Palatino" font-style="italic" font-size="36.0" fill="#000000" transform="matrix(1.00, 0.00, -0.00, -1.00, 268.6, 429.4)"> </text><text xml:space="preserve" font-family="Palatino-Italic,Palatino" font-style="italic" font-size="36.0" fill="#000000" transform="matrix(1.00, 0.00, -0.00, -1.00, 277.6, 429.4)">v</text><text xml:space="preserve" font-family="Palatino-Italic,Palatino" font-style="italic" font-size="36.0" fill="#000000" transform="matrix(1.00, 0.00, -0.00, -1.00, 295.6, 429.4)">i</text><text xml:space="preserve" font-family="Palatino-Italic,Palatino" font-style="italic" font-size="36.0" fill="#000000" transform="matrix(1.00, 0.00, -0.00, -1.00, 305.6, 429.4)">a</text><text xml:space="preserve" font-family="Palatino-Italic,Palatino" font-style="italic" font-size="36.0" fill="#000000" transform="matrix(1.00, 0.00, -0.00, -1.00, 321.6, 429.4)"> </text><text xml:space="preserve" font-family="Palatino-Italic,Palatino" font-style="italic" font-size="36.0" fill="#000000" transform="matrix(1.00, 0.00, -0.00, -1.00, 330.6, 429.4)">a</text><text xml:space="preserve" font-family="Palatino-Italic,Palatino" font-style="italic" font-size="36.0" fill="#000000" transform="matrix(1.00, 0.00, -0.00, -1.00, 346.5, 429.4)">m</text><text xml:space="preserve" font-family="Palatino-Italic,Palatino" font-style="italic" font-size="36.0" fill="#000000" transform="matrix(1.00, 0.00, -0.00, -1.00, 374.5, 429.4)">b</text><text xml:space="preserve" font-family="Palatino-Italic,Palatino" font-style="italic" font-size="36.0" fill="#000000" transform="matrix(1.00, 0.00, -0.00, -1.00, 391.2, 429.4)">u</text><text xml:space="preserve" font-family="Palatino-Italic,Palatino" font-style="italic" font-size="36.0" fill="#000000" transform="matrix(1.00, 0.00, -0.00, -1.00, 411.2, 429.4)">l</text><text xml:space="preserve" font-family="Palatino-Italic,Palatino" font-style="italic" font-size="36.0" fill="#000000" transform="matrix(1.00, 0.00, -0.00, -1.00, 421.2, 429.4)">a</text><text xml:space="preserve" font-family="Palatino-Italic,Palatino" font-style="italic" font-size="36.0" fill="#000000" transform="matrix(1.00, 0.00, -0.00, -1.00, 437.2, 429.4)">n</text><text xml:space="preserve" font-family="Palatino-Italic,Palatino" font-style="italic" font-size="36.0" fill="#000000" transform="matrix(1.00, 0.00, -0.00, -1.00, 457.2, 429.4)">t</text><text xml:space="preserve" font-family="Palatino-Roman,Palatino" font-size="36.0" fill="#000000" transform="matrix(1.00, 0.00, -0.00, -1.00, 554.5, 429.4)">b</text><text xml:space="preserve" font-family="Palatino-Roman,Palatino" font-size="36.0" fill="#000000" transform="matrix(1.00, 0.00, -0.00, -1.00, 574.4, 429.4)">a</text><text xml:space="preserve" font-family="Palatino-Roman,Palatino" font-size="36.0" fill="#000000" transform="matrix(1.00, 0.00, -0.00, -1.00, 592.4, 429.4)">r</text><text xml:space="preserve" font-family="Palatino-Roman,Palatino" font-size="36.0" fill="#000000" transform="matrix(1.00, 0.00, -0.00, -1.00, 606.7, 429.4)">n</text><text xml:space="preserve" font-family="Palatino-Roman,Palatino" font-size="36.0" fill="#000000" transform="matrix(1.00, 0.00, -0.00, -1.00, 627.6, 429.4)">e</text><text xml:space="preserve" font-family="Palatino-Roman,Palatino" font-size="36.0" fill="#000000" transform="matrix(1.00, 0.00, -0.00, -1.00, 644.9, 429.4)">n</text><text xml:space="preserve" font-family="Palatino-Roman,Palatino" font-size="36.0" fill="#000000" transform="matrix(1.00, 0.00, -0.00, -1.00, 665.8, 429.4)"> </text><text xml:space="preserve" font-family="Palatino-Roman,Palatino" font-size="36.0" fill="#000000" transform="matrix(1.00, 0.00, -0.00, -1.00, 674.8, 429.4)">g</text><text xml:space="preserve" font-family="Palatino-Roman,Palatino" font-size="36.0" fill="#000000" transform="matrix(1.00, 0.00, -0.00, -1.00, 694.8, 429.4)">å</text><text xml:space="preserve" font-family="Palatino-Roman,Palatino" font-size="36.0" fill="#000000" transform="matrix(1.00, 0.00, -0.00, -1.00, 712.8, 429.4)">r</text><text xml:space="preserve" font-family="Palatino-Roman,Palatino" font-size="36.0" fill="#000000" transform="matrix(1.00, 0.00, -0.00, -1.00, 727.1, 429.4)"> </text><text xml:space="preserve" font-family="Palatino-Roman,Palatino" font-size="36.0" fill="#000000" transform="matrix(1.00, 0.00, -0.00, -1.00, 736.1, 429.4)">p</text><text xml:space="preserve" font-family="Palatino-Roman,Palatino" font-size="36.0" fill="#000000" transform="matrix(1.00, 0.00, -0.00, -1.00, 757.7, 429.4)">å</text><text xml:space="preserve" font-family="Palatino-Roman,Palatino" font-size="36.0" fill="#000000" transform="matrix(1.00, 0.00, -0.00, -1.00, 775.7, 429.4)"> </text><text xml:space="preserve" font-family="Palatino-Roman,Palatino" font-size="36.0" fill="#000000" transform="matrix(1.00, 0.00, -0.00, -1.00, 784.7, 429.4)">g</text><text xml:space="preserve" font-family="Palatino-Roman,Palatino" font-size="36.0" fill="#000000" transform="matrix(1.00, 0.00, -0.00, -1.00, 804.7, 429.4)">a</text><text xml:space="preserve" font-family="Palatino-Roman,Palatino" font-size="36.0" fill="#000000" transform="matrix(1.00, 0.00, -0.00, -1.00, 822.7, 429.4)">t</text><text xml:space="preserve" font-family="Palatino-Roman,Palatino" font-size="36.0" fill="#000000" transform="matrix(1.00, 0.00, -0.00, -1.00, 834.5, 429.4)">a</text><text xml:space="preserve" font-family="Palatino-Roman,Palatino" font-size="36.0" fill="#000000" transform="matrix(1.00, 0.00, -0.00, -1.00, 852.5, 429.4)">n</text><text xml:space="preserve" font-family="Palatino-Roman,Palatino" font-size="16.0" fill="#000000" transform="matrix(1.00, 0.00, -0.00, -1.00, 829.2, 29.4)">©</text><text xml:space="preserve" font-family="Palatino-Roman,Palatino" font-size="16.0" fill="#000000" transform="matrix(1.00, 0.00, -0.00, -1.00, 841.2, 29.4)"> </text><text xml:space="preserve" font-family="Palatino-Roman,Palatino" font-size="16.0" fill="#000000" transform="matrix(1.00, 0.00, -0.00, -1.00, 845.2, 29.4)">J</text><text xml:space="preserve" font-family="Palatino-Roman,Palatino" font-size="16.0" fill="#000000" transform="matrix(1.00, 0.00, -0.00, -1.00, 850.5, 29.4)">o</text><text xml:space="preserve" font-family="Palatino-Roman,Palatino" font-size="16.0" fill="#000000" transform="matrix(1.00, 0.00, -0.00, -1.00, 859.2, 29.4)">o</text><text xml:space="preserve" font-family="Palatino-Roman,Palatino" font-size="16.0" fill="#000000" transform="matrix(1.00, 0.00, -0.00, -1.00, 868.0, 29.4)">n</text><text xml:space="preserve" font-family="Palatino-Roman,Palatino" font-size="16.0" fill="#000000" transform="matrix(1.00, 0.00, -0.00, -1.00, 877.3, 29.4)">a</text><text xml:space="preserve" font-family="Palatino-Roman,Palatino" font-size="16.0" fill="#000000" transform="matrix(1.00, 0.00, -0.00, -1.00, 885.3, 29.4)">s</text><text xml:space="preserve" font-family="Palatino-Roman,Palatino" font-size="16.0" fill="#000000" transform="matrix(1.00, 0.00, -0.00, -1.00, 892.1, 29.4)"> </text><text xml:space="preserve" font-family="Palatino-Roman,Palatino" font-size="16.0" fill="#000000" transform="matrix(1.00, 0.00, -0.00, -1.00, 896.1, 29.4)">V</text><text xml:space="preserve" font-family="Palatino-Roman,Palatino" font-size="16.0" fill="#000000" transform="matrix(1.00, 0.00, -0.00, -1.00, 906.1, 29.4)">a</text><text xml:space="preserve" font-family="Palatino-Roman,Palatino" font-size="16.0" fill="#000000" transform="matrix(1.00, 0.00, -0.00, -1.00, 914.1, 29.4)">n</text><text xml:space="preserve" font-family="Palatino-Roman,Palatino" font-size="16.0" fill="#000000" transform="matrix(1.00, 0.00, -0.00, -1.00, 923.5, 29.4)">h</text><text xml:space="preserve" font-family="Palatino-Roman,Palatino" font-size="16.0" fill="#000000" transform="matrix(1.00, 0.00, -0.00, -1.00, 932.8, 29.4)">a</text><text xml:space="preserve" font-family="Palatino-Roman,Palatino" font-size="16.0" fill="#000000" transform="matrix(1.00, 0.00, -0.00, -1.00, 940.8, 29.4)">l</text><text xml:space="preserve" font-family="Palatino-Roman,Palatino" font-size="16.0" fill="#000000" transform="matrix(1.00, 0.00, -0.00, -1.00, 945.4, 29.4)">a</text><text xml:space="preserve" font-family="Palatino-Roman,Palatino" font-size="16.0" fill="#000000" transform="matrix(1.00, 0.00, -0.00, -1.00, 953.4, 29.4)"> </text><text xml:space="preserve" font-family="Palatino-Roman,Palatino" font-size="16.0" fill="#000000" transform="matrix(1.00, 0.00, -0.00, -1.00, 957.4, 29.4)">2</text><text xml:space="preserve" font-family="Palatino-Roman,Palatino" font-size="16.0" fill="#000000" transform="matrix(1.00, 0.00, -0.00, -1.00, 965.4, 29.4)">0</text><text xml:space="preserve" font-family="Palatino-Roman,Palatino" font-size="16.0" fill="#000000" transform="matrix(1.00, 0.00, -0.00, -1.00, 973.4, 29.4)">1</text><text xml:space="preserve" font-family="Palatino-Roman,Palatino" font-size="16.0" fill="#000000" transform="matrix(1.00, 0.00, -0.00, -1.00, 981.4, 29.4)">6</text><g><clipPath id="clip0x7ff8c5ece1c0"><path d="M 56.0 381.0 L 968.0 381.0 L 968.0 72.0 L 56.0 72.0 Z M 55.7 381.2 "></path></clipPath><g clip-path="url(#clip0x7ff8c5ece1c0)"><image xlink:href="../../2B20071C-9698-4C1E-903B-EC1FA7BF3581/assets/8A9E7EBBECF43284E51110E188BAC03B.jpeg" width="1280.00" height="850.00" transform="matrix(0.71, 0.00, -0.00, -0.71, 55.7, 572.6)"></image></g></g><text xml:space="preserve" font-family="Palatino-Roman,Palatino" font-size="18.0" fill="#000000" transform="matrix(1.00, 0.00, -0.00, -1.00, 57.5, 52.9)">P</text><text xml:space="preserve" font-family="Palatino-Roman,Palatino" font-size="18.0" fill="#000000" transform="matrix(1.00, 0.00, -0.00, -1.00, 68.4, 52.9)">o</text><text xml:space="preserve" font-family="Palatino-Roman,Palatino" font-size="18.0" fill="#000000" transform="matrix(1.00, 0.00, -0.00, -1.00, 78.2, 52.9)">m</text><text xml:space="preserve" font-family="Palatino-Roman,Palatino" font-size="18.0" fill="#000000" transform="matrix(1.00, 0.00, -0.00, -1.00, 94.1, 52.9)">p</text><text xml:space="preserve" font-family="Palatino-Roman,Palatino" font-size="18.0" fill="#000000" transform="matrix(1.00, 0.00, -0.00, -1.00, 104.9, 52.9)">e</text><text xml:space="preserve" font-family="Palatino-Roman,Palatino" font-size="18.0" fill="#000000" transform="matrix(1.00, 0.00, -0.00, -1.00, 113.6, 52.9)">j</text><text xml:space="preserve" font-family="Palatino-Roman,Palatino" font-size="18.0" fill="#000000" transform="matrix(1.00, 0.00, -0.00, -1.00, 117.8, 52.9)">i</text></g></svg>