<?xml version="1.0" encoding="UTF-8" standalone="no"?><svg xmlns="http://www.w3.org/2000/svg" xmlns:xlink="http://www.w3.org/1999/xlink" clip-rule="evenodd" stroke-miterlimit="10" viewBox="0 0 1024 768"><desc>SVG generated by Keynote</desc><defs></defs><g transform="matrix(1.00, 0.00, -0.00, -1.00, 0.0, 768.0)"><path d="M 0.0 768.0 L 1024.0 768.0 L 1024.0 0.0 L 0.0 0.0 Z M 0.0 768.0 " fill="#FEFFFF"></path><text xml:space="preserve" font-family="Palatino-Roman,Palatino" font-size="84.0" fill="#164E86" transform="matrix(1.00, 0.00, -0.00, -1.00, 301.8, 640.3)">T</text><text xml:space="preserve" font-family="Palatino-Roman,Palatino" font-size="84.0" fill="#164E86" transform="matrix(1.00, 0.00, -0.00, -1.00, 353.2, 640.3)">E</text><text xml:space="preserve" font-family="Palatino-Roman,Palatino" font-size="84.0" fill="#164E86" transform="matrix(1.00, 0.00, -0.00, -1.00, 404.5, 640.3)">M</text><text xml:space="preserve" font-family="Palatino-Roman,Palatino" font-size="84.0" fill="#164E86" transform="matrix(1.00, 0.00, -0.00, -1.00, 484.0, 640.3)">P</text><text xml:space="preserve" font-family="Palatino-Roman,Palatino" font-size="84.0" fill="#164E86" transform="matrix(1.00, 0.00, -0.00, -1.00, 534.7, 640.3)">O</text><text xml:space="preserve" font-family="Palatino-Roman,Palatino" font-size="84.0" fill="#164E86" transform="matrix(1.00, 0.00, -0.00, -1.00, 600.7, 640.3)">R</text><text xml:space="preserve" font-family="Palatino-Roman,Palatino" font-size="84.0" fill="#164E86" transform="matrix(1.00, 0.00, -0.00, -1.00, 656.8, 640.3)">A</text><text xml:space="preserve" font-family="LucidaGrande,Lucida Grande" font-size="40.0" fill="#164E86" transform="matrix(1.00, 0.00, -0.00, -1.00, 73.5, 551.8)">‣</text><text xml:space="preserve" font-family="Palatino-Roman,Palatino" font-size="40.0" fill="#000000" transform="matrix(1.00, 0.00, -0.00, -1.00, 123.5, 551.5)">P</text><text xml:space="preserve" font-family="Palatino-Roman,Palatino" font-size="40.0" fill="#000000" transform="matrix(1.00, 0.00, -0.00, -1.00, 147.7, 551.5)">r</text><text xml:space="preserve" font-family="Palatino-Roman,Palatino" font-size="40.0" fill="#000000" transform="matrix(1.00, 0.00, -0.00, -1.00, 162.8, 551.5)">e</text><text xml:space="preserve" font-family="Palatino-Roman,Palatino" font-size="40.0" fill="#000000" transform="matrix(1.00, 0.00, -0.00, -1.00, 181.9, 551.5)">s</text><text xml:space="preserve" font-family="Palatino-Roman,Palatino" font-size="40.0" fill="#000000" transform="matrix(1.00, 0.00, -0.00, -1.00, 198.9, 551.5)">e</text><text xml:space="preserve" font-family="Palatino-Roman,Palatino" font-size="40.0" fill="#000000" transform="matrix(1.00, 0.00, -0.00, -1.00, 218.0, 551.5)">n</text><text xml:space="preserve" font-family="Palatino-Roman,Palatino" font-size="40.0" fill="#000000" transform="matrix(1.00, 0.00, -0.00, -1.00, 241.3, 551.5)">s</text><text xml:space="preserve" font-family="Palatino-Roman,Palatino" font-size="40.0" fill="#000000" transform="matrix(1.00, 0.00, -0.00, -1.00, 258.3, 551.5)"> </text><text xml:space="preserve" font-family="Palatino-Roman,Palatino" font-size="40.0" fill="#000000" transform="matrix(1.00, 0.00, -0.00, -1.00, 268.3, 551.5)">o</text><text xml:space="preserve" font-family="Palatino-Roman,Palatino" font-size="40.0" fill="#000000" transform="matrix(1.00, 0.00, -0.00, -1.00, 290.1, 551.5)">c</text><text xml:space="preserve" font-family="Palatino-Roman,Palatino" font-size="40.0" fill="#000000" transform="matrix(1.00, 0.00, -0.00, -1.00, 307.9, 551.5)">h</text><text xml:space="preserve" font-family="Palatino-Roman,Palatino" font-size="40.0" fill="#000000" transform="matrix(1.00, 0.00, -0.00, -1.00, 331.1, 551.5)"> </text><text xml:space="preserve" font-family="Palatino-Roman,Palatino" font-size="40.0" fill="#000000" transform="matrix(1.00, 0.00, -0.00, -1.00, 341.1, 551.5)">p</text><text xml:space="preserve" font-family="Palatino-Roman,Palatino" font-size="40.0" fill="#000000" transform="matrix(1.00, 0.00, -0.00, -1.00, 365.2, 551.5)">l</text><text xml:space="preserve" font-family="Palatino-Roman,Palatino" font-size="40.0" fill="#000000" transform="matrix(1.00, 0.00, -0.00, -1.00, 376.8, 551.5)">u</text><text xml:space="preserve" font-family="Palatino-Roman,Palatino" font-size="40.0" fill="#000000" transform="matrix(1.00, 0.00, -0.00, -1.00, 400.9, 551.5)">s</text><text xml:space="preserve" font-family="Palatino-Roman,Palatino" font-size="40.0" fill="#000000" transform="matrix(1.00, 0.00, -0.00, -1.00, 417.9, 551.5)">k</text><text xml:space="preserve" font-family="Palatino-Roman,Palatino" font-size="40.0" fill="#000000" transform="matrix(1.00, 0.00, -0.00, -1.00, 440.1, 551.5)">v</text><text xml:space="preserve" font-family="Palatino-Roman,Palatino" font-size="40.0" fill="#000000" transform="matrix(1.00, 0.00, -0.00, -1.00, 462.7, 551.5)">a</text><text xml:space="preserve" font-family="Palatino-Roman,Palatino" font-size="40.0" fill="#000000" transform="matrix(1.00, 0.00, -0.00, -1.00, 482.7, 551.5)">m</text><text xml:space="preserve" font-family="Palatino-Roman,Palatino" font-size="40.0" fill="#000000" transform="matrix(1.00, 0.00, -0.00, -1.00, 518.0, 551.5)">p</text><text xml:space="preserve" font-family="Palatino-Roman,Palatino" font-size="40.0" fill="#000000" transform="matrix(1.00, 0.00, -0.00, -1.00, 542.1, 551.5)">e</text><text xml:space="preserve" font-family="Palatino-Roman,Palatino" font-size="40.0" fill="#000000" transform="matrix(1.00, 0.00, -0.00, -1.00, 561.2, 551.5)">r</text><text xml:space="preserve" font-family="Palatino-Roman,Palatino" font-size="40.0" fill="#000000" transform="matrix(1.00, 0.00, -0.00, -1.00, 577.0, 551.5)">f</text><text xml:space="preserve" font-family="Palatino-Roman,Palatino" font-size="40.0" fill="#000000" transform="matrix(1.00, 0.00, -0.00, -1.00, 590.4, 551.5)">e</text><text xml:space="preserve" font-family="Palatino-Roman,Palatino" font-size="40.0" fill="#000000" transform="matrix(1.00, 0.00, -0.00, -1.00, 609.5, 551.5)">k</text><text xml:space="preserve" font-family="Palatino-Roman,Palatino" font-size="40.0" fill="#000000" transform="matrix(1.00, 0.00, -0.00, -1.00, 631.8, 551.5)">t</text><text xml:space="preserve" font-family="Palatino-Roman,Palatino" font-size="40.0" fill="#000000" transform="matrix(1.00, 0.00, -0.00, -1.00, 644.8, 551.5)"> </text><text xml:space="preserve" font-family="Palatino-Roman,Palatino" font-size="40.0" fill="#000000" transform="matrix(1.00, 0.00, -0.00, -1.00, 654.8, 551.5)">a</text><text xml:space="preserve" font-family="Palatino-Roman,Palatino" font-size="40.0" fill="#000000" transform="matrix(1.00, 0.00, -0.00, -1.00, 674.8, 551.5)">n</text><text xml:space="preserve" font-family="Palatino-Roman,Palatino" font-size="40.0" fill="#000000" transform="matrix(1.00, 0.00, -0.00, -1.00, 698.1, 551.5)">v</text><text xml:space="preserve" font-family="Palatino-Roman,Palatino" font-size="40.0" fill="#000000" transform="matrix(1.00, 0.00, -0.00, -1.00, 720.7, 551.5)">ä</text><text xml:space="preserve" font-family="Palatino-Roman,Palatino" font-size="40.0" fill="#000000" transform="matrix(1.00, 0.00, -0.00, -1.00, 740.7, 551.5)">n</text><text xml:space="preserve" font-family="Palatino-Roman,Palatino" font-size="40.0" fill="#000000" transform="matrix(1.00, 0.00, -0.00, -1.00, 764.0, 551.5)">d</text><text xml:space="preserve" font-family="Palatino-Roman,Palatino" font-size="40.0" fill="#000000" transform="matrix(1.00, 0.00, -0.00, -1.00, 788.4, 551.5)">s</text><text xml:space="preserve" font-family="Palatino-Roman,Palatino" font-size="40.0" fill="#000000" transform="matrix(1.00, 0.00, -0.00, -1.00, 805.4, 551.5)"> </text><text xml:space="preserve" font-family="Palatino-Roman,Palatino" font-size="40.0" fill="#000000" transform="matrix(1.00, 0.00, -0.00, -1.00, 815.4, 551.5)">u</text><text xml:space="preserve" font-family="Palatino-Roman,Palatino" font-size="40.0" fill="#000000" transform="matrix(1.00, 0.00, -0.00, -1.00, 839.5, 551.5)">n</text><text xml:space="preserve" font-family="Palatino-Roman,Palatino" font-size="40.0" fill="#000000" transform="matrix(1.00, 0.00, -0.00, -1.00, 862.8, 551.5)">g</text><text xml:space="preserve" font-family="Palatino-Roman,Palatino" font-size="40.0" fill="#000000" transform="matrix(1.00, 0.00, -0.00, -1.00, 885.0, 551.5)">e</text><text xml:space="preserve" font-family="Palatino-Roman,Palatino" font-size="40.0" fill="#000000" transform="matrix(1.00, 0.00, -0.00, -1.00, 904.2, 551.5)">f</text><text xml:space="preserve" font-family="Palatino-Roman,Palatino" font-size="40.0" fill="#000000" transform="matrix(1.00, 0.00, -0.00, -1.00, 917.5, 551.5)">ä</text><text xml:space="preserve" font-family="Palatino-Roman,Palatino" font-size="40.0" fill="#000000" transform="matrix(1.00, 0.00, -0.00, -1.00, 937.5, 551.5)">r</text><text xml:space="preserve" font-family="Palatino-Roman,Palatino" font-size="40.0" fill="#000000" transform="matrix(1.00, 0.00, -0.00, -1.00, 953.3, 551.5)"> </text><text xml:space="preserve" font-family="Palatino-Roman,Palatino" font-size="40.0" fill="#000000" transform="matrix(1.00, 0.00, -0.00, -1.00, 123.5, 498.5)">p</text><text xml:space="preserve" font-family="Palatino-Roman,Palatino" font-size="40.0" fill="#000000" transform="matrix(1.00, 0.00, -0.00, -1.00, 147.6, 498.5)">å</text><text xml:space="preserve" font-family="Palatino-Roman,Palatino" font-size="40.0" fill="#000000" transform="matrix(1.00, 0.00, -0.00, -1.00, 167.6, 498.5)"> </text><text xml:space="preserve" font-family="Palatino-Roman,Palatino" font-size="40.0" fill="#000000" transform="matrix(1.00, 0.00, -0.00, -1.00, 177.6, 498.5)">s</text><text xml:space="preserve" font-family="Palatino-Roman,Palatino" font-size="40.0" fill="#000000" transform="matrix(1.00, 0.00, -0.00, -1.00, 194.5, 498.5)">a</text><text xml:space="preserve" font-family="Palatino-Roman,Palatino" font-size="40.0" fill="#000000" transform="matrix(1.00, 0.00, -0.00, -1.00, 214.5, 498.5)">m</text><text xml:space="preserve" font-family="Palatino-Roman,Palatino" font-size="40.0" fill="#000000" transform="matrix(1.00, 0.00, -0.00, -1.00, 249.8, 498.5)">m</text><text xml:space="preserve" font-family="Palatino-Roman,Palatino" font-size="40.0" fill="#000000" transform="matrix(1.00, 0.00, -0.00, -1.00, 285.1, 498.5)">a</text><text xml:space="preserve" font-family="Palatino-Roman,Palatino" font-size="40.0" fill="#000000" transform="matrix(1.00, 0.00, -0.00, -1.00, 305.1, 498.5)"> </text><text xml:space="preserve" font-family="Palatino-Roman,Palatino" font-size="40.0" fill="#000000" transform="matrix(1.00, 0.00, -0.00, -1.00, 315.1, 498.5)">s</text><text xml:space="preserve" font-family="Palatino-Roman,Palatino" font-size="40.0" fill="#000000" transform="matrix(1.00, 0.00, -0.00, -1.00, 332.1, 498.5)">ä</text><text xml:space="preserve" font-family="Palatino-Roman,Palatino" font-size="40.0" fill="#000000" transform="matrix(1.00, 0.00, -0.00, -1.00, 352.1, 498.5)">t</text><text xml:space="preserve" font-family="Palatino-Roman,Palatino" font-size="40.0" fill="#000000" transform="matrix(1.00, 0.00, -0.00, -1.00, 365.1, 498.5)">t</text><text xml:space="preserve" font-family="Palatino-Roman,Palatino" font-size="40.0" fill="#000000" transform="matrix(1.00, 0.00, -0.00, -1.00, 378.2, 498.5)"> </text><text xml:space="preserve" font-family="Palatino-Roman,Palatino" font-size="40.0" fill="#000000" transform="matrix(1.00, 0.00, -0.00, -1.00, 388.2, 498.5)">s</text><text xml:space="preserve" font-family="Palatino-Roman,Palatino" font-size="40.0" fill="#000000" transform="matrix(1.00, 0.00, -0.00, -1.00, 405.1, 498.5)">o</text><text xml:space="preserve" font-family="Palatino-Roman,Palatino" font-size="40.0" fill="#000000" transform="matrix(1.00, 0.00, -0.00, -1.00, 427.0, 498.5)">m</text><text xml:space="preserve" font-family="Palatino-Roman,Palatino" font-size="40.0" fill="#000000" transform="matrix(1.00, 0.00, -0.00, -1.00, 462.3, 498.5)"> </text><text xml:space="preserve" font-family="Palatino-Roman,Palatino" font-size="40.0" fill="#000000" transform="matrix(1.00, 0.00, -0.00, -1.00, 472.3, 498.5)">i</text><text xml:space="preserve" font-family="Palatino-Roman,Palatino" font-size="40.0" fill="#000000" transform="matrix(1.00, 0.00, -0.00, -1.00, 483.9, 498.5)"> </text><text xml:space="preserve" font-family="Palatino-Roman,Palatino" font-size="40.0" fill="#000000" transform="matrix(1.00, 0.00, -0.00, -1.00, 493.9, 498.5)">s</text><text xml:space="preserve" font-family="Palatino-Roman,Palatino" font-size="40.0" fill="#000000" transform="matrix(1.00, 0.00, -0.00, -1.00, 510.8, 498.5)">v</text><text xml:space="preserve" font-family="Palatino-Roman,Palatino" font-size="40.0" fill="#000000" transform="matrix(1.00, 0.00, -0.00, -1.00, 533.4, 498.5)">e</text><text xml:space="preserve" font-family="Palatino-Roman,Palatino" font-size="40.0" fill="#000000" transform="matrix(1.00, 0.00, -0.00, -1.00, 552.6, 498.5)">n</text><text xml:space="preserve" font-family="Palatino-Roman,Palatino" font-size="40.0" fill="#000000" transform="matrix(1.00, 0.00, -0.00, -1.00, 575.9, 498.5)">s</text><text xml:space="preserve" font-family="Palatino-Roman,Palatino" font-size="40.0" fill="#000000" transform="matrix(1.00, 0.00, -0.00, -1.00, 592.8, 498.5)">k</text><text xml:space="preserve" font-family="Palatino-Roman,Palatino" font-size="40.0" fill="#000000" transform="matrix(1.00, 0.00, -0.00, -1.00, 615.1, 498.5)">a</text><text xml:space="preserve" font-family="Palatino-Roman,Palatino" font-size="40.0" fill="#000000" transform="matrix(1.00, 0.00, -0.00, -1.00, 635.1, 498.5)">n</text><text xml:space="preserve" font-family="LucidaGrande,Lucida Grande" font-size="40.0" fill="#164E86" transform="matrix(1.00, 0.00, -0.00, -1.00, 73.5, 430.8)">‣</text><text xml:space="preserve" font-family="Palatino-Roman,Palatino" font-size="40.0" fill="#000000" transform="matrix(1.00, 0.00, -0.00, -1.00, 123.5, 430.5)">I</text><text xml:space="preserve" font-family="Palatino-Roman,Palatino" font-size="40.0" fill="#000000" transform="matrix(1.00, 0.00, -0.00, -1.00, 137.0, 430.5)">m</text><text xml:space="preserve" font-family="Palatino-Roman,Palatino" font-size="40.0" fill="#000000" transform="matrix(1.00, 0.00, -0.00, -1.00, 172.3, 430.5)">p</text><text xml:space="preserve" font-family="Palatino-Roman,Palatino" font-size="40.0" fill="#000000" transform="matrix(1.00, 0.00, -0.00, -1.00, 196.4, 430.5)">e</text><text xml:space="preserve" font-family="Palatino-Roman,Palatino" font-size="40.0" fill="#000000" transform="matrix(1.00, 0.00, -0.00, -1.00, 215.5, 430.5)">r</text><text xml:space="preserve" font-family="Palatino-Roman,Palatino" font-size="40.0" fill="#000000" transform="matrix(1.00, 0.00, -0.00, -1.00, 231.3, 430.5)">f</text><text xml:space="preserve" font-family="Palatino-Roman,Palatino" font-size="40.0" fill="#000000" transform="matrix(1.00, 0.00, -0.00, -1.00, 244.6, 430.5)">e</text><text xml:space="preserve" font-family="Palatino-Roman,Palatino" font-size="40.0" fill="#000000" transform="matrix(1.00, 0.00, -0.00, -1.00, 263.8, 430.5)">k</text><text xml:space="preserve" font-family="Palatino-Roman,Palatino" font-size="40.0" fill="#000000" transform="matrix(1.00, 0.00, -0.00, -1.00, 286.0, 430.5)">t</text><text xml:space="preserve" font-family="Palatino-Roman,Palatino" font-size="40.0" fill="#000000" transform="matrix(1.00, 0.00, -0.00, -1.00, 299.1, 430.5)"> </text><text xml:space="preserve" font-family="Palatino-Roman,Palatino" font-size="40.0" fill="#000000" transform="matrix(1.00, 0.00, -0.00, -1.00, 309.1, 430.5)">o</text><text xml:space="preserve" font-family="Palatino-Roman,Palatino" font-size="40.0" fill="#000000" transform="matrix(1.00, 0.00, -0.00, -1.00, 330.9, 430.5)">c</text><text xml:space="preserve" font-family="Palatino-Roman,Palatino" font-size="40.0" fill="#000000" transform="matrix(1.00, 0.00, -0.00, -1.00, 348.7, 430.5)">h</text><text xml:space="preserve" font-family="Palatino-Roman,Palatino" font-size="40.0" fill="#000000" transform="matrix(1.00, 0.00, -0.00, -1.00, 372.0, 430.5)"> </text><text xml:space="preserve" font-family="Palatino-Roman,Palatino" font-size="40.0" fill="#000000" transform="matrix(1.00, 0.00, -0.00, -1.00, 382.0, 430.5)">p</text><text xml:space="preserve" font-family="Palatino-Roman,Palatino" font-size="40.0" fill="#000000" transform="matrix(1.00, 0.00, -0.00, -1.00, 406.0, 430.5)">e</text><text xml:space="preserve" font-family="Palatino-Roman,Palatino" font-size="40.0" fill="#000000" transform="matrix(1.00, 0.00, -0.00, -1.00, 425.2, 430.5)">r</text><text xml:space="preserve" font-family="Palatino-Roman,Palatino" font-size="40.0" fill="#000000" transform="matrix(1.00, 0.00, -0.00, -1.00, 441.0, 430.5)">f</text><text xml:space="preserve" font-family="Palatino-Roman,Palatino" font-size="40.0" fill="#000000" transform="matrix(1.00, 0.00, -0.00, -1.00, 454.3, 430.5)">e</text><text xml:space="preserve" font-family="Palatino-Roman,Palatino" font-size="40.0" fill="#000000" transform="matrix(1.00, 0.00, -0.00, -1.00, 473.4, 430.5)">k</text><text xml:space="preserve" font-family="Palatino-Roman,Palatino" font-size="40.0" fill="#000000" transform="matrix(1.00, 0.00, -0.00, -1.00, 495.7, 430.5)">t</text><text xml:space="preserve" font-family="Palatino-Roman,Palatino" font-size="40.0" fill="#000000" transform="matrix(1.00, 0.00, -0.00, -1.00, 508.8, 430.5)"> </text><text xml:space="preserve" font-family="Palatino-Roman,Palatino" font-size="40.0" fill="#000000" transform="matrix(1.00, 0.00, -0.00, -1.00, 518.8, 430.5)">a</text><text xml:space="preserve" font-family="Palatino-Roman,Palatino" font-size="40.0" fill="#000000" transform="matrix(1.00, 0.00, -0.00, -1.00, 538.8, 430.5)">n</text><text xml:space="preserve" font-family="Palatino-Roman,Palatino" font-size="40.0" fill="#000000" transform="matrix(1.00, 0.00, -0.00, -1.00, 562.0, 430.5)">v</text><text xml:space="preserve" font-family="Palatino-Roman,Palatino" font-size="40.0" fill="#000000" transform="matrix(1.00, 0.00, -0.00, -1.00, 584.6, 430.5)">ä</text><text xml:space="preserve" font-family="Palatino-Roman,Palatino" font-size="40.0" fill="#000000" transform="matrix(1.00, 0.00, -0.00, -1.00, 604.6, 430.5)">n</text><text xml:space="preserve" font-family="Palatino-Roman,Palatino" font-size="40.0" fill="#000000" transform="matrix(1.00, 0.00, -0.00, -1.00, 627.9, 430.5)">d</text><text xml:space="preserve" font-family="Palatino-Roman,Palatino" font-size="40.0" fill="#000000" transform="matrix(1.00, 0.00, -0.00, -1.00, 652.3, 430.5)">s</text><text xml:space="preserve" font-family="Palatino-Roman,Palatino" font-size="40.0" fill="#000000" transform="matrix(1.00, 0.00, -0.00, -1.00, 669.3, 430.5)"> </text><text xml:space="preserve" font-family="Palatino-Roman,Palatino" font-size="40.0" fill="#000000" transform="matrix(1.00, 0.00, -0.00, -1.00, 679.3, 430.5)">n</text><text xml:space="preserve" font-family="Palatino-Roman,Palatino" font-size="40.0" fill="#000000" transform="matrix(1.00, 0.00, -0.00, -1.00, 702.6, 430.5)">å</text><text xml:space="preserve" font-family="Palatino-Roman,Palatino" font-size="40.0" fill="#000000" transform="matrix(1.00, 0.00, -0.00, -1.00, 722.6, 430.5)">g</text><text xml:space="preserve" font-family="Palatino-Roman,Palatino" font-size="40.0" fill="#000000" transform="matrix(1.00, 0.00, -0.00, -1.00, 744.8, 430.5)">o</text><text xml:space="preserve" font-family="Palatino-Roman,Palatino" font-size="40.0" fill="#000000" transform="matrix(1.00, 0.00, -0.00, -1.00, 766.7, 430.5)">t</text><text xml:space="preserve" font-family="Palatino-Roman,Palatino" font-size="40.0" fill="#000000" transform="matrix(1.00, 0.00, -0.00, -1.00, 779.7, 430.5)"> </text><text xml:space="preserve" font-family="Palatino-Roman,Palatino" font-size="40.0" fill="#000000" transform="matrix(1.00, 0.00, -0.00, -1.00, 123.5, 377.5)">a</text><text xml:space="preserve" font-family="Palatino-Roman,Palatino" font-size="40.0" fill="#000000" transform="matrix(1.00, 0.00, -0.00, -1.00, 143.5, 377.5)">n</text><text xml:space="preserve" font-family="Palatino-Roman,Palatino" font-size="40.0" fill="#000000" transform="matrix(1.00, 0.00, -0.00, -1.00, 166.8, 377.5)">n</text><text xml:space="preserve" font-family="Palatino-Roman,Palatino" font-size="40.0" fill="#000000" transform="matrix(1.00, 0.00, -0.00, -1.00, 190.1, 377.5)">o</text><text xml:space="preserve" font-family="Palatino-Roman,Palatino" font-size="40.0" fill="#000000" transform="matrix(1.00, 0.00, -0.00, -1.00, 211.9, 377.5)">r</text><text xml:space="preserve" font-family="Palatino-Roman,Palatino" font-size="40.0" fill="#000000" transform="matrix(1.00, 0.00, -0.00, -1.00, 227.7, 377.5)">l</text><text xml:space="preserve" font-family="Palatino-Roman,Palatino" font-size="40.0" fill="#000000" transform="matrix(1.00, 0.00, -0.00, -1.00, 239.4, 377.5)">u</text><text xml:space="preserve" font-family="Palatino-Roman,Palatino" font-size="40.0" fill="#000000" transform="matrix(1.00, 0.00, -0.00, -1.00, 263.5, 377.5)">n</text><text xml:space="preserve" font-family="Palatino-Roman,Palatino" font-size="40.0" fill="#000000" transform="matrix(1.00, 0.00, -0.00, -1.00, 286.8, 377.5)">d</text><text xml:space="preserve" font-family="Palatino-Roman,Palatino" font-size="40.0" fill="#000000" transform="matrix(1.00, 0.00, -0.00, -1.00, 311.2, 377.5)">a</text><text xml:space="preserve" font-family="LucidaGrande,Lucida Grande" font-size="40.0" fill="#164E86" transform="matrix(1.00, 0.00, -0.00, -1.00, 143.5, 309.8)">‣</text><text xml:space="preserve" font-family="Palatino-Roman,Palatino" font-size="40.0" fill="#000000" transform="matrix(1.00, 0.00, -0.00, -1.00, 193.5, 309.5)">L</text><text xml:space="preserve" font-family="Palatino-Roman,Palatino" font-size="40.0" fill="#000000" transform="matrix(1.00, 0.00, -0.00, -1.00, 218.0, 309.5)">ä</text><text xml:space="preserve" font-family="Palatino-Roman,Palatino" font-size="40.0" fill="#000000" transform="matrix(1.00, 0.00, -0.00, -1.00, 238.0, 309.5)">s</text><text xml:space="preserve" font-family="Palatino-Roman,Palatino" font-size="40.0" fill="#000000" transform="matrix(1.00, 0.00, -0.00, -1.00, 254.9, 309.5)"> </text><text xml:space="preserve" font-family="Palatino-Roman,Palatino" font-size="40.0" fill="#000000" transform="matrix(1.00, 0.00, -0.00, -1.00, 264.9, 309.5)">s</text><text xml:space="preserve" font-family="Palatino-Roman,Palatino" font-size="40.0" fill="#000000" transform="matrix(1.00, 0.00, -0.00, -1.00, 281.8, 309.5)">p</text><text xml:space="preserve" font-family="Palatino-Roman,Palatino" font-size="40.0" fill="#000000" transform="matrix(1.00, 0.00, -0.00, -1.00, 305.9, 309.5)">e</text><text xml:space="preserve" font-family="Palatino-Roman,Palatino" font-size="40.0" fill="#000000" transform="matrix(1.00, 0.00, -0.00, -1.00, 325.0, 309.5)">c</text><text xml:space="preserve" font-family="Palatino-Roman,Palatino" font-size="40.0" fill="#000000" transform="matrix(1.00, 0.00, -0.00, -1.00, 342.8, 309.5)">i</text><text xml:space="preserve" font-family="Palatino-Roman,Palatino" font-size="40.0" fill="#000000" transform="matrix(1.00, 0.00, -0.00, -1.00, 354.4, 309.5)">e</text><text xml:space="preserve" font-family="Palatino-Roman,Palatino" font-size="40.0" fill="#000000" transform="matrix(1.00, 0.00, -0.00, -1.00, 373.6, 309.5)">l</text><text xml:space="preserve" font-family="Palatino-Roman,Palatino" font-size="40.0" fill="#000000" transform="matrix(1.00, 0.00, -0.00, -1.00, 385.2, 309.5)">l</text><text xml:space="preserve" font-family="Palatino-Roman,Palatino" font-size="40.0" fill="#000000" transform="matrix(1.00, 0.00, -0.00, -1.00, 396.9, 309.5)">t</text><text xml:space="preserve" font-family="Palatino-Roman,Palatino" font-size="40.0" fill="#000000" transform="matrix(1.00, 0.00, -0.00, -1.00, 409.9, 309.5)"> </text><text xml:space="preserve" font-family="Palatino-Roman,Palatino" font-size="40.0" fill="#000000" transform="matrix(1.00, 0.00, -0.00, -1.00, 419.9, 309.5)">n</text><text xml:space="preserve" font-family="Palatino-Roman,Palatino" font-size="40.0" fill="#000000" transform="matrix(1.00, 0.00, -0.00, -1.00, 443.2, 309.5)">o</text><text xml:space="preserve" font-family="Palatino-Roman,Palatino" font-size="40.0" fill="#000000" transform="matrix(1.00, 0.00, -0.00, -1.00, 465.0, 309.5)">g</text><text xml:space="preserve" font-family="Palatino-Roman,Palatino" font-size="40.0" fill="#000000" transform="matrix(1.00, 0.00, -0.00, -1.00, 487.3, 309.5)">a</text><text xml:space="preserve" font-family="Palatino-Roman,Palatino" font-size="40.0" fill="#000000" transform="matrix(1.00, 0.00, -0.00, -1.00, 507.3, 309.5)"> </text><text xml:space="preserve" font-family="Palatino-Roman,Palatino" font-size="40.0" fill="#000000" transform="matrix(1.00, 0.00, -0.00, -1.00, 517.3, 309.5)">f</text><text xml:space="preserve" font-family="Palatino-Roman,Palatino" font-size="40.0" fill="#000000" transform="matrix(1.00, 0.00, -0.00, -1.00, 530.6, 309.5)">ö</text><text xml:space="preserve" font-family="Palatino-Roman,Palatino" font-size="40.0" fill="#000000" transform="matrix(1.00, 0.00, -0.00, -1.00, 552.5, 309.5)">r</text><text xml:space="preserve" font-family="Palatino-Roman,Palatino" font-size="40.0" fill="#000000" transform="matrix(1.00, 0.00, -0.00, -1.00, 568.3, 309.5)">k</text><text xml:space="preserve" font-family="Palatino-Roman,Palatino" font-size="40.0" fill="#000000" transform="matrix(1.00, 0.00, -0.00, -1.00, 590.5, 309.5)">l</text><text xml:space="preserve" font-family="Palatino-Roman,Palatino" font-size="40.0" fill="#000000" transform="matrix(1.00, 0.00, -0.00, -1.00, 602.1, 309.5)">a</text><text xml:space="preserve" font-family="Palatino-Roman,Palatino" font-size="40.0" fill="#000000" transform="matrix(1.00, 0.00, -0.00, -1.00, 622.1, 309.5)">r</text><text xml:space="preserve" font-family="Palatino-Roman,Palatino" font-size="40.0" fill="#000000" transform="matrix(1.00, 0.00, -0.00, -1.00, 637.9, 309.5)">i</text><text xml:space="preserve" font-family="Palatino-Roman,Palatino" font-size="40.0" fill="#000000" transform="matrix(1.00, 0.00, -0.00, -1.00, 649.6, 309.5)">n</text><text xml:space="preserve" font-family="Palatino-Roman,Palatino" font-size="40.0" fill="#000000" transform="matrix(1.00, 0.00, -0.00, -1.00, 672.9, 309.5)">g</text><text xml:space="preserve" font-family="Palatino-Roman,Palatino" font-size="40.0" fill="#000000" transform="matrix(1.00, 0.00, -0.00, -1.00, 695.1, 309.5)">a</text><text xml:space="preserve" font-family="Palatino-Roman,Palatino" font-size="40.0" fill="#000000" transform="matrix(1.00, 0.00, -0.00, -1.00, 715.1, 309.5)">r</text><text xml:space="preserve" font-family="Palatino-Roman,Palatino" font-size="40.0" fill="#000000" transform="matrix(1.00, 0.00, -0.00, -1.00, 730.9, 309.5)">n</text><text xml:space="preserve" font-family="Palatino-Roman,Palatino" font-size="40.0" fill="#000000" transform="matrix(1.00, 0.00, -0.00, -1.00, 754.2, 309.5)">a</text><text xml:space="preserve" font-family="Palatino-Roman,Palatino" font-size="40.0" fill="#000000" transform="matrix(1.00, 0.00, -0.00, -1.00, 774.2, 309.5)"> </text><text xml:space="preserve" font-family="Palatino-Roman,Palatino" font-size="40.0" fill="#000000" transform="matrix(1.00, 0.00, -0.00, -1.00, 784.2, 309.5)">o</text><text xml:space="preserve" font-family="Palatino-Roman,Palatino" font-size="40.0" fill="#000000" transform="matrix(1.00, 0.00, -0.00, -1.00, 806.0, 309.5)">m</text><text xml:space="preserve" font-family="Palatino-Roman,Palatino" font-size="40.0" fill="#000000" transform="matrix(1.00, 0.00, -0.00, -1.00, 841.3, 309.5)"> </text><text xml:space="preserve" font-family="Palatino-Roman,Palatino" font-size="40.0" fill="#000000" transform="matrix(1.00, 0.00, -0.00, -1.00, 193.5, 256.5)">h</text><text xml:space="preserve" font-family="Palatino-Roman,Palatino" font-size="40.0" fill="#000000" transform="matrix(1.00, 0.00, -0.00, -1.00, 216.8, 256.5)">u</text><text xml:space="preserve" font-family="Palatino-Roman,Palatino" font-size="40.0" fill="#000000" transform="matrix(1.00, 0.00, -0.00, -1.00, 240.9, 256.5)">r</text><text xml:space="preserve" font-family="Palatino-Roman,Palatino" font-size="40.0" fill="#000000" transform="matrix(1.00, 0.00, -0.00, -1.00, 256.0, 256.5)">d</text><text xml:space="preserve" font-family="Palatino-Roman,Palatino" font-size="40.0" fill="#000000" transform="matrix(1.00, 0.00, -0.00, -1.00, 280.5, 256.5)">a</text><text xml:space="preserve" font-family="Palatino-Roman,Palatino" font-size="40.0" fill="#000000" transform="matrix(1.00, 0.00, -0.00, -1.00, 300.5, 256.5)">n</text><text xml:space="preserve" font-family="Palatino-Roman,Palatino" font-size="40.0" fill="#000000" transform="matrix(1.00, 0.00, -0.00, -1.00, 323.7, 256.5)">a</text><text xml:space="preserve" font-family="Palatino-Roman,Palatino" font-size="40.0" fill="#000000" transform="matrix(1.00, 0.00, -0.00, -1.00, 343.7, 256.5)"> </text><text xml:space="preserve" font-family="Palatino-Roman,Palatino" font-size="40.0" fill="#000000" transform="matrix(1.00, 0.00, -0.00, -1.00, 353.7, 256.5)">h</text><text xml:space="preserve" font-family="Palatino-Roman,Palatino" font-size="40.0" fill="#000000" transform="matrix(1.00, 0.00, -0.00, -1.00, 377.0, 256.5)">a</text><text xml:space="preserve" font-family="Palatino-Roman,Palatino" font-size="40.0" fill="#000000" transform="matrix(1.00, 0.00, -0.00, -1.00, 397.0, 256.5)">n</text><text xml:space="preserve" font-family="Palatino-Roman,Palatino" font-size="40.0" fill="#000000" transform="matrix(1.00, 0.00, -0.00, -1.00, 420.3, 256.5)">d</text><text xml:space="preserve" font-family="Palatino-Roman,Palatino" font-size="40.0" fill="#000000" transform="matrix(1.00, 0.00, -0.00, -1.00, 444.7, 256.5)">l</text><text xml:space="preserve" font-family="Palatino-Roman,Palatino" font-size="40.0" fill="#000000" transform="matrix(1.00, 0.00, -0.00, -1.00, 456.4, 256.5)">i</text><text xml:space="preserve" font-family="Palatino-Roman,Palatino" font-size="40.0" fill="#000000" transform="matrix(1.00, 0.00, -0.00, -1.00, 468.0, 256.5)">n</text><text xml:space="preserve" font-family="Palatino-Roman,Palatino" font-size="40.0" fill="#000000" transform="matrix(1.00, 0.00, -0.00, -1.00, 491.3, 256.5)">g</text><text xml:space="preserve" font-family="Palatino-Roman,Palatino" font-size="40.0" fill="#000000" transform="matrix(1.00, 0.00, -0.00, -1.00, 513.5, 256.5)">a</text><text xml:space="preserve" font-family="Palatino-Roman,Palatino" font-size="40.0" fill="#000000" transform="matrix(1.00, 0.00, -0.00, -1.00, 533.5, 256.5)">r</text><text xml:space="preserve" font-family="Palatino-Roman,Palatino" font-size="40.0" fill="#000000" transform="matrix(1.00, 0.00, -0.00, -1.00, 549.3, 256.5)"> </text><text xml:space="preserve" font-family="Palatino-Roman,Palatino" font-size="40.0" fill="#000000" transform="matrix(1.00, 0.00, -0.00, -1.00, 559.3, 256.5)">l</text><text xml:space="preserve" font-family="Palatino-Roman,Palatino" font-size="40.0" fill="#000000" transform="matrix(1.00, 0.00, -0.00, -1.00, 571.0, 256.5)">a</text><text xml:space="preserve" font-family="Palatino-Roman,Palatino" font-size="40.0" fill="#000000" transform="matrix(1.00, 0.00, -0.00, -1.00, 591.0, 256.5)">t</text><text xml:space="preserve" font-family="Palatino-Roman,Palatino" font-size="40.0" fill="#000000" transform="matrix(1.00, 0.00, -0.00, -1.00, 604.0, 256.5)">i</text><text xml:space="preserve" font-family="Palatino-Roman,Palatino" font-size="40.0" fill="#000000" transform="matrix(1.00, 0.00, -0.00, -1.00, 615.7, 256.5)">n</text><text xml:space="preserve" font-family="Palatino-Roman,Palatino" font-size="40.0" fill="#000000" transform="matrix(1.00, 0.00, -0.00, -1.00, 639.0, 256.5)">e</text><text xml:space="preserve" font-family="Palatino-Roman,Palatino" font-size="40.0" fill="#000000" transform="matrix(1.00, 0.00, -0.00, -1.00, 658.1, 256.5)">t</text><text xml:space="preserve" font-family="Palatino-Roman,Palatino" font-size="40.0" fill="#000000" transform="matrix(1.00, 0.00, -0.00, -1.00, 671.2, 256.5)">s</text><text xml:space="preserve" font-family="Palatino-Roman,Palatino" font-size="40.0" fill="#000000" transform="matrix(1.00, 0.00, -0.00, -1.00, 688.1, 256.5)"> </text><text xml:space="preserve" font-family="Palatino-Roman,Palatino" font-size="40.0" fill="#000000" transform="matrix(1.00, 0.00, -0.00, -1.00, 698.1, 256.5)">i</text><text xml:space="preserve" font-family="Palatino-Roman,Palatino" font-size="40.0" fill="#000000" transform="matrix(1.00, 0.00, -0.00, -1.00, 709.8, 256.5)">m</text><text xml:space="preserve" font-family="Palatino-Roman,Palatino" font-size="40.0" fill="#000000" transform="matrix(1.00, 0.00, -0.00, -1.00, 745.1, 256.5)">p</text><text xml:space="preserve" font-family="Palatino-Roman,Palatino" font-size="40.0" fill="#000000" transform="matrix(1.00, 0.00, -0.00, -1.00, 769.1, 256.5)">e</text><text xml:space="preserve" font-family="Palatino-Roman,Palatino" font-size="40.0" fill="#000000" transform="matrix(1.00, 0.00, -0.00, -1.00, 788.3, 256.5)">r</text><text xml:space="preserve" font-family="Palatino-Roman,Palatino" font-size="40.0" fill="#000000" transform="matrix(1.00, 0.00, -0.00, -1.00, 804.1, 256.5)">f</text><text xml:space="preserve" font-family="Palatino-Roman,Palatino" font-size="40.0" fill="#000000" transform="matrix(1.00, 0.00, -0.00, -1.00, 817.4, 256.5)">e</text><text xml:space="preserve" font-family="Palatino-Roman,Palatino" font-size="40.0" fill="#000000" transform="matrix(1.00, 0.00, -0.00, -1.00, 836.5, 256.5)">k</text><text xml:space="preserve" font-family="Palatino-Roman,Palatino" font-size="40.0" fill="#000000" transform="matrix(1.00, 0.00, -0.00, -1.00, 858.8, 256.5)">t</text><text xml:space="preserve" font-family="Palatino-Roman,Palatino" font-size="40.0" fill="#000000" transform="matrix(1.00, 0.00, -0.00, -1.00, 871.9, 256.5)"> </text><text xml:space="preserve" font-family="Palatino-Roman,Palatino" font-size="40.0" fill="#000000" transform="matrix(1.00, 0.00, -0.00, -1.00, 881.9, 256.5)">o</text><text xml:space="preserve" font-family="Palatino-Roman,Palatino" font-size="40.0" fill="#000000" transform="matrix(1.00, 0.00, -0.00, -1.00, 903.7, 256.5)">c</text><text xml:space="preserve" font-family="Palatino-Roman,Palatino" font-size="40.0" fill="#000000" transform="matrix(1.00, 0.00, -0.00, -1.00, 921.4, 256.5)">h</text><text xml:space="preserve" font-family="Palatino-Roman,Palatino" font-size="40.0" fill="#000000" transform="matrix(1.00, 0.00, -0.00, -1.00, 944.7, 256.5)"> </text><text xml:space="preserve" font-family="Palatino-Roman,Palatino" font-size="40.0" fill="#000000" transform="matrix(1.00, 0.00, -0.00, -1.00, 193.5, 203.5)">p</text><text xml:space="preserve" font-family="Palatino-Roman,Palatino" font-size="40.0" fill="#000000" transform="matrix(1.00, 0.00, -0.00, -1.00, 217.6, 203.5)">e</text><text xml:space="preserve" font-family="Palatino-Roman,Palatino" font-size="40.0" fill="#000000" transform="matrix(1.00, 0.00, -0.00, -1.00, 236.7, 203.5)">r</text><text xml:space="preserve" font-family="Palatino-Roman,Palatino" font-size="40.0" fill="#000000" transform="matrix(1.00, 0.00, -0.00, -1.00, 252.5, 203.5)">f</text><text xml:space="preserve" font-family="Palatino-Roman,Palatino" font-size="40.0" fill="#000000" transform="matrix(1.00, 0.00, -0.00, -1.00, 265.9, 203.5)">e</text><text xml:space="preserve" font-family="Palatino-Roman,Palatino" font-size="40.0" fill="#000000" transform="matrix(1.00, 0.00, -0.00, -1.00, 285.0, 203.5)">k</text><text xml:space="preserve" font-family="Palatino-Roman,Palatino" font-size="40.0" fill="#000000" transform="matrix(1.00, 0.00, -0.00, -1.00, 307.3, 203.5)">t</text><text xml:space="preserve" font-family="Palatino-Roman,Palatino" font-size="40.0" fill="#000000" transform="matrix(1.00, 0.00, -0.00, -1.00, 320.3, 203.5)"> </text><text xml:space="preserve" font-family="Palatino-Roman,Palatino" font-size="40.0" fill="#000000" transform="matrix(1.00, 0.00, -0.00, -1.00, 330.3, 203.5)">u</text><text xml:space="preserve" font-family="Palatino-Roman,Palatino" font-size="40.0" fill="#000000" transform="matrix(1.00, 0.00, -0.00, -1.00, 354.4, 203.5)">t</text><text xml:space="preserve" font-family="Palatino-Roman,Palatino" font-size="40.0" fill="#000000" transform="matrix(1.00, 0.00, -0.00, -1.00, 367.5, 203.5)">t</text><text xml:space="preserve" font-family="Palatino-Roman,Palatino" font-size="40.0" fill="#000000" transform="matrix(1.00, 0.00, -0.00, -1.00, 380.6, 203.5)">r</text><text xml:space="preserve" font-family="Palatino-Roman,Palatino" font-size="40.0" fill="#000000" transform="matrix(1.00, 0.00, -0.00, -1.00, 396.4, 203.5)">y</text><text xml:space="preserve" font-family="Palatino-Roman,Palatino" font-size="40.0" fill="#000000" transform="matrix(1.00, 0.00, -0.00, -1.00, 418.6, 203.5)">c</text><text xml:space="preserve" font-family="Palatino-Roman,Palatino" font-size="40.0" fill="#000000" transform="matrix(1.00, 0.00, -0.00, -1.00, 436.4, 203.5)">k</text><text xml:space="preserve" font-family="Palatino-Roman,Palatino" font-size="40.0" fill="#000000" transform="matrix(1.00, 0.00, -0.00, -1.00, 458.6, 203.5)">e</text><text xml:space="preserve" font-family="Palatino-Roman,Palatino" font-size="40.0" fill="#000000" transform="matrix(1.00, 0.00, -0.00, -1.00, 477.8, 203.5)">r</text><text xml:space="preserve" font-family="Palatino-Roman,Palatino" font-size="40.0" fill="#000000" transform="matrix(1.00, 0.00, -0.00, -1.00, 490.6, 203.5)">,</text><text xml:space="preserve" font-family="Palatino-Roman,Palatino" font-size="40.0" fill="#000000" transform="matrix(1.00, 0.00, -0.00, -1.00, 500.6, 203.5)"> </text><text xml:space="preserve" font-family="Palatino-Roman,Palatino" font-size="40.0" fill="#000000" transform="matrix(1.00, 0.00, -0.00, -1.00, 510.6, 203.5)">o</text><text xml:space="preserve" font-family="Palatino-Roman,Palatino" font-size="40.0" fill="#000000" transform="matrix(1.00, 0.00, -0.00, -1.00, 532.5, 203.5)">c</text><text xml:space="preserve" font-family="Palatino-Roman,Palatino" font-size="40.0" fill="#000000" transform="matrix(1.00, 0.00, -0.00, -1.00, 550.2, 203.5)">h</text><text xml:space="preserve" font-family="Palatino-Roman,Palatino" font-size="40.0" fill="#000000" transform="matrix(1.00, 0.00, -0.00, -1.00, 573.5, 203.5)"> </text><text xml:space="preserve" font-family="Palatino-Roman,Palatino" font-size="40.0" fill="#000000" transform="matrix(1.00, 0.00, -0.00, -1.00, 583.5, 203.5)">h</text><text xml:space="preserve" font-family="Palatino-Roman,Palatino" font-size="40.0" fill="#000000" transform="matrix(1.00, 0.00, -0.00, -1.00, 606.8, 203.5)">u</text><text xml:space="preserve" font-family="Palatino-Roman,Palatino" font-size="40.0" fill="#000000" transform="matrix(1.00, 0.00, -0.00, -1.00, 630.9, 203.5)">r</text><text xml:space="preserve" font-family="Palatino-Roman,Palatino" font-size="40.0" fill="#000000" transform="matrix(1.00, 0.00, -0.00, -1.00, 646.7, 203.5)"> </text><text xml:space="preserve" font-family="Palatino-Roman,Palatino" font-size="40.0" fill="#000000" transform="matrix(1.00, 0.00, -0.00, -1.00, 656.7, 203.5)">d</text><text xml:space="preserve" font-family="Palatino-Roman,Palatino" font-size="40.0" fill="#000000" transform="matrix(1.00, 0.00, -0.00, -1.00, 681.1, 203.5)">e</text><text xml:space="preserve" font-family="Palatino-Roman,Palatino" font-size="40.0" fill="#000000" transform="matrix(1.00, 0.00, -0.00, -1.00, 700.3, 203.5)"> </text><text xml:space="preserve" font-family="Palatino-Roman,Palatino" font-size="40.0" fill="#000000" transform="matrix(1.00, 0.00, -0.00, -1.00, 710.3, 203.5)">s</text><text xml:space="preserve" font-family="Palatino-Roman,Palatino" font-size="40.0" fill="#000000" transform="matrix(1.00, 0.00, -0.00, -1.00, 727.2, 203.5)">k</text><text xml:space="preserve" font-family="Palatino-Roman,Palatino" font-size="40.0" fill="#000000" transform="matrix(1.00, 0.00, -0.00, -1.00, 749.5, 203.5)">a</text><text xml:space="preserve" font-family="Palatino-Roman,Palatino" font-size="40.0" fill="#000000" transform="matrix(1.00, 0.00, -0.00, -1.00, 769.5, 203.5)"> </text><text xml:space="preserve" font-family="Palatino-Roman,Palatino" font-size="40.0" fill="#000000" transform="matrix(1.00, 0.00, -0.00, -1.00, 779.5, 203.5)">ö</text><text xml:space="preserve" font-family="Palatino-Roman,Palatino" font-size="40.0" fill="#000000" transform="matrix(1.00, 0.00, -0.00, -1.00, 801.3, 203.5)">v</text><text xml:space="preserve" font-family="Palatino-Roman,Palatino" font-size="40.0" fill="#000000" transform="matrix(1.00, 0.00, -0.00, -1.00, 823.9, 203.5)">e</text><text xml:space="preserve" font-family="Palatino-Roman,Palatino" font-size="40.0" fill="#000000" transform="matrix(1.00, 0.00, -0.00, -1.00, 843.1, 203.5)">r</text><text xml:space="preserve" font-family="Palatino-Roman,Palatino" font-size="40.0" fill="#000000" transform="matrix(1.00, 0.00, -0.00, -1.00, 858.9, 203.5)">s</text><text xml:space="preserve" font-family="Palatino-Roman,Palatino" font-size="40.0" fill="#000000" transform="matrix(1.00, 0.00, -0.00, -1.00, 875.8, 203.5)">ä</text><text xml:space="preserve" font-family="Palatino-Roman,Palatino" font-size="40.0" fill="#000000" transform="matrix(1.00, 0.00, -0.00, -1.00, 895.8, 203.5)">t</text><text xml:space="preserve" font-family="Palatino-Roman,Palatino" font-size="40.0" fill="#000000" transform="matrix(1.00, 0.00, -0.00, -1.00, 908.9, 203.5)">t</text><text xml:space="preserve" font-family="Palatino-Roman,Palatino" font-size="40.0" fill="#000000" transform="matrix(1.00, 0.00, -0.00, -1.00, 921.9, 203.5)">a</text><text xml:space="preserve" font-family="Palatino-Roman,Palatino" font-size="40.0" fill="#000000" transform="matrix(1.00, 0.00, -0.00, -1.00, 941.9, 203.5)">s</text><text xml:space="preserve" font-family="Palatino-Roman,Palatino" font-size="40.0" fill="#000000" transform="matrix(1.00, 0.00, -0.00, -1.00, 958.9, 203.5)"> </text><text xml:space="preserve" font-family="Palatino-Roman,Palatino" font-size="40.0" fill="#000000" transform="matrix(1.00, 0.00, -0.00, -1.00, 193.5, 150.5)">p</text><text xml:space="preserve" font-family="Palatino-Roman,Palatino" font-size="40.0" fill="#000000" transform="matrix(1.00, 0.00, -0.00, -1.00, 217.6, 150.5)">å</text><text xml:space="preserve" font-family="Palatino-Roman,Palatino" font-size="40.0" fill="#000000" transform="matrix(1.00, 0.00, -0.00, -1.00, 237.6, 150.5)"> </text><text xml:space="preserve" font-family="Palatino-Roman,Palatino" font-size="40.0" fill="#000000" transform="matrix(1.00, 0.00, -0.00, -1.00, 247.6, 150.5)">s</text><text xml:space="preserve" font-family="Palatino-Roman,Palatino" font-size="40.0" fill="#000000" transform="matrix(1.00, 0.00, -0.00, -1.00, 264.5, 150.5)">v</text><text xml:space="preserve" font-family="Palatino-Roman,Palatino" font-size="40.0" fill="#000000" transform="matrix(1.00, 0.00, -0.00, -1.00, 287.1, 150.5)">e</text><text xml:space="preserve" font-family="Palatino-Roman,Palatino" font-size="40.0" fill="#000000" transform="matrix(1.00, 0.00, -0.00, -1.00, 306.3, 150.5)">n</text><text xml:space="preserve" font-family="Palatino-Roman,Palatino" font-size="40.0" fill="#000000" transform="matrix(1.00, 0.00, -0.00, -1.00, 329.6, 150.5)">s</text><text xml:space="preserve" font-family="Palatino-Roman,Palatino" font-size="40.0" fill="#000000" transform="matrix(1.00, 0.00, -0.00, -1.00, 346.5, 150.5)">k</text><text xml:space="preserve" font-family="Palatino-Roman,Palatino" font-size="40.0" fill="#000000" transform="matrix(1.00, 0.00, -0.00, -1.00, 368.8, 150.5)">a</text><text xml:space="preserve" font-family="Palatino-Roman,Palatino" font-size="16.0" fill="#000000" transform="matrix(1.00, 0.00, -0.00, -1.00, 829.2, 29.4)">©</text><text xml:space="preserve" font-family="Palatino-Roman,Palatino" font-size="16.0" fill="#000000" transform="matrix(1.00, 0.00, -0.00, -1.00, 841.2, 29.4)"> </text><text xml:space="preserve" font-family="Palatino-Roman,Palatino" font-size="16.0" fill="#000000" transform="matrix(1.00, 0.00, -0.00, -1.00, 845.2, 29.4)">J</text><text xml:space="preserve" font-family="Palatino-Roman,Palatino" font-size="16.0" fill="#000000" transform="matrix(1.00, 0.00, -0.00, -1.00, 850.5, 29.4)">o</text><text xml:space="preserve" font-family="Palatino-Roman,Palatino" font-size="16.0" fill="#000000" transform="matrix(1.00, 0.00, -0.00, -1.00, 859.2, 29.4)">o</text><text xml:space="preserve" font-family="Palatino-Roman,Palatino" font-size="16.0" fill="#000000" transform="matrix(1.00, 0.00, -0.00, -1.00, 868.0, 29.4)">n</text><text xml:space="preserve" font-family="Palatino-Roman,Palatino" font-size="16.0" fill="#000000" transform="matrix(1.00, 0.00, -0.00, -1.00, 877.3, 29.4)">a</text><text xml:space="preserve" font-family="Palatino-Roman,Palatino" font-size="16.0" fill="#000000" transform="matrix(1.00, 0.00, -0.00, -1.00, 885.3, 29.4)">s</text><text xml:space="preserve" font-family="Palatino-Roman,Palatino" font-size="16.0" fill="#000000" transform="matrix(1.00, 0.00, -0.00, -1.00, 892.1, 29.4)"> </text><text xml:space="preserve" font-family="Palatino-Roman,Palatino" font-size="16.0" fill="#000000" transform="matrix(1.00, 0.00, -0.00, -1.00, 896.1, 29.4)">V</text><text xml:space="preserve" font-family="Palatino-Roman,Palatino" font-size="16.0" fill="#000000" transform="matrix(1.00, 0.00, -0.00, -1.00, 906.1, 29.4)">a</text><text xml:space="preserve" font-family="Palatino-Roman,Palatino" font-size="16.0" fill="#000000" transform="matrix(1.00, 0.00, -0.00, -1.00, 914.1, 29.4)">n</text><text xml:space="preserve" font-family="Palatino-Roman,Palatino" font-size="16.0" fill="#000000" transform="matrix(1.00, 0.00, -0.00, -1.00, 923.5, 29.4)">h</text><text xml:space="preserve" font-family="Palatino-Roman,Palatino" font-size="16.0" fill="#000000" transform="matrix(1.00, 0.00, -0.00, -1.00, 932.8, 29.4)">a</text><text xml:space="preserve" font-family="Palatino-Roman,Palatino" font-size="16.0" fill="#000000" transform="matrix(1.00, 0.00, -0.00, -1.00, 940.8, 29.4)">l</text><text xml:space="preserve" font-family="Palatino-Roman,Palatino" font-size="16.0" fill="#000000" transform="matrix(1.00, 0.00, -0.00, -1.00, 945.4, 29.4)">a</text><text xml:space="preserve" font-family="Palatino-Roman,Palatino" font-size="16.0" fill="#000000" transform="matrix(1.00, 0.00, -0.00, -1.00, 953.4, 29.4)"> </text><text xml:space="preserve" font-family="Palatino-Roman,Palatino" font-size="16.0" fill="#000000" transform="matrix(1.00, 0.00, -0.00, -1.00, 957.4, 29.4)">2</text><text xml:space="preserve" font-family="Palatino-Roman,Palatino" font-size="16.0" fill="#000000" transform="matrix(1.00, 0.00, -0.00, -1.00, 965.4, 29.4)">0</text><text xml:space="preserve" font-family="Palatino-Roman,Palatino" font-size="16.0" fill="#000000" transform="matrix(1.00, 0.00, -0.00, -1.00, 973.4, 29.4)">1</text><text xml:space="preserve" font-family="Palatino-Roman,Palatino" font-size="16.0" fill="#000000" transform="matrix(1.00, 0.00, -0.00, -1.00, 981.4, 29.4)">6</text></g></svg>