<?xml version="1.0" encoding="UTF-8" standalone="no"?><svg xmlns="http://www.w3.org/2000/svg" xmlns:xlink="http://www.w3.org/1999/xlink" clip-rule="evenodd" stroke-miterlimit="10" viewBox="0 0 1024 768"><desc>SVG generated by Keynote</desc><defs></defs><g transform="matrix(1.00, 0.00, -0.00, -1.00, 0.0, 768.0)"><path d="M 0.0 768.0 L 1024.0 768.0 L 1024.0 0.0 L 0.0 0.0 Z M 0.0 768.0 " fill="#FEFFFF"></path><text xml:space="preserve" font-family="Palatino-Roman,Palatino" font-size="84.0" fill="#164E86" transform="matrix(1.00, 0.00, -0.00, -1.00, 70.4, 640.3)">D</text><text xml:space="preserve" font-family="Palatino-Roman,Palatino" font-size="84.0" fill="#164E86" transform="matrix(1.00, 0.00, -0.00, -1.00, 135.4, 640.3)">E</text><text xml:space="preserve" font-family="Palatino-Roman,Palatino" font-size="84.0" fill="#164E86" transform="matrix(1.00, 0.00, -0.00, -1.00, 186.7, 640.3)">M</text><text xml:space="preserve" font-family="Palatino-Roman,Palatino" font-size="84.0" fill="#164E86" transform="matrix(1.00, 0.00, -0.00, -1.00, 266.2, 640.3)">O</text><text xml:space="preserve" font-family="Palatino-Roman,Palatino" font-size="84.0" fill="#164E86" transform="matrix(1.00, 0.00, -0.00, -1.00, 332.2, 640.3)">N</text><text xml:space="preserve" font-family="Palatino-Roman,Palatino" font-size="84.0" fill="#164E86" transform="matrix(1.00, 0.00, -0.00, -1.00, 402.0, 640.3)">S</text><text xml:space="preserve" font-family="Palatino-Roman,Palatino" font-size="84.0" fill="#164E86" transform="matrix(1.00, 0.00, -0.00, -1.00, 446.1, 640.3)">T</text><text xml:space="preserve" font-family="Palatino-Roman,Palatino" font-size="84.0" fill="#164E86" transform="matrix(1.00, 0.00, -0.00, -1.00, 497.6, 640.3)">R</text><text xml:space="preserve" font-family="Palatino-Roman,Palatino" font-size="84.0" fill="#164E86" transform="matrix(1.00, 0.00, -0.00, -1.00, 553.7, 640.3)">A</text><text xml:space="preserve" font-family="Palatino-Roman,Palatino" font-size="84.0" fill="#164E86" transform="matrix(1.00, 0.00, -0.00, -1.00, 612.8, 640.3)">T</text><text xml:space="preserve" font-family="Palatino-Roman,Palatino" font-size="84.0" fill="#164E86" transform="matrix(1.00, 0.00, -0.00, -1.00, 664.3, 640.3)">I</text><text xml:space="preserve" font-family="Palatino-Roman,Palatino" font-size="84.0" fill="#164E86" transform="matrix(1.00, 0.00, -0.00, -1.00, 692.5, 640.3)">V</text><text xml:space="preserve" font-family="Palatino-Roman,Palatino" font-size="84.0" fill="#164E86" transform="matrix(1.00, 0.00, -0.00, -1.00, 743.9, 640.3)">A</text><text xml:space="preserve" font-family="Palatino-Roman,Palatino" font-size="84.0" fill="#164E86" transform="matrix(1.00, 0.00, -0.00, -1.00, 804.6, 640.3)"> </text><text xml:space="preserve" font-family="Palatino-Roman,Palatino" font-size="84.0" fill="#164E86" transform="matrix(1.00, 0.00, -0.00, -1.00, 825.6, 640.3)">P</text><text xml:space="preserve" font-family="Palatino-Roman,Palatino" font-size="84.0" fill="#164E86" transform="matrix(1.00, 0.00, -0.00, -1.00, 876.4, 640.3)">R</text><text xml:space="preserve" font-family="Palatino-Roman,Palatino" font-size="84.0" fill="#164E86" transform="matrix(1.00, 0.00, -0.00, -1.00, 932.5, 640.3)">.</text><text xml:space="preserve" font-family="LucidaGrande,Lucida Grande" font-size="40.0" fill="#164E86" transform="matrix(1.00, 0.00, -0.00, -1.00, 73.5, 551.8)">‣</text><text xml:space="preserve" font-family="Palatino-Roman,Palatino" font-size="40.0" fill="#000000" transform="matrix(1.00, 0.00, -0.00, -1.00, 123.5, 551.5)">B</text><text xml:space="preserve" font-family="Palatino-Roman,Palatino" font-size="40.0" fill="#000000" transform="matrix(1.00, 0.00, -0.00, -1.00, 148.0, 551.5)">ö</text><text xml:space="preserve" font-family="Palatino-Roman,Palatino" font-size="40.0" fill="#000000" transform="matrix(1.00, 0.00, -0.00, -1.00, 169.8, 551.5)">j</text><text xml:space="preserve" font-family="Palatino-Roman,Palatino" font-size="40.0" fill="#000000" transform="matrix(1.00, 0.00, -0.00, -1.00, 179.1, 551.5)">s</text><text xml:space="preserve" font-family="Palatino-Roman,Palatino" font-size="40.0" fill="#000000" transform="matrix(1.00, 0.00, -0.00, -1.00, 196.1, 551.5)"> </text><text xml:space="preserve" font-family="Palatino-Roman,Palatino" font-size="40.0" fill="#000000" transform="matrix(1.00, 0.00, -0.00, -1.00, 206.1, 551.5)">o</text><text xml:space="preserve" font-family="Palatino-Roman,Palatino" font-size="40.0" fill="#000000" transform="matrix(1.00, 0.00, -0.00, -1.00, 227.9, 551.5)">l</text><text xml:space="preserve" font-family="Palatino-Roman,Palatino" font-size="40.0" fill="#000000" transform="matrix(1.00, 0.00, -0.00, -1.00, 239.6, 551.5)">i</text><text xml:space="preserve" font-family="Palatino-Roman,Palatino" font-size="40.0" fill="#000000" transform="matrix(1.00, 0.00, -0.00, -1.00, 251.2, 551.5)">k</text><text xml:space="preserve" font-family="Palatino-Roman,Palatino" font-size="40.0" fill="#000000" transform="matrix(1.00, 0.00, -0.00, -1.00, 273.4, 551.5)">a</text><text xml:space="preserve" font-family="Palatino-Roman,Palatino" font-size="40.0" fill="#000000" transform="matrix(1.00, 0.00, -0.00, -1.00, 293.4, 551.5)"> </text><text xml:space="preserve" font-family="Palatino-Roman,Palatino" font-size="40.0" fill="#000000" transform="matrix(1.00, 0.00, -0.00, -1.00, 303.4, 551.5)">i</text><text xml:space="preserve" font-family="Palatino-Roman,Palatino" font-size="40.0" fill="#000000" transform="matrix(1.00, 0.00, -0.00, -1.00, 315.1, 551.5)"> </text><text xml:space="preserve" font-family="Palatino-Italic,Palatino" font-style="italic" font-size="40.0" fill="#000000" transform="matrix(1.00, 0.00, -0.00, -1.00, 325.1, 551.5)">m</text><text xml:space="preserve" font-family="Palatino-Italic,Palatino" font-style="italic" font-size="40.0" fill="#000000" transform="matrix(1.00, 0.00, -0.00, -1.00, 356.2, 551.5)">a</text><text xml:space="preserve" font-family="Palatino-Italic,Palatino" font-style="italic" font-size="40.0" fill="#000000" transform="matrix(1.00, 0.00, -0.00, -1.00, 374.0, 551.5)">s</text><text xml:space="preserve" font-family="Palatino-Italic,Palatino" font-style="italic" font-size="40.0" fill="#000000" transform="matrix(1.00, 0.00, -0.00, -1.00, 389.5, 551.5)">k</text><text xml:space="preserve" font-family="Palatino-Italic,Palatino" font-style="italic" font-size="40.0" fill="#000000" transform="matrix(1.00, 0.00, -0.00, -1.00, 407.3, 551.5)">u</text><text xml:space="preserve" font-family="Palatino-Italic,Palatino" font-style="italic" font-size="40.0" fill="#000000" transform="matrix(1.00, 0.00, -0.00, -1.00, 429.5, 551.5)">l</text><text xml:space="preserve" font-family="Palatino-Italic,Palatino" font-style="italic" font-size="40.0" fill="#000000" transform="matrix(1.00, 0.00, -0.00, -1.00, 440.6, 551.5)">i</text><text xml:space="preserve" font-family="Palatino-Italic,Palatino" font-style="italic" font-size="40.0" fill="#000000" transform="matrix(1.00, 0.00, -0.00, -1.00, 451.7, 551.5)">n</text><text xml:space="preserve" font-family="Palatino-Italic,Palatino" font-style="italic" font-size="40.0" fill="#000000" transform="matrix(1.00, 0.00, -0.00, -1.00, 474.0, 551.5)">u</text><text xml:space="preserve" font-family="Palatino-Italic,Palatino" font-style="italic" font-size="40.0" fill="#000000" transform="matrix(1.00, 0.00, -0.00, -1.00, 496.3, 551.5)">m</text><text xml:space="preserve" font-family="Palatino-Italic,Palatino" font-style="italic" font-size="40.0" fill="#000000" transform="matrix(1.00, 0.00, -0.00, -1.00, 527.4, 551.5)">,</text><text xml:space="preserve" font-family="Palatino-Italic,Palatino" font-style="italic" font-size="40.0" fill="#000000" transform="matrix(1.00, 0.00, -0.00, -1.00, 537.4, 551.5)"> </text><text xml:space="preserve" font-family="Palatino-Italic,Palatino" font-style="italic" font-size="40.0" fill="#000000" transform="matrix(1.00, 0.00, -0.00, -1.00, 547.4, 551.5)">f</text><text xml:space="preserve" font-family="Palatino-Italic,Palatino" font-style="italic" font-size="40.0" fill="#000000" transform="matrix(1.00, 0.00, -0.00, -1.00, 558.5, 551.5)">e</text><text xml:space="preserve" font-family="Palatino-Italic,Palatino" font-style="italic" font-size="40.0" fill="#000000" transform="matrix(1.00, 0.00, -0.00, -1.00, 574.0, 551.5)">m</text><text xml:space="preserve" font-family="Palatino-Italic,Palatino" font-style="italic" font-size="40.0" fill="#000000" transform="matrix(1.00, 0.00, -0.00, -1.00, 605.1, 551.5)">i</text><text xml:space="preserve" font-family="Palatino-Italic,Palatino" font-style="italic" font-size="40.0" fill="#000000" transform="matrix(1.00, 0.00, -0.00, -1.00, 616.2, 551.5)">n</text><text xml:space="preserve" font-family="Palatino-Italic,Palatino" font-style="italic" font-size="40.0" fill="#000000" transform="matrix(1.00, 0.00, -0.00, -1.00, 638.5, 551.5)">i</text><text xml:space="preserve" font-family="Palatino-Italic,Palatino" font-style="italic" font-size="40.0" fill="#000000" transform="matrix(1.00, 0.00, -0.00, -1.00, 649.6, 551.5)">n</text><text xml:space="preserve" font-family="Palatino-Italic,Palatino" font-style="italic" font-size="40.0" fill="#000000" transform="matrix(1.00, 0.00, -0.00, -1.00, 671.9, 551.5)">u</text><text xml:space="preserve" font-family="Palatino-Italic,Palatino" font-style="italic" font-size="40.0" fill="#000000" transform="matrix(1.00, 0.00, -0.00, -1.00, 694.1, 551.5)">m</text><text xml:space="preserve" font-family="Palatino-Italic,Palatino" font-style="italic" font-size="40.0" fill="#000000" transform="matrix(1.00, 0.00, -0.00, -1.00, 725.2, 551.5)"> </text><text xml:space="preserve" font-family="Palatino-Roman,Palatino" font-size="40.0" fill="#000000" transform="matrix(1.00, 0.00, -0.00, -1.00, 735.2, 551.5)">o</text><text xml:space="preserve" font-family="Palatino-Roman,Palatino" font-size="40.0" fill="#000000" transform="matrix(1.00, 0.00, -0.00, -1.00, 757.1, 551.5)">c</text><text xml:space="preserve" font-family="Palatino-Roman,Palatino" font-size="40.0" fill="#000000" transform="matrix(1.00, 0.00, -0.00, -1.00, 774.8, 551.5)">h</text><text xml:space="preserve" font-family="Palatino-Roman,Palatino" font-size="40.0" fill="#000000" transform="matrix(1.00, 0.00, -0.00, -1.00, 798.1, 551.5)"> </text><text xml:space="preserve" font-family="Palatino-Italic,Palatino" font-style="italic" font-size="40.0" fill="#000000" transform="matrix(1.00, 0.00, -0.00, -1.00, 808.1, 551.5)">n</text><text xml:space="preserve" font-family="Palatino-Italic,Palatino" font-style="italic" font-size="40.0" fill="#000000" transform="matrix(1.00, 0.00, -0.00, -1.00, 830.4, 551.5)">e</text><text xml:space="preserve" font-family="Palatino-Italic,Palatino" font-style="italic" font-size="40.0" fill="#000000" transform="matrix(1.00, 0.00, -0.00, -1.00, 845.9, 551.5)">u</text><text xml:space="preserve" font-family="Palatino-Italic,Palatino" font-style="italic" font-size="40.0" fill="#000000" transform="matrix(1.00, 0.00, -0.00, -1.00, 868.2, 551.5)">t</text><text xml:space="preserve" font-family="Palatino-Italic,Palatino" font-style="italic" font-size="40.0" fill="#000000" transform="matrix(1.00, 0.00, -0.00, -1.00, 881.5, 551.5)">r</text><text xml:space="preserve" font-family="Palatino-Italic,Palatino" font-style="italic" font-size="40.0" fill="#000000" transform="matrix(1.00, 0.00, -0.00, -1.00, 897.1, 551.5)">u</text><text xml:space="preserve" font-family="Palatino-Italic,Palatino" font-style="italic" font-size="40.0" fill="#000000" transform="matrix(1.00, 0.00, -0.00, -1.00, 919.3, 551.5)">m</text><text xml:space="preserve" font-family="LucidaGrande,Lucida Grande" font-size="40.0" fill="#164E86" transform="matrix(1.00, 0.00, -0.00, -1.00, 143.5, 483.8)">‣</text><text xml:space="preserve" font-family="Palatino-Roman,Palatino" font-size="40.0" fill="#000000" transform="matrix(1.00, 0.00, -0.00, -1.00, 193.5, 483.5)">V</text><text xml:space="preserve" font-family="Palatino-Roman,Palatino" font-size="40.0" fill="#000000" transform="matrix(1.00, 0.00, -0.00, -1.00, 220.2, 483.5)">i</text><text xml:space="preserve" font-family="Palatino-Roman,Palatino" font-size="40.0" fill="#000000" transform="matrix(1.00, 0.00, -0.00, -1.00, 231.9, 483.5)">s</text><text xml:space="preserve" font-family="Palatino-Roman,Palatino" font-size="40.0" fill="#000000" transform="matrix(1.00, 0.00, -0.00, -1.00, 248.8, 483.5)">s</text><text xml:space="preserve" font-family="Palatino-Roman,Palatino" font-size="40.0" fill="#000000" transform="matrix(1.00, 0.00, -0.00, -1.00, 265.8, 483.5)">a</text><text xml:space="preserve" font-family="Palatino-Roman,Palatino" font-size="40.0" fill="#000000" transform="matrix(1.00, 0.00, -0.00, -1.00, 285.8, 483.5)"> </text><text xml:space="preserve" font-family="Palatino-Roman,Palatino" font-size="40.0" fill="#000000" transform="matrix(1.00, 0.00, -0.00, -1.00, 295.8, 483.5)">ä</text><text xml:space="preserve" font-family="Palatino-Roman,Palatino" font-size="40.0" fill="#000000" transform="matrix(1.00, 0.00, -0.00, -1.00, 315.8, 483.5)">n</text><text xml:space="preserve" font-family="Palatino-Roman,Palatino" font-size="40.0" fill="#000000" transform="matrix(1.00, 0.00, -0.00, -1.00, 339.0, 483.5)">d</text><text xml:space="preserve" font-family="Palatino-Roman,Palatino" font-size="40.0" fill="#000000" transform="matrix(1.00, 0.00, -0.00, -1.00, 363.5, 483.5)">e</text><text xml:space="preserve" font-family="Palatino-Roman,Palatino" font-size="40.0" fill="#000000" transform="matrix(1.00, 0.00, -0.00, -1.00, 382.6, 483.5)">l</text><text xml:space="preserve" font-family="Palatino-Roman,Palatino" font-size="40.0" fill="#000000" transform="matrix(1.00, 0.00, -0.00, -1.00, 394.3, 483.5)">s</text><text xml:space="preserve" font-family="Palatino-Roman,Palatino" font-size="40.0" fill="#000000" transform="matrix(1.00, 0.00, -0.00, -1.00, 411.2, 483.5)">e</text><text xml:space="preserve" font-family="Palatino-Roman,Palatino" font-size="40.0" fill="#000000" transform="matrix(1.00, 0.00, -0.00, -1.00, 430.4, 483.5)">r</text><text xml:space="preserve" font-family="Palatino-Roman,Palatino" font-size="40.0" fill="#000000" transform="matrix(1.00, 0.00, -0.00, -1.00, 446.2, 483.5)"> </text><text xml:space="preserve" font-family="Palatino-Roman,Palatino" font-size="40.0" fill="#000000" transform="matrix(1.00, 0.00, -0.00, -1.00, 456.2, 483.5)">ä</text><text xml:space="preserve" font-family="Palatino-Roman,Palatino" font-size="40.0" fill="#000000" transform="matrix(1.00, 0.00, -0.00, -1.00, 476.2, 483.5)">r</text><text xml:space="preserve" font-family="Palatino-Roman,Palatino" font-size="40.0" fill="#000000" transform="matrix(1.00, 0.00, -0.00, -1.00, 492.0, 483.5)"> </text><text xml:space="preserve" font-family="Palatino-Roman,Palatino" font-size="40.0" fill="#000000" transform="matrix(1.00, 0.00, -0.00, -1.00, 502.0, 483.5)">s</text><text xml:space="preserve" font-family="Palatino-Roman,Palatino" font-size="40.0" fill="#000000" transform="matrix(1.00, 0.00, -0.00, -1.00, 518.9, 483.5)">a</text><text xml:space="preserve" font-family="Palatino-Roman,Palatino" font-size="40.0" fill="#000000" transform="matrix(1.00, 0.00, -0.00, -1.00, 538.9, 483.5)">m</text><text xml:space="preserve" font-family="Palatino-Roman,Palatino" font-size="40.0" fill="#000000" transform="matrix(1.00, 0.00, -0.00, -1.00, 574.2, 483.5)">m</text><text xml:space="preserve" font-family="Palatino-Roman,Palatino" font-size="40.0" fill="#000000" transform="matrix(1.00, 0.00, -0.00, -1.00, 609.5, 483.5)">a</text><text xml:space="preserve" font-family="Palatino-Roman,Palatino" font-size="40.0" fill="#000000" transform="matrix(1.00, 0.00, -0.00, -1.00, 629.5, 483.5)"> </text><text xml:space="preserve" font-family="Palatino-Roman,Palatino" font-size="40.0" fill="#000000" transform="matrix(1.00, 0.00, -0.00, -1.00, 639.5, 483.5)">s</text><text xml:space="preserve" font-family="Palatino-Roman,Palatino" font-size="40.0" fill="#000000" transform="matrix(1.00, 0.00, -0.00, -1.00, 656.5, 483.5)">o</text><text xml:space="preserve" font-family="Palatino-Roman,Palatino" font-size="40.0" fill="#000000" transform="matrix(1.00, 0.00, -0.00, -1.00, 678.3, 483.5)">m</text><text xml:space="preserve" font-family="Palatino-Roman,Palatino" font-size="40.0" fill="#000000" transform="matrix(1.00, 0.00, -0.00, -1.00, 713.6, 483.5)"> </text><text xml:space="preserve" font-family="Palatino-Roman,Palatino" font-size="40.0" fill="#000000" transform="matrix(1.00, 0.00, -0.00, -1.00, 723.6, 483.5)">i</text><text xml:space="preserve" font-family="Palatino-Roman,Palatino" font-size="40.0" fill="#000000" transform="matrix(1.00, 0.00, -0.00, -1.00, 735.3, 483.5)"> </text><text xml:space="preserve" font-family="Palatino-Roman,Palatino" font-size="40.0" fill="#000000" transform="matrix(1.00, 0.00, -0.00, -1.00, 745.3, 483.5)">1</text><text xml:space="preserve" font-family="Palatino-Roman,Palatino" font-size="40.0" fill="#000000" transform="matrix(1.00, 0.00, -0.00, -1.00, 765.3, 483.5)">.</text><text xml:space="preserve" font-family="Palatino-Roman,Palatino" font-size="40.0" fill="#000000" transform="matrix(1.00, 0.00, -0.00, -1.00, 775.3, 483.5)"> </text><text xml:space="preserve" font-family="Palatino-Roman,Palatino" font-size="40.0" fill="#000000" transform="matrix(1.00, 0.00, -0.00, -1.00, 785.3, 483.5)">o</text><text xml:space="preserve" font-family="Palatino-Roman,Palatino" font-size="40.0" fill="#000000" transform="matrix(1.00, 0.00, -0.00, -1.00, 807.1, 483.5)">c</text><text xml:space="preserve" font-family="Palatino-Roman,Palatino" font-size="40.0" fill="#000000" transform="matrix(1.00, 0.00, -0.00, -1.00, 824.8, 483.5)">h</text><text xml:space="preserve" font-family="Palatino-Roman,Palatino" font-size="40.0" fill="#000000" transform="matrix(1.00, 0.00, -0.00, -1.00, 848.1, 483.5)"> </text><text xml:space="preserve" font-family="Palatino-Roman,Palatino" font-size="40.0" fill="#000000" transform="matrix(1.00, 0.00, -0.00, -1.00, 858.1, 483.5)">2</text><text xml:space="preserve" font-family="Palatino-Roman,Palatino" font-size="40.0" fill="#000000" transform="matrix(1.00, 0.00, -0.00, -1.00, 878.1, 483.5)">.</text><text xml:space="preserve" font-family="Palatino-Roman,Palatino" font-size="40.0" fill="#000000" transform="matrix(1.00, 0.00, -0.00, -1.00, 888.1, 483.5)"> </text><text xml:space="preserve" font-family="Palatino-Roman,Palatino" font-size="40.0" fill="#000000" transform="matrix(1.00, 0.00, -0.00, -1.00, 193.5, 430.5)">d</text><text xml:space="preserve" font-family="Palatino-Roman,Palatino" font-size="40.0" fill="#000000" transform="matrix(1.00, 0.00, -0.00, -1.00, 218.0, 430.5)">e</text><text xml:space="preserve" font-family="Palatino-Roman,Palatino" font-size="40.0" fill="#000000" transform="matrix(1.00, 0.00, -0.00, -1.00, 237.1, 430.5)">k</text><text xml:space="preserve" font-family="Palatino-Roman,Palatino" font-size="40.0" fill="#000000" transform="matrix(1.00, 0.00, -0.00, -1.00, 259.4, 430.5)">l</text><text xml:space="preserve" font-family="Palatino-Roman,Palatino" font-size="40.0" fill="#000000" transform="matrix(1.00, 0.00, -0.00, -1.00, 271.0, 430.5)">i</text><text xml:space="preserve" font-family="Palatino-Roman,Palatino" font-size="40.0" fill="#000000" transform="matrix(1.00, 0.00, -0.00, -1.00, 282.6, 430.5)">n</text><text xml:space="preserve" font-family="Palatino-Roman,Palatino" font-size="40.0" fill="#000000" transform="matrix(1.00, 0.00, -0.00, -1.00, 305.9, 430.5)">a</text><text xml:space="preserve" font-family="Palatino-Roman,Palatino" font-size="40.0" fill="#000000" transform="matrix(1.00, 0.00, -0.00, -1.00, 325.9, 430.5)">t</text><text xml:space="preserve" font-family="Palatino-Roman,Palatino" font-size="40.0" fill="#000000" transform="matrix(1.00, 0.00, -0.00, -1.00, 339.0, 430.5)">i</text><text xml:space="preserve" font-family="Palatino-Roman,Palatino" font-size="40.0" fill="#000000" transform="matrix(1.00, 0.00, -0.00, -1.00, 350.6, 430.5)">o</text><text xml:space="preserve" font-family="Palatino-Roman,Palatino" font-size="40.0" fill="#000000" transform="matrix(1.00, 0.00, -0.00, -1.00, 372.5, 430.5)">n</text><text xml:space="preserve" font-family="Palatino-Roman,Palatino" font-size="40.0" fill="#000000" transform="matrix(1.00, 0.00, -0.00, -1.00, 395.7, 430.5)">e</text><text xml:space="preserve" font-family="Palatino-Roman,Palatino" font-size="40.0" fill="#000000" transform="matrix(1.00, 0.00, -0.00, -1.00, 414.9, 430.5)">r</text><text xml:space="preserve" font-family="Palatino-Roman,Palatino" font-size="40.0" fill="#000000" transform="matrix(1.00, 0.00, -0.00, -1.00, 430.7, 430.5)">n</text><text xml:space="preserve" font-family="Palatino-Roman,Palatino" font-size="40.0" fill="#000000" transform="matrix(1.00, 0.00, -0.00, -1.00, 454.0, 430.5)">a</text><text xml:space="preserve" font-family="LucidaGrande,Lucida Grande" font-size="40.0" fill="#164E86" transform="matrix(1.00, 0.00, -0.00, -1.00, 143.5, 362.8)">‣</text><text xml:space="preserve" font-family="Palatino-Roman,Palatino" font-size="40.0" fill="#000000" transform="matrix(1.00, 0.00, -0.00, -1.00, 193.5, 362.5)">I</text><text xml:space="preserve" font-family="Palatino-Roman,Palatino" font-size="40.0" fill="#000000" transform="matrix(1.00, 0.00, -0.00, -1.00, 207.0, 362.5)"> </text><text xml:space="preserve" font-family="Palatino-Italic,Palatino" font-style="italic" font-size="40.0" fill="#000000" transform="matrix(1.00, 0.00, -0.00, -1.00, 217.0, 362.5)">g</text><text xml:space="preserve" font-family="Palatino-Italic,Palatino" font-style="italic" font-size="40.0" fill="#000000" transform="matrix(1.00, 0.00, -0.00, -1.00, 237.0, 362.5)">e</text><text xml:space="preserve" font-family="Palatino-Italic,Palatino" font-style="italic" font-size="40.0" fill="#000000" transform="matrix(1.00, 0.00, -0.00, -1.00, 252.6, 362.5)">n</text><text xml:space="preserve" font-family="Palatino-Italic,Palatino" font-style="italic" font-size="40.0" fill="#000000" transform="matrix(1.00, 0.00, -0.00, -1.00, 274.8, 362.5)">i</text><text xml:space="preserve" font-family="Palatino-Italic,Palatino" font-style="italic" font-size="40.0" fill="#000000" transform="matrix(1.00, 0.00, -0.00, -1.00, 285.9, 362.5)">t</text><text xml:space="preserve" font-family="Palatino-Italic,Palatino" font-style="italic" font-size="40.0" fill="#000000" transform="matrix(1.00, 0.00, -0.00, -1.00, 299.3, 362.5)">i</text><text xml:space="preserve" font-family="Palatino-Italic,Palatino" font-style="italic" font-size="40.0" fill="#000000" transform="matrix(1.00, 0.00, -0.00, -1.00, 310.4, 362.5)">v</text><text xml:space="preserve" font-family="Palatino-Italic,Palatino" font-style="italic" font-size="40.0" fill="#000000" transform="matrix(1.00, 0.00, -0.00, -1.00, 330.4, 362.5)"> </text><text xml:space="preserve" font-family="Palatino-Roman,Palatino" font-size="40.0" fill="#000000" transform="matrix(1.00, 0.00, -0.00, -1.00, 340.4, 362.5)">o</text><text xml:space="preserve" font-family="Palatino-Roman,Palatino" font-size="40.0" fill="#000000" transform="matrix(1.00, 0.00, -0.00, -1.00, 362.2, 362.5)">c</text><text xml:space="preserve" font-family="Palatino-Roman,Palatino" font-size="40.0" fill="#000000" transform="matrix(1.00, 0.00, -0.00, -1.00, 379.9, 362.5)">h</text><text xml:space="preserve" font-family="Palatino-Roman,Palatino" font-size="40.0" fill="#000000" transform="matrix(1.00, 0.00, -0.00, -1.00, 403.2, 362.5)"> </text><text xml:space="preserve" font-family="Palatino-Italic,Palatino" font-style="italic" font-size="40.0" fill="#000000" transform="matrix(1.00, 0.00, -0.00, -1.00, 413.2, 362.5)">d</text><text xml:space="preserve" font-family="Palatino-Italic,Palatino" font-style="italic" font-size="40.0" fill="#000000" transform="matrix(1.00, 0.00, -0.00, -1.00, 433.2, 362.5)">a</text><text xml:space="preserve" font-family="Palatino-Italic,Palatino" font-style="italic" font-size="40.0" fill="#000000" transform="matrix(1.00, 0.00, -0.00, -1.00, 451.0, 362.5)">t</text><text xml:space="preserve" font-family="Palatino-Italic,Palatino" font-style="italic" font-size="40.0" fill="#000000" transform="matrix(1.00, 0.00, -0.00, -1.00, 464.3, 362.5)">i</text><text xml:space="preserve" font-family="Palatino-Italic,Palatino" font-style="italic" font-size="40.0" fill="#000000" transform="matrix(1.00, 0.00, -0.00, -1.00, 475.4, 362.5)">v</text><text xml:space="preserve" font-family="Palatino-Italic,Palatino" font-style="italic" font-size="40.0" fill="#000000" transform="matrix(1.00, 0.00, -0.00, -1.00, 495.4, 362.5)"> </text><text xml:space="preserve" font-family="Palatino-Italic,Palatino" font-style="italic" font-size="40.0" fill="#000000" transform="matrix(1.00, 0.00, -0.00, -1.00, 505.4, 362.5)">s</text><text xml:space="preserve" font-family="Palatino-Italic,Palatino" font-style="italic" font-size="40.0" fill="#000000" transform="matrix(1.00, 0.00, -0.00, -1.00, 521.0, 362.5)">i</text><text xml:space="preserve" font-family="Palatino-Italic,Palatino" font-style="italic" font-size="40.0" fill="#000000" transform="matrix(1.00, 0.00, -0.00, -1.00, 532.1, 362.5)">n</text><text xml:space="preserve" font-family="Palatino-Italic,Palatino" font-style="italic" font-size="40.0" fill="#000000" transform="matrix(1.00, 0.00, -0.00, -1.00, 554.3, 362.5)">g</text><text xml:space="preserve" font-family="Palatino-Italic,Palatino" font-style="italic" font-size="40.0" fill="#000000" transform="matrix(1.00, 0.00, -0.00, -1.00, 574.3, 362.5)">u</text><text xml:space="preserve" font-family="Palatino-Italic,Palatino" font-style="italic" font-size="40.0" fill="#000000" transform="matrix(1.00, 0.00, -0.00, -1.00, 596.6, 362.5)">l</text><text xml:space="preserve" font-family="Palatino-Italic,Palatino" font-style="italic" font-size="40.0" fill="#000000" transform="matrix(1.00, 0.00, -0.00, -1.00, 607.7, 362.5)">a</text><text xml:space="preserve" font-family="Palatino-Italic,Palatino" font-style="italic" font-size="40.0" fill="#000000" transform="matrix(1.00, 0.00, -0.00, -1.00, 625.4, 362.5)">r</text><text xml:space="preserve" font-family="Palatino-Italic,Palatino" font-style="italic" font-size="40.0" fill="#000000" transform="matrix(1.00, 0.00, -0.00, -1.00, 641.0, 362.5)">i</text><text xml:space="preserve" font-family="Palatino-Italic,Palatino" font-style="italic" font-size="40.0" fill="#000000" transform="matrix(1.00, 0.00, -0.00, -1.00, 652.1, 362.5)">s</text><text xml:space="preserve" font-family="Palatino-Roman,Palatino" font-size="40.0" fill="#000000" transform="matrix(1.00, 0.00, -0.00, -1.00, 667.7, 362.5)"> </text><text xml:space="preserve" font-family="Palatino-Roman,Palatino" font-size="40.0" fill="#000000" transform="matrix(1.00, 0.00, -0.00, -1.00, 677.7, 362.5)">h</text><text xml:space="preserve" font-family="Palatino-Roman,Palatino" font-size="40.0" fill="#000000" transform="matrix(1.00, 0.00, -0.00, -1.00, 701.0, 362.5)">a</text><text xml:space="preserve" font-family="Palatino-Roman,Palatino" font-size="40.0" fill="#000000" transform="matrix(1.00, 0.00, -0.00, -1.00, 721.0, 362.5)">r</text><text xml:space="preserve" font-family="Palatino-Roman,Palatino" font-size="40.0" fill="#000000" transform="matrix(1.00, 0.00, -0.00, -1.00, 736.8, 362.5)"> </text><text xml:space="preserve" font-family="Palatino-Roman,Palatino" font-size="40.0" fill="#000000" transform="matrix(1.00, 0.00, -0.00, -1.00, 746.8, 362.5)">p</text><text xml:space="preserve" font-family="Palatino-Roman,Palatino" font-size="40.0" fill="#000000" transform="matrix(1.00, 0.00, -0.00, -1.00, 770.8, 362.5)">r</text><text xml:space="preserve" font-family="Palatino-Roman,Palatino" font-size="40.0" fill="#000000" transform="matrix(1.00, 0.00, -0.00, -1.00, 785.9, 362.5)">o</text><text xml:space="preserve" font-family="Palatino-Roman,Palatino" font-size="40.0" fill="#000000" transform="matrix(1.00, 0.00, -0.00, -1.00, 807.8, 362.5)">n</text><text xml:space="preserve" font-family="Palatino-Roman,Palatino" font-size="40.0" fill="#000000" transform="matrix(1.00, 0.00, -0.00, -1.00, 831.0, 362.5)">o</text><text xml:space="preserve" font-family="Palatino-Roman,Palatino" font-size="40.0" fill="#000000" transform="matrix(1.00, 0.00, -0.00, -1.00, 852.9, 362.5)">m</text><text xml:space="preserve" font-family="Palatino-Roman,Palatino" font-size="40.0" fill="#000000" transform="matrix(1.00, 0.00, -0.00, -1.00, 888.2, 362.5)">e</text><text xml:space="preserve" font-family="Palatino-Roman,Palatino" font-size="40.0" fill="#000000" transform="matrix(1.00, 0.00, -0.00, -1.00, 907.3, 362.5)">n</text><text xml:space="preserve" font-family="Palatino-Roman,Palatino" font-size="40.0" fill="#000000" transform="matrix(1.00, 0.00, -0.00, -1.00, 930.6, 362.5)"> </text><text xml:space="preserve" font-family="Palatino-Roman,Palatino" font-size="40.0" fill="#000000" transform="matrix(1.00, 0.00, -0.00, -1.00, 193.5, 309.5)">s</text><text xml:space="preserve" font-family="Palatino-Roman,Palatino" font-size="40.0" fill="#000000" transform="matrix(1.00, 0.00, -0.00, -1.00, 210.5, 309.5)">p</text><text xml:space="preserve" font-family="Palatino-Roman,Palatino" font-size="40.0" fill="#000000" transform="matrix(1.00, 0.00, -0.00, -1.00, 234.5, 309.5)">e</text><text xml:space="preserve" font-family="Palatino-Roman,Palatino" font-size="40.0" fill="#000000" transform="matrix(1.00, 0.00, -0.00, -1.00, 253.7, 309.5)">c</text><text xml:space="preserve" font-family="Palatino-Roman,Palatino" font-size="40.0" fill="#000000" transform="matrix(1.00, 0.00, -0.00, -1.00, 271.4, 309.5)">i</text><text xml:space="preserve" font-family="Palatino-Roman,Palatino" font-size="40.0" fill="#000000" transform="matrix(1.00, 0.00, -0.00, -1.00, 283.1, 309.5)">e</text><text xml:space="preserve" font-family="Palatino-Roman,Palatino" font-size="40.0" fill="#000000" transform="matrix(1.00, 0.00, -0.00, -1.00, 302.2, 309.5)">l</text><text xml:space="preserve" font-family="Palatino-Roman,Palatino" font-size="40.0" fill="#000000" transform="matrix(1.00, 0.00, -0.00, -1.00, 313.9, 309.5)">l</text><text xml:space="preserve" font-family="Palatino-Roman,Palatino" font-size="40.0" fill="#000000" transform="matrix(1.00, 0.00, -0.00, -1.00, 325.5, 309.5)">a</text><text xml:space="preserve" font-family="Palatino-Roman,Palatino" font-size="40.0" fill="#000000" transform="matrix(1.00, 0.00, -0.00, -1.00, 345.5, 309.5)"> </text><text xml:space="preserve" font-family="Palatino-Roman,Palatino" font-size="40.0" fill="#000000" transform="matrix(1.00, 0.00, -0.00, -1.00, 355.5, 309.5)">ä</text><text xml:space="preserve" font-family="Palatino-Roman,Palatino" font-size="40.0" fill="#000000" transform="matrix(1.00, 0.00, -0.00, -1.00, 375.5, 309.5)">n</text><text xml:space="preserve" font-family="Palatino-Roman,Palatino" font-size="40.0" fill="#000000" transform="matrix(1.00, 0.00, -0.00, -1.00, 398.8, 309.5)">d</text><text xml:space="preserve" font-family="Palatino-Roman,Palatino" font-size="40.0" fill="#000000" transform="matrix(1.00, 0.00, -0.00, -1.00, 423.2, 309.5)">e</text><text xml:space="preserve" font-family="Palatino-Roman,Palatino" font-size="40.0" fill="#000000" transform="matrix(1.00, 0.00, -0.00, -1.00, 442.4, 309.5)">l</text><text xml:space="preserve" font-family="Palatino-Roman,Palatino" font-size="40.0" fill="#000000" transform="matrix(1.00, 0.00, -0.00, -1.00, 454.0, 309.5)">s</text><text xml:space="preserve" font-family="Palatino-Roman,Palatino" font-size="40.0" fill="#000000" transform="matrix(1.00, 0.00, -0.00, -1.00, 471.0, 309.5)">e</text><text xml:space="preserve" font-family="Palatino-Roman,Palatino" font-size="40.0" fill="#000000" transform="matrix(1.00, 0.00, -0.00, -1.00, 490.1, 309.5)">r</text><text xml:space="preserve" font-family="LucidaGrande,Lucida Grande" font-size="40.0" fill="#164E86" transform="matrix(1.00, 0.00, -0.00, -1.00, 73.5, 241.8)">‣</text><text xml:space="preserve" font-family="Palatino-Roman,Palatino" font-size="40.0" fill="#000000" transform="matrix(1.00, 0.00, -0.00, -1.00, 123.5, 241.5)">K</text><text xml:space="preserve" font-family="Palatino-Roman,Palatino" font-size="40.0" fill="#000000" transform="matrix(1.00, 0.00, -0.00, -1.00, 152.6, 241.5)">a</text><text xml:space="preserve" font-family="Palatino-Roman,Palatino" font-size="40.0" fill="#000000" transform="matrix(1.00, 0.00, -0.00, -1.00, 172.6, 241.5)">n</text><text xml:space="preserve" font-family="Palatino-Roman,Palatino" font-size="40.0" fill="#000000" transform="matrix(1.00, 0.00, -0.00, -1.00, 195.9, 241.5)"> </text><text xml:space="preserve" font-family="Palatino-Roman,Palatino" font-size="40.0" fill="#000000" transform="matrix(1.00, 0.00, -0.00, -1.00, 205.9, 241.5)">s</text><text xml:space="preserve" font-family="Palatino-Roman,Palatino" font-size="40.0" fill="#000000" transform="matrix(1.00, 0.00, -0.00, -1.00, 222.8, 241.5)">t</text><text xml:space="preserve" font-family="Palatino-Roman,Palatino" font-size="40.0" fill="#000000" transform="matrix(1.00, 0.00, -0.00, -1.00, 235.9, 241.5)">å</text><text xml:space="preserve" font-family="Palatino-Roman,Palatino" font-size="40.0" fill="#000000" transform="matrix(1.00, 0.00, -0.00, -1.00, 255.9, 241.5)"> </text><text xml:space="preserve" font-family="Palatino-Roman,Palatino" font-size="40.0" fill="#000000" transform="matrix(1.00, 0.00, -0.00, -1.00, 265.9, 241.5)">e</text><text xml:space="preserve" font-family="Palatino-Roman,Palatino" font-size="40.0" fill="#000000" transform="matrix(1.00, 0.00, -0.00, -1.00, 285.0, 241.5)">n</text><text xml:space="preserve" font-family="Palatino-Roman,Palatino" font-size="40.0" fill="#000000" transform="matrix(1.00, 0.00, -0.00, -1.00, 308.3, 241.5)">s</text><text xml:space="preserve" font-family="Palatino-Roman,Palatino" font-size="40.0" fill="#000000" transform="matrix(1.00, 0.00, -0.00, -1.00, 325.2, 241.5)">a</text><text xml:space="preserve" font-family="Palatino-Roman,Palatino" font-size="40.0" fill="#000000" transform="matrix(1.00, 0.00, -0.00, -1.00, 345.2, 241.5)">m</text><text xml:space="preserve" font-family="Palatino-Roman,Palatino" font-size="40.0" fill="#000000" transform="matrix(1.00, 0.00, -0.00, -1.00, 380.5, 241.5)"> </text><text xml:space="preserve" font-family="Palatino-Roman,Palatino" font-size="40.0" fill="#000000" transform="matrix(1.00, 0.00, -0.00, -1.00, 390.5, 241.5)">e</text><text xml:space="preserve" font-family="Palatino-Roman,Palatino" font-size="40.0" fill="#000000" transform="matrix(1.00, 0.00, -0.00, -1.00, 409.7, 241.5)">l</text><text xml:space="preserve" font-family="Palatino-Roman,Palatino" font-size="40.0" fill="#000000" transform="matrix(1.00, 0.00, -0.00, -1.00, 421.3, 241.5)">l</text><text xml:space="preserve" font-family="Palatino-Roman,Palatino" font-size="40.0" fill="#000000" transform="matrix(1.00, 0.00, -0.00, -1.00, 433.0, 241.5)">e</text><text xml:space="preserve" font-family="Palatino-Roman,Palatino" font-size="40.0" fill="#000000" transform="matrix(1.00, 0.00, -0.00, -1.00, 452.1, 241.5)">r</text><text xml:space="preserve" font-family="Palatino-Roman,Palatino" font-size="40.0" fill="#000000" transform="matrix(1.00, 0.00, -0.00, -1.00, 467.9, 241.5)"> </text><text xml:space="preserve" font-family="Palatino-Roman,Palatino" font-size="40.0" fill="#000000" transform="matrix(1.00, 0.00, -0.00, -1.00, 477.9, 241.5)">m</text><text xml:space="preserve" font-family="Palatino-Roman,Palatino" font-size="40.0" fill="#000000" transform="matrix(1.00, 0.00, -0.00, -1.00, 513.3, 241.5)">e</text><text xml:space="preserve" font-family="Palatino-Roman,Palatino" font-size="40.0" fill="#000000" transform="matrix(1.00, 0.00, -0.00, -1.00, 532.4, 241.5)">d</text><text xml:space="preserve" font-family="Palatino-Roman,Palatino" font-size="40.0" fill="#000000" transform="matrix(1.00, 0.00, -0.00, -1.00, 556.8, 241.5)"> </text><text xml:space="preserve" font-family="Palatino-Roman,Palatino" font-size="40.0" fill="#000000" transform="matrix(1.00, 0.00, -0.00, -1.00, 566.8, 241.5)">e</text><text xml:space="preserve" font-family="Palatino-Roman,Palatino" font-size="40.0" fill="#000000" transform="matrix(1.00, 0.00, -0.00, -1.00, 586.0, 241.5)">t</text><text xml:space="preserve" font-family="Palatino-Roman,Palatino" font-size="40.0" fill="#000000" transform="matrix(1.00, 0.00, -0.00, -1.00, 599.1, 241.5)">t</text><text xml:space="preserve" font-family="Palatino-Roman,Palatino" font-size="40.0" fill="#000000" transform="matrix(1.00, 0.00, -0.00, -1.00, 612.1, 241.5)"> </text><text xml:space="preserve" font-family="Palatino-Roman,Palatino" font-size="40.0" fill="#000000" transform="matrix(1.00, 0.00, -0.00, -1.00, 622.1, 241.5)">h</text><text xml:space="preserve" font-family="Palatino-Roman,Palatino" font-size="40.0" fill="#000000" transform="matrix(1.00, 0.00, -0.00, -1.00, 645.4, 241.5)">u</text><text xml:space="preserve" font-family="Palatino-Roman,Palatino" font-size="40.0" fill="#000000" transform="matrix(1.00, 0.00, -0.00, -1.00, 669.5, 241.5)">v</text><text xml:space="preserve" font-family="Palatino-Roman,Palatino" font-size="40.0" fill="#000000" transform="matrix(1.00, 0.00, -0.00, -1.00, 692.1, 241.5)">u</text><text xml:space="preserve" font-family="Palatino-Roman,Palatino" font-size="40.0" fill="#000000" transform="matrix(1.00, 0.00, -0.00, -1.00, 716.2, 241.5)">d</text><text xml:space="preserve" font-family="Palatino-Roman,Palatino" font-size="40.0" fill="#000000" transform="matrix(1.00, 0.00, -0.00, -1.00, 740.7, 241.5)">o</text><text xml:space="preserve" font-family="Palatino-Roman,Palatino" font-size="40.0" fill="#000000" transform="matrix(1.00, 0.00, -0.00, -1.00, 762.5, 241.5)">r</text><text xml:space="preserve" font-family="Palatino-Roman,Palatino" font-size="40.0" fill="#000000" transform="matrix(1.00, 0.00, -0.00, -1.00, 777.6, 241.5)">d</text><text xml:space="preserve" font-family="Palatino-Italic,Palatino" font-style="italic" font-size="40.0" fill="#000000" transform="matrix(1.00, 0.00, -0.00, -1.00, 158.5, 173.5)">i</text><text xml:space="preserve" font-family="Palatino-Italic,Palatino" font-style="italic" font-size="40.0" fill="#000000" transform="matrix(1.00, 0.00, -0.00, -1.00, 169.6, 173.5)">l</text><text xml:space="preserve" font-family="Palatino-Italic,Palatino" font-style="italic" font-size="40.0" fill="#000000" transform="matrix(1.00, 0.00, -0.00, -1.00, 180.7, 173.5)">l</text><text xml:space="preserve" font-family="Palatino-Italic,Palatino" font-style="italic" font-size="40.0" fill="#000000" transform="matrix(1.00, 0.00, -0.00, -1.00, 191.8, 173.5)">a</text><text xml:space="preserve" font-family="Palatino-Roman,Palatino" font-size="40.0" fill="#000000" transform="matrix(1.00, 0.00, -0.00, -1.00, 366.5, 173.5)">h</text><text xml:space="preserve" font-family="Palatino-Roman,Palatino" font-size="40.0" fill="#000000" transform="matrix(1.00, 0.00, -0.00, -1.00, 389.8, 173.5)">o</text><text xml:space="preserve" font-family="Palatino-Roman,Palatino" font-size="40.0" fill="#000000" transform="matrix(1.00, 0.00, -0.00, -1.00, 411.6, 173.5)">n</text><text xml:space="preserve" font-family="Palatino-Roman,Palatino" font-size="40.0" fill="#000000" transform="matrix(1.00, 0.00, -0.00, -1.00, 434.9, 173.5)">,</text><text xml:space="preserve" font-family="Palatino-Roman,Palatino" font-size="40.0" fill="#000000" transform="matrix(1.00, 0.00, -0.00, -1.00, 444.9, 173.5)"> </text><text xml:space="preserve" font-family="Palatino-Roman,Palatino" font-size="40.0" fill="#000000" transform="matrix(1.00, 0.00, -0.00, -1.00, 454.9, 173.5)">d</text><text xml:space="preserve" font-family="Palatino-Roman,Palatino" font-size="40.0" fill="#000000" transform="matrix(1.00, 0.00, -0.00, -1.00, 479.3, 173.5)">e</text><text xml:space="preserve" font-family="Palatino-Roman,Palatino" font-size="40.0" fill="#000000" transform="matrix(1.00, 0.00, -0.00, -1.00, 498.5, 173.5)">n</text><text xml:space="preserve" font-family="Palatino-Roman,Palatino" font-size="40.0" fill="#000000" transform="matrix(1.00, 0.00, -0.00, -1.00, 521.8, 173.5)">n</text><text xml:space="preserve" font-family="Palatino-Roman,Palatino" font-size="40.0" fill="#000000" transform="matrix(1.00, 0.00, -0.00, -1.00, 545.1, 173.5)">a</text><text xml:space="preserve" font-family="Palatino-Italic,Palatino" font-style="italic" font-size="40.0" fill="#000000" transform="matrix(1.00, 0.00, -0.00, -1.00, 158.5, 105.5)">h</text><text xml:space="preserve" font-family="Palatino-Italic,Palatino" font-style="italic" font-size="40.0" fill="#000000" transform="matrix(1.00, 0.00, -0.00, -1.00, 178.5, 105.5)">i</text><text xml:space="preserve" font-family="Palatino-Italic,Palatino" font-style="italic" font-size="40.0" fill="#000000" transform="matrix(1.00, 0.00, -0.00, -1.00, 189.6, 105.5)">c</text><text xml:space="preserve" font-family="Palatino-Italic,Palatino" font-style="italic" font-size="40.0" fill="#000000" transform="matrix(1.00, 0.00, -0.00, -1.00, 205.9, 105.5)"> </text><text xml:space="preserve" font-family="Palatino-Italic,Palatino" font-style="italic" font-size="40.0" fill="#000000" transform="matrix(1.00, 0.00, -0.00, -1.00, 215.9, 105.5)">p</text><text xml:space="preserve" font-family="Palatino-Italic,Palatino" font-style="italic" font-size="40.0" fill="#000000" transform="matrix(1.00, 0.00, -0.00, -1.00, 235.9, 105.5)">u</text><text xml:space="preserve" font-family="Palatino-Italic,Palatino" font-style="italic" font-size="40.0" fill="#000000" transform="matrix(1.00, 0.00, -0.00, -1.00, 258.2, 105.5)">e</text><text xml:space="preserve" font-family="Palatino-Italic,Palatino" font-style="italic" font-size="40.0" fill="#000000" transform="matrix(1.00, 0.00, -0.00, -1.00, 273.8, 105.5)">r</text><text xml:space="preserve" font-family="Palatino-Roman,Palatino" font-size="40.0" fill="#000000" transform="matrix(1.00, 0.00, -0.00, -1.00, 416.5, 105.5)">d</text><text xml:space="preserve" font-family="Palatino-Roman,Palatino" font-size="40.0" fill="#000000" transform="matrix(1.00, 0.00, -0.00, -1.00, 441.0, 105.5)">e</text><text xml:space="preserve" font-family="Palatino-Roman,Palatino" font-size="40.0" fill="#000000" transform="matrix(1.00, 0.00, -0.00, -1.00, 460.1, 105.5)">n</text><text xml:space="preserve" font-family="Palatino-Roman,Palatino" font-size="40.0" fill="#000000" transform="matrix(1.00, 0.00, -0.00, -1.00, 483.4, 105.5)"> </text><text xml:space="preserve" font-family="Palatino-Roman,Palatino" font-size="40.0" fill="#000000" transform="matrix(1.00, 0.00, -0.00, -1.00, 493.4, 105.5)">h</text><text xml:space="preserve" font-family="Palatino-Roman,Palatino" font-size="40.0" fill="#000000" transform="matrix(1.00, 0.00, -0.00, -1.00, 516.7, 105.5)">ä</text><text xml:space="preserve" font-family="Palatino-Roman,Palatino" font-size="40.0" fill="#000000" transform="matrix(1.00, 0.00, -0.00, -1.00, 536.7, 105.5)">r</text><text xml:space="preserve" font-family="Palatino-Roman,Palatino" font-size="40.0" fill="#000000" transform="matrix(1.00, 0.00, -0.00, -1.00, 552.5, 105.5)"> </text><text xml:space="preserve" font-family="Palatino-Roman,Palatino" font-size="40.0" fill="#000000" transform="matrix(1.00, 0.00, -0.00, -1.00, 562.5, 105.5)">p</text><text xml:space="preserve" font-family="Palatino-Roman,Palatino" font-size="40.0" fill="#000000" transform="matrix(1.00, 0.00, -0.00, -1.00, 586.5, 105.5)">o</text><text xml:space="preserve" font-family="Palatino-Roman,Palatino" font-size="40.0" fill="#000000" transform="matrix(1.00, 0.00, -0.00, -1.00, 608.4, 105.5)">j</text><text xml:space="preserve" font-family="Palatino-Roman,Palatino" font-size="40.0" fill="#000000" transform="matrix(1.00, 0.00, -0.00, -1.00, 617.7, 105.5)">k</text><text xml:space="preserve" font-family="Palatino-Roman,Palatino" font-size="40.0" fill="#000000" transform="matrix(1.00, 0.00, -0.00, -1.00, 640.0, 105.5)">e</text><text xml:space="preserve" font-family="Palatino-Roman,Palatino" font-size="40.0" fill="#000000" transform="matrix(1.00, 0.00, -0.00, -1.00, 659.1, 105.5)">n</text><text xml:space="preserve" font-family="Palatino-Roman,Palatino" font-size="16.0" fill="#000000" transform="matrix(1.00, 0.00, -0.00, -1.00, 829.2, 29.4)">©</text><text xml:space="preserve" font-family="Palatino-Roman,Palatino" font-size="16.0" fill="#000000" transform="matrix(1.00, 0.00, -0.00, -1.00, 841.2, 29.4)"> </text><text xml:space="preserve" font-family="Palatino-Roman,Palatino" font-size="16.0" fill="#000000" transform="matrix(1.00, 0.00, -0.00, -1.00, 845.2, 29.4)">J</text><text xml:space="preserve" font-family="Palatino-Roman,Palatino" font-size="16.0" fill="#000000" transform="matrix(1.00, 0.00, -0.00, -1.00, 850.5, 29.4)">o</text><text xml:space="preserve" font-family="Palatino-Roman,Palatino" font-size="16.0" fill="#000000" transform="matrix(1.00, 0.00, -0.00, -1.00, 859.2, 29.4)">o</text><text xml:space="preserve" font-family="Palatino-Roman,Palatino" font-size="16.0" fill="#000000" transform="matrix(1.00, 0.00, -0.00, -1.00, 868.0, 29.4)">n</text><text xml:space="preserve" font-family="Palatino-Roman,Palatino" font-size="16.0" fill="#000000" transform="matrix(1.00, 0.00, -0.00, -1.00, 877.3, 29.4)">a</text><text xml:space="preserve" font-family="Palatino-Roman,Palatino" font-size="16.0" fill="#000000" transform="matrix(1.00, 0.00, -0.00, -1.00, 885.3, 29.4)">s</text><text xml:space="preserve" font-family="Palatino-Roman,Palatino" font-size="16.0" fill="#000000" transform="matrix(1.00, 0.00, -0.00, -1.00, 892.1, 29.4)"> </text><text xml:space="preserve" font-family="Palatino-Roman,Palatino" font-size="16.0" fill="#000000" transform="matrix(1.00, 0.00, -0.00, -1.00, 896.1, 29.4)">V</text><text xml:space="preserve" font-family="Palatino-Roman,Palatino" font-size="16.0" fill="#000000" transform="matrix(1.00, 0.00, -0.00, -1.00, 906.1, 29.4)">a</text><text xml:space="preserve" font-family="Palatino-Roman,Palatino" font-size="16.0" fill="#000000" transform="matrix(1.00, 0.00, -0.00, -1.00, 914.1, 29.4)">n</text><text xml:space="preserve" font-family="Palatino-Roman,Palatino" font-size="16.0" fill="#000000" transform="matrix(1.00, 0.00, -0.00, -1.00, 923.5, 29.4)">h</text><text xml:space="preserve" font-family="Palatino-Roman,Palatino" font-size="16.0" fill="#000000" transform="matrix(1.00, 0.00, -0.00, -1.00, 932.8, 29.4)">a</text><text xml:space="preserve" font-family="Palatino-Roman,Palatino" font-size="16.0" fill="#000000" transform="matrix(1.00, 0.00, -0.00, -1.00, 940.8, 29.4)">l</text><text xml:space="preserve" font-family="Palatino-Roman,Palatino" font-size="16.0" fill="#000000" transform="matrix(1.00, 0.00, -0.00, -1.00, 945.4, 29.4)">a</text><text xml:space="preserve" font-family="Palatino-Roman,Palatino" font-size="16.0" fill="#000000" transform="matrix(1.00, 0.00, -0.00, -1.00, 953.4, 29.4)"> </text><text xml:space="preserve" font-family="Palatino-Roman,Palatino" font-size="16.0" fill="#000000" transform="matrix(1.00, 0.00, -0.00, -1.00, 957.4, 29.4)">2</text><text xml:space="preserve" font-family="Palatino-Roman,Palatino" font-size="16.0" fill="#000000" transform="matrix(1.00, 0.00, -0.00, -1.00, 965.4, 29.4)">0</text><text xml:space="preserve" font-family="Palatino-Roman,Palatino" font-size="16.0" fill="#000000" transform="matrix(1.00, 0.00, -0.00, -1.00, 973.4, 29.4)">1</text><text xml:space="preserve" font-family="Palatino-Roman,Palatino" font-size="16.0" fill="#000000" transform="matrix(1.00, 0.00, -0.00, -1.00, 981.4, 29.4)">6</text></g></svg>