<?xml version="1.0" encoding="UTF-8" standalone="no"?><svg xmlns="http://www.w3.org/2000/svg" xmlns:xlink="http://www.w3.org/1999/xlink" clip-rule="evenodd" stroke-miterlimit="10" viewBox="0 0 1024 768"><desc>SVG generated by Keynote</desc><defs></defs><g transform="matrix(1.00, 0.00, -0.00, -1.00, 0.0, 768.0)"><path d="M 0.0 768.0 L 1024.0 768.0 L 1024.0 0.0 L 0.0 0.0 Z M 0.0 768.0 " fill="#FEFFFF"></path><text xml:space="preserve" font-family="LucidaGrande,Lucida Grande" font-size="40.0" fill="#164E86" transform="matrix(1.00, 0.00, -0.00, -1.00, 73.5, 551.8)">‣</text><text xml:space="preserve" font-family="Palatino-Roman,Palatino" font-size="40.0" fill="#000000" transform="matrix(1.00, 0.00, -0.00, -1.00, 123.5, 551.5)">N</text><text xml:space="preserve" font-family="Palatino-Roman,Palatino" font-size="40.0" fill="#000000" transform="matrix(1.00, 0.00, -0.00, -1.00, 156.8, 551.5)">å</text><text xml:space="preserve" font-family="Palatino-Roman,Palatino" font-size="40.0" fill="#000000" transform="matrix(1.00, 0.00, -0.00, -1.00, 176.8, 551.5)">g</text><text xml:space="preserve" font-family="Palatino-Roman,Palatino" font-size="40.0" fill="#000000" transform="matrix(1.00, 0.00, -0.00, -1.00, 199.0, 551.5)">r</text><text xml:space="preserve" font-family="Palatino-Roman,Palatino" font-size="40.0" fill="#000000" transform="matrix(1.00, 0.00, -0.00, -1.00, 214.8, 551.5)">a</text><text xml:space="preserve" font-family="Palatino-Roman,Palatino" font-size="40.0" fill="#000000" transform="matrix(1.00, 0.00, -0.00, -1.00, 234.8, 551.5)"> </text><text xml:space="preserve" font-family="Palatino-Roman,Palatino" font-size="40.0" fill="#000000" transform="matrix(1.00, 0.00, -0.00, -1.00, 244.8, 551.5)">d</text><text xml:space="preserve" font-family="Palatino-Roman,Palatino" font-size="40.0" fill="#000000" transform="matrix(1.00, 0.00, -0.00, -1.00, 269.3, 551.5)">e</text><text xml:space="preserve" font-family="Palatino-Roman,Palatino" font-size="40.0" fill="#000000" transform="matrix(1.00, 0.00, -0.00, -1.00, 288.4, 551.5)">m</text><text xml:space="preserve" font-family="Palatino-Roman,Palatino" font-size="40.0" fill="#000000" transform="matrix(1.00, 0.00, -0.00, -1.00, 323.7, 551.5)">o</text><text xml:space="preserve" font-family="Palatino-Roman,Palatino" font-size="40.0" fill="#000000" transform="matrix(1.00, 0.00, -0.00, -1.00, 345.5, 551.5)">n</text><text xml:space="preserve" font-family="Palatino-Roman,Palatino" font-size="40.0" fill="#000000" transform="matrix(1.00, 0.00, -0.00, -1.00, 368.8, 551.5)">s</text><text xml:space="preserve" font-family="Palatino-Roman,Palatino" font-size="40.0" fill="#000000" transform="matrix(1.00, 0.00, -0.00, -1.00, 385.8, 551.5)">t</text><text xml:space="preserve" font-family="Palatino-Roman,Palatino" font-size="40.0" fill="#000000" transform="matrix(1.00, 0.00, -0.00, -1.00, 398.8, 551.5)">r</text><text xml:space="preserve" font-family="Palatino-Roman,Palatino" font-size="40.0" fill="#000000" transform="matrix(1.00, 0.00, -0.00, -1.00, 414.6, 551.5)">a</text><text xml:space="preserve" font-family="Palatino-Roman,Palatino" font-size="40.0" fill="#000000" transform="matrix(1.00, 0.00, -0.00, -1.00, 434.6, 551.5)">t</text><text xml:space="preserve" font-family="Palatino-Roman,Palatino" font-size="40.0" fill="#000000" transform="matrix(1.00, 0.00, -0.00, -1.00, 447.7, 551.5)">i</text><text xml:space="preserve" font-family="Palatino-Roman,Palatino" font-size="40.0" fill="#000000" transform="matrix(1.00, 0.00, -0.00, -1.00, 459.3, 551.5)">v</text><text xml:space="preserve" font-family="Palatino-Roman,Palatino" font-size="40.0" fill="#000000" transform="matrix(1.00, 0.00, -0.00, -1.00, 481.9, 551.5)">a</text><text xml:space="preserve" font-family="Palatino-Roman,Palatino" font-size="40.0" fill="#000000" transform="matrix(1.00, 0.00, -0.00, -1.00, 501.9, 551.5)"> </text><text xml:space="preserve" font-family="Palatino-Roman,Palatino" font-size="40.0" fill="#000000" transform="matrix(1.00, 0.00, -0.00, -1.00, 511.9, 551.5)">p</text><text xml:space="preserve" font-family="Palatino-Roman,Palatino" font-size="40.0" fill="#000000" transform="matrix(1.00, 0.00, -0.00, -1.00, 536.0, 551.5)">r</text><text xml:space="preserve" font-family="Palatino-Roman,Palatino" font-size="40.0" fill="#000000" transform="matrix(1.00, 0.00, -0.00, -1.00, 551.1, 551.5)">o</text><text xml:space="preserve" font-family="Palatino-Roman,Palatino" font-size="40.0" fill="#000000" transform="matrix(1.00, 0.00, -0.00, -1.00, 572.9, 551.5)">n</text><text xml:space="preserve" font-family="Palatino-Roman,Palatino" font-size="40.0" fill="#000000" transform="matrix(1.00, 0.00, -0.00, -1.00, 596.2, 551.5)">o</text><text xml:space="preserve" font-family="Palatino-Roman,Palatino" font-size="40.0" fill="#000000" transform="matrix(1.00, 0.00, -0.00, -1.00, 618.0, 551.5)">m</text><text xml:space="preserve" font-family="Palatino-Roman,Palatino" font-size="40.0" fill="#000000" transform="matrix(1.00, 0.00, -0.00, -1.00, 653.3, 551.5)">e</text><text xml:space="preserve" font-family="Palatino-Roman,Palatino" font-size="40.0" fill="#000000" transform="matrix(1.00, 0.00, -0.00, -1.00, 672.5, 551.5)">n</text><text xml:space="preserve" font-family="Palatino-Roman,Palatino" font-size="40.0" fill="#000000" transform="matrix(1.00, 0.00, -0.00, -1.00, 695.8, 551.5)">:</text><text xml:space="preserve" font-family="Palatino-Italic,Palatino" font-style="italic" font-size="40.0" fill="#000000" transform="matrix(1.00, 0.00, -0.00, -1.00, 158.5, 483.5)">i</text><text xml:space="preserve" font-family="Palatino-Italic,Palatino" font-style="italic" font-size="40.0" fill="#000000" transform="matrix(1.00, 0.00, -0.00, -1.00, 169.6, 483.5)">s</text><text xml:space="preserve" font-family="Palatino-Italic,Palatino" font-style="italic" font-size="40.0" fill="#000000" transform="matrix(1.00, 0.00, -0.00, -1.00, 185.2, 483.5)">,</text><text xml:space="preserve" font-family="Palatino-Italic,Palatino" font-style="italic" font-size="40.0" fill="#000000" transform="matrix(1.00, 0.00, -0.00, -1.00, 195.2, 483.5)"> </text><text xml:space="preserve" font-family="Palatino-Italic,Palatino" font-style="italic" font-size="40.0" fill="#000000" transform="matrix(1.00, 0.00, -0.00, -1.00, 205.2, 483.5)">e</text><text xml:space="preserve" font-family="Palatino-Italic,Palatino" font-style="italic" font-size="40.0" fill="#000000" transform="matrix(1.00, 0.00, -0.00, -1.00, 220.8, 483.5)">a</text><text xml:space="preserve" font-family="Palatino-Italic,Palatino" font-style="italic" font-size="40.0" fill="#000000" transform="matrix(1.00, 0.00, -0.00, -1.00, 238.5, 483.5)">,</text><text xml:space="preserve" font-family="Palatino-Italic,Palatino" font-style="italic" font-size="40.0" fill="#000000" transform="matrix(1.00, 0.00, -0.00, -1.00, 248.5, 483.5)"> </text><text xml:space="preserve" font-family="Palatino-Italic,Palatino" font-style="italic" font-size="40.0" fill="#000000" transform="matrix(1.00, 0.00, -0.00, -1.00, 258.5, 483.5)">i</text><text xml:space="preserve" font-family="Palatino-Italic,Palatino" font-style="italic" font-size="40.0" fill="#000000" transform="matrix(1.00, 0.00, -0.00, -1.00, 269.6, 483.5)">d</text><text xml:space="preserve" font-family="Palatino-Roman,Palatino" font-size="40.0" fill="#000000" transform="matrix(1.00, 0.00, -0.00, -1.00, 508.5, 483.5)">h</text><text xml:space="preserve" font-family="Palatino-Roman,Palatino" font-size="40.0" fill="#000000" transform="matrix(1.00, 0.00, -0.00, -1.00, 531.8, 483.5)">a</text><text xml:space="preserve" font-family="Palatino-Roman,Palatino" font-size="40.0" fill="#000000" transform="matrix(1.00, 0.00, -0.00, -1.00, 551.8, 483.5)">n</text><text xml:space="preserve" font-family="Palatino-Roman,Palatino" font-size="40.0" fill="#000000" transform="matrix(1.00, 0.00, -0.00, -1.00, 575.1, 483.5)">,</text><text xml:space="preserve" font-family="Palatino-Roman,Palatino" font-size="40.0" fill="#000000" transform="matrix(1.00, 0.00, -0.00, -1.00, 585.1, 483.5)"> </text><text xml:space="preserve" font-family="Palatino-Roman,Palatino" font-size="40.0" fill="#000000" transform="matrix(1.00, 0.00, -0.00, -1.00, 595.1, 483.5)">h</text><text xml:space="preserve" font-family="Palatino-Roman,Palatino" font-size="40.0" fill="#000000" transform="matrix(1.00, 0.00, -0.00, -1.00, 618.4, 483.5)">o</text><text xml:space="preserve" font-family="Palatino-Roman,Palatino" font-size="40.0" fill="#000000" transform="matrix(1.00, 0.00, -0.00, -1.00, 640.2, 483.5)">n</text><text xml:space="preserve" font-family="Palatino-Roman,Palatino" font-size="40.0" fill="#000000" transform="matrix(1.00, 0.00, -0.00, -1.00, 663.5, 483.5)">,</text><text xml:space="preserve" font-family="Palatino-Roman,Palatino" font-size="40.0" fill="#000000" transform="matrix(1.00, 0.00, -0.00, -1.00, 673.5, 483.5)"> </text><text xml:space="preserve" font-family="Palatino-Roman,Palatino" font-size="40.0" fill="#000000" transform="matrix(1.00, 0.00, -0.00, -1.00, 683.5, 483.5)">d</text><text xml:space="preserve" font-family="Palatino-Roman,Palatino" font-size="40.0" fill="#000000" transform="matrix(1.00, 0.00, -0.00, -1.00, 707.9, 483.5)">e</text><text xml:space="preserve" font-family="Palatino-Roman,Palatino" font-size="40.0" fill="#000000" transform="matrix(1.00, 0.00, -0.00, -1.00, 727.1, 483.5)">n</text><text xml:space="preserve" font-family="Palatino-Roman,Palatino" font-size="40.0" fill="#000000" transform="matrix(1.00, 0.00, -0.00, -1.00, 750.3, 483.5)">,</text><text xml:space="preserve" font-family="Palatino-Roman,Palatino" font-size="40.0" fill="#000000" transform="matrix(1.00, 0.00, -0.00, -1.00, 760.3, 483.5)"> </text><text xml:space="preserve" font-family="Palatino-Roman,Palatino" font-size="40.0" fill="#000000" transform="matrix(1.00, 0.00, -0.00, -1.00, 770.3, 483.5)">d</text><text xml:space="preserve" font-family="Palatino-Roman,Palatino" font-size="40.0" fill="#000000" transform="matrix(1.00, 0.00, -0.00, -1.00, 794.8, 483.5)">e</text><text xml:space="preserve" font-family="Palatino-Roman,Palatino" font-size="40.0" fill="#000000" transform="matrix(1.00, 0.00, -0.00, -1.00, 813.9, 483.5)">n</text><text xml:space="preserve" font-family="Palatino-Roman,Palatino" font-size="40.0" fill="#000000" transform="matrix(1.00, 0.00, -0.00, -1.00, 837.2, 483.5)">n</text><text xml:space="preserve" font-family="Palatino-Roman,Palatino" font-size="40.0" fill="#000000" transform="matrix(1.00, 0.00, -0.00, -1.00, 860.5, 483.5)">a</text><text xml:space="preserve" font-family="Palatino-Italic,Palatino" font-style="italic" font-size="40.0" fill="#000000" transform="matrix(1.00, 0.00, -0.00, -1.00, 158.5, 415.5)">i</text><text xml:space="preserve" font-family="Palatino-Italic,Palatino" font-style="italic" font-size="40.0" fill="#000000" transform="matrix(1.00, 0.00, -0.00, -1.00, 169.6, 415.5)">d</text><text xml:space="preserve" font-family="Palatino-Italic,Palatino" font-style="italic" font-size="40.0" fill="#000000" transform="matrix(1.00, 0.00, -0.00, -1.00, 189.6, 415.5)">e</text><text xml:space="preserve" font-family="Palatino-Italic,Palatino" font-style="italic" font-size="40.0" fill="#000000" transform="matrix(1.00, 0.00, -0.00, -1.00, 205.2, 415.5)">m</text><text xml:space="preserve" font-family="Palatino-Italic,Palatino" font-style="italic" font-size="40.0" fill="#000000" transform="matrix(1.00, 0.00, -0.00, -1.00, 236.3, 415.5)">,</text><text xml:space="preserve" font-family="Palatino-Italic,Palatino" font-style="italic" font-size="40.0" fill="#000000" transform="matrix(1.00, 0.00, -0.00, -1.00, 246.3, 415.5)"> </text><text xml:space="preserve" font-family="Palatino-Italic,Palatino" font-style="italic" font-size="40.0" fill="#000000" transform="matrix(1.00, 0.00, -0.00, -1.00, 256.3, 415.5)">e</text><text xml:space="preserve" font-family="Palatino-Italic,Palatino" font-style="italic" font-size="40.0" fill="#000000" transform="matrix(1.00, 0.00, -0.00, -1.00, 271.9, 415.5)">a</text><text xml:space="preserve" font-family="Palatino-Italic,Palatino" font-style="italic" font-size="40.0" fill="#000000" transform="matrix(1.00, 0.00, -0.00, -1.00, 289.6, 415.5)">d</text><text xml:space="preserve" font-family="Palatino-Italic,Palatino" font-style="italic" font-size="40.0" fill="#000000" transform="matrix(1.00, 0.00, -0.00, -1.00, 309.6, 415.5)">e</text><text xml:space="preserve" font-family="Palatino-Italic,Palatino" font-style="italic" font-size="40.0" fill="#000000" transform="matrix(1.00, 0.00, -0.00, -1.00, 325.2, 415.5)">m</text><text xml:space="preserve" font-family="Palatino-Italic,Palatino" font-style="italic" font-size="40.0" fill="#000000" transform="matrix(1.00, 0.00, -0.00, -1.00, 356.3, 415.5)">,</text><text xml:space="preserve" font-family="Palatino-Italic,Palatino" font-style="italic" font-size="40.0" fill="#000000" transform="matrix(1.00, 0.00, -0.00, -1.00, 366.3, 415.5)"> </text><text xml:space="preserve" font-family="Palatino-Italic,Palatino" font-style="italic" font-size="40.0" fill="#000000" transform="matrix(1.00, 0.00, -0.00, -1.00, 376.3, 415.5)">i</text><text xml:space="preserve" font-family="Palatino-Italic,Palatino" font-style="italic" font-size="40.0" fill="#000000" transform="matrix(1.00, 0.00, -0.00, -1.00, 387.4, 415.5)">d</text><text xml:space="preserve" font-family="Palatino-Italic,Palatino" font-style="italic" font-size="40.0" fill="#000000" transform="matrix(1.00, 0.00, -0.00, -1.00, 407.4, 415.5)">e</text><text xml:space="preserve" font-family="Palatino-Italic,Palatino" font-style="italic" font-size="40.0" fill="#000000" transform="matrix(1.00, 0.00, -0.00, -1.00, 423.0, 415.5)">m</text><text xml:space="preserve" font-family="Palatino-Roman,Palatino" font-size="40.0" fill="#000000" transform="matrix(1.00, 0.00, -0.00, -1.00, 508.5, 415.5)">s</text><text xml:space="preserve" font-family="Palatino-Roman,Palatino" font-size="40.0" fill="#000000" transform="matrix(1.00, 0.00, -0.00, -1.00, 525.5, 415.5)">a</text><text xml:space="preserve" font-family="Palatino-Roman,Palatino" font-size="40.0" fill="#000000" transform="matrix(1.00, 0.00, -0.00, -1.00, 545.5, 415.5)">m</text><text xml:space="preserve" font-family="Palatino-Roman,Palatino" font-size="40.0" fill="#000000" transform="matrix(1.00, 0.00, -0.00, -1.00, 580.8, 415.5)">m</text><text xml:space="preserve" font-family="Palatino-Roman,Palatino" font-size="40.0" fill="#000000" transform="matrix(1.00, 0.00, -0.00, -1.00, 616.1, 415.5)">a</text><text xml:space="preserve" font-family="Palatino-Roman,Palatino" font-size="40.0" fill="#000000" transform="matrix(1.00, 0.00, -0.00, -1.00, 212.5, 347.5)">b</text><text xml:space="preserve" font-family="Palatino-Roman,Palatino" font-size="40.0" fill="#000000" transform="matrix(1.00, 0.00, -0.00, -1.00, 234.7, 347.5)">ö</text><text xml:space="preserve" font-family="Palatino-Roman,Palatino" font-size="40.0" fill="#000000" transform="matrix(1.00, 0.00, -0.00, -1.00, 256.5, 347.5)">j</text><text xml:space="preserve" font-family="Palatino-Roman,Palatino" font-size="40.0" fill="#000000" transform="matrix(1.00, 0.00, -0.00, -1.00, 265.8, 347.5)">s</text><text xml:space="preserve" font-family="Palatino-Roman,Palatino" font-size="40.0" fill="#000000" transform="matrix(1.00, 0.00, -0.00, -1.00, 282.8, 347.5)"> </text><text xml:space="preserve" font-family="Palatino-Roman,Palatino" font-size="40.0" fill="#000000" transform="matrix(1.00, 0.00, -0.00, -1.00, 292.8, 347.5)">s</text><text xml:space="preserve" font-family="Palatino-Roman,Palatino" font-size="40.0" fill="#000000" transform="matrix(1.00, 0.00, -0.00, -1.00, 309.7, 347.5)">o</text><text xml:space="preserve" font-family="Palatino-Roman,Palatino" font-size="40.0" fill="#000000" transform="matrix(1.00, 0.00, -0.00, -1.00, 331.6, 347.5)">m</text><text xml:space="preserve" font-family="Palatino-Roman,Palatino" font-size="40.0" fill="#000000" transform="matrix(1.00, 0.00, -0.00, -1.00, 366.9, 347.5)"> </text><text xml:space="preserve" font-family="Palatino-Italic,Palatino" font-style="italic" font-size="40.0" fill="#000000" transform="matrix(1.00, 0.00, -0.00, -1.00, 396.9, 347.5)">i</text><text xml:space="preserve" font-family="Palatino-Italic,Palatino" font-style="italic" font-size="40.0" fill="#000000" transform="matrix(1.00, 0.00, -0.00, -1.00, 408.0, 347.5)">s</text><text xml:space="preserve" font-family="Palatino-Italic,Palatino" font-style="italic" font-size="40.0" fill="#000000" transform="matrix(1.00, 0.00, -0.00, -1.00, 423.6, 347.5)">,</text><text xml:space="preserve" font-family="Palatino-Italic,Palatino" font-style="italic" font-size="40.0" fill="#000000" transform="matrix(1.00, 0.00, -0.00, -1.00, 433.6, 347.5)"> </text><text xml:space="preserve" font-family="Palatino-Italic,Palatino" font-style="italic" font-size="40.0" fill="#000000" transform="matrix(1.00, 0.00, -0.00, -1.00, 443.6, 347.5)">e</text><text xml:space="preserve" font-family="Palatino-Italic,Palatino" font-style="italic" font-size="40.0" fill="#000000" transform="matrix(1.00, 0.00, -0.00, -1.00, 459.2, 347.5)">a</text><text xml:space="preserve" font-family="Palatino-Italic,Palatino" font-style="italic" font-size="40.0" fill="#000000" transform="matrix(1.00, 0.00, -0.00, -1.00, 476.9, 347.5)">,</text><text xml:space="preserve" font-family="Palatino-Italic,Palatino" font-style="italic" font-size="40.0" fill="#000000" transform="matrix(1.00, 0.00, -0.00, -1.00, 486.9, 347.5)"> </text><text xml:space="preserve" font-family="Palatino-Italic,Palatino" font-style="italic" font-size="40.0" fill="#000000" transform="matrix(1.00, 0.00, -0.00, -1.00, 496.9, 347.5)">i</text><text xml:space="preserve" font-family="Palatino-Italic,Palatino" font-style="italic" font-size="40.0" fill="#000000" transform="matrix(1.00, 0.00, -0.00, -1.00, 508.0, 347.5)">d</text><text xml:space="preserve" font-family="Palatino-Italic,Palatino" font-style="italic" font-size="40.0" fill="#000000" transform="matrix(1.00, 0.00, -0.00, -1.00, 528.0, 347.5)"> </text><text xml:space="preserve" font-family="Palatino-Roman,Palatino" font-size="40.0" fill="#000000" transform="matrix(1.00, 0.00, -0.00, -1.00, 538.0, 347.5)">m</text><text xml:space="preserve" font-family="Palatino-Roman,Palatino" font-size="40.0" fill="#000000" transform="matrix(1.00, 0.00, -0.00, -1.00, 573.3, 347.5)">e</text><text xml:space="preserve" font-family="Palatino-Roman,Palatino" font-size="40.0" fill="#000000" transform="matrix(1.00, 0.00, -0.00, -1.00, 592.5, 347.5)">d</text><text xml:space="preserve" font-family="Palatino-Italic,Palatino" font-style="italic" font-size="40.0" fill="#000000" transform="matrix(1.00, 0.00, -0.00, -1.00, 616.9, 347.5)"> </text><text xml:space="preserve" font-family="Palatino-Italic,Palatino" font-style="italic" font-size="40.0" fill="#000000" transform="matrix(1.00, 0.00, -0.00, -1.00, 626.9, 347.5)">-</text><text xml:space="preserve" font-family="Palatino-Italic,Palatino" font-style="italic" font-size="40.0" fill="#000000" transform="matrix(1.00, 0.00, -0.00, -1.00, 640.2, 347.5)">d</text><text xml:space="preserve" font-family="Palatino-Italic,Palatino" font-style="italic" font-size="40.0" fill="#000000" transform="matrix(1.00, 0.00, -0.00, -1.00, 660.2, 347.5)">e</text><text xml:space="preserve" font-family="Palatino-Italic,Palatino" font-style="italic" font-size="40.0" fill="#000000" transform="matrix(1.00, 0.00, -0.00, -1.00, 675.8, 347.5)">m</text><text xml:space="preserve" font-family="Palatino-Italic,Palatino" font-style="italic" font-size="40.0" fill="#000000" transform="matrix(1.00, 0.00, -0.00, -1.00, 706.9, 347.5)"> </text><text xml:space="preserve" font-family="Palatino-Roman,Palatino" font-size="40.0" fill="#000000" transform="matrix(1.00, 0.00, -0.00, -1.00, 716.9, 347.5)">i</text><text xml:space="preserve" font-family="Palatino-Roman,Palatino" font-size="40.0" fill="#000000" transform="matrix(1.00, 0.00, -0.00, -1.00, 728.6, 347.5)"> </text><text xml:space="preserve" font-family="Palatino-Roman,Palatino" font-size="40.0" fill="#000000" transform="matrix(1.00, 0.00, -0.00, -1.00, 738.6, 347.5)">s</text><text xml:space="preserve" font-family="Palatino-Roman,Palatino" font-size="40.0" fill="#000000" transform="matrix(1.00, 0.00, -0.00, -1.00, 755.5, 347.5)">l</text><text xml:space="preserve" font-family="Palatino-Roman,Palatino" font-size="40.0" fill="#000000" transform="matrix(1.00, 0.00, -0.00, -1.00, 767.1, 347.5)">u</text><text xml:space="preserve" font-family="Palatino-Roman,Palatino" font-size="40.0" fill="#000000" transform="matrix(1.00, 0.00, -0.00, -1.00, 791.3, 347.5)">t</text><text xml:space="preserve" font-family="Palatino-Roman,Palatino" font-size="40.0" fill="#000000" transform="matrix(1.00, 0.00, -0.00, -1.00, 804.3, 347.5)">e</text><text xml:space="preserve" font-family="Palatino-Roman,Palatino" font-size="40.0" fill="#000000" transform="matrix(1.00, 0.00, -0.00, -1.00, 823.5, 347.5)">t</text><text xml:space="preserve" font-family="Palatino-Italic,Palatino" font-style="italic" font-size="40.0" fill="#000000" transform="matrix(1.00, 0.00, -0.00, -1.00, 158.5, 279.5)">h</text><text xml:space="preserve" font-family="Palatino-Italic,Palatino" font-style="italic" font-size="40.0" fill="#000000" transform="matrix(1.00, 0.00, -0.00, -1.00, 178.5, 279.5)">i</text><text xml:space="preserve" font-family="Palatino-Italic,Palatino" font-style="italic" font-size="40.0" fill="#000000" transform="matrix(1.00, 0.00, -0.00, -1.00, 189.6, 279.5)">c</text><text xml:space="preserve" font-family="Palatino-Italic,Palatino" font-style="italic" font-size="40.0" fill="#000000" transform="matrix(1.00, 0.00, -0.00, -1.00, 205.9, 279.5)">,</text><text xml:space="preserve" font-family="Palatino-Italic,Palatino" font-style="italic" font-size="40.0" fill="#000000" transform="matrix(1.00, 0.00, -0.00, -1.00, 215.9, 279.5)"> </text><text xml:space="preserve" font-family="Palatino-Italic,Palatino" font-style="italic" font-size="40.0" fill="#000000" transform="matrix(1.00, 0.00, -0.00, -1.00, 225.9, 279.5)">h</text><text xml:space="preserve" font-family="Palatino-Italic,Palatino" font-style="italic" font-size="40.0" fill="#000000" transform="matrix(1.00, 0.00, -0.00, -1.00, 245.9, 279.5)">a</text><text xml:space="preserve" font-family="Palatino-Italic,Palatino" font-style="italic" font-size="40.0" fill="#000000" transform="matrix(1.00, 0.00, -0.00, -1.00, 263.7, 279.5)">e</text><text xml:space="preserve" font-family="Palatino-Italic,Palatino" font-style="italic" font-size="40.0" fill="#000000" transform="matrix(1.00, 0.00, -0.00, -1.00, 279.2, 279.5)">c</text><text xml:space="preserve" font-family="Palatino-Italic,Palatino" font-style="italic" font-size="40.0" fill="#000000" transform="matrix(1.00, 0.00, -0.00, -1.00, 295.5, 279.5)">,</text><text xml:space="preserve" font-family="Palatino-Italic,Palatino" font-style="italic" font-size="40.0" fill="#000000" transform="matrix(1.00, 0.00, -0.00, -1.00, 305.5, 279.5)"> </text><text xml:space="preserve" font-family="Palatino-Italic,Palatino" font-style="italic" font-size="40.0" fill="#000000" transform="matrix(1.00, 0.00, -0.00, -1.00, 315.5, 279.5)">h</text><text xml:space="preserve" font-family="Palatino-Italic,Palatino" font-style="italic" font-size="40.0" fill="#000000" transform="matrix(1.00, 0.00, -0.00, -1.00, 335.5, 279.5)">o</text><text xml:space="preserve" font-family="Palatino-Italic,Palatino" font-style="italic" font-size="40.0" fill="#000000" transform="matrix(1.00, 0.00, -0.00, -1.00, 353.3, 279.5)">c</text><text xml:space="preserve" font-family="Palatino-Roman,Palatino" font-size="40.0" fill="#000000" transform="matrix(1.00, 0.00, -0.00, -1.00, 508.5, 279.5)">d</text><text xml:space="preserve" font-family="Palatino-Roman,Palatino" font-size="40.0" fill="#000000" transform="matrix(1.00, 0.00, -0.00, -1.00, 533.0, 279.5)">e</text><text xml:space="preserve" font-family="Palatino-Roman,Palatino" font-size="40.0" fill="#000000" transform="matrix(1.00, 0.00, -0.00, -1.00, 552.1, 279.5)">n</text><text xml:space="preserve" font-family="Palatino-Roman,Palatino" font-size="40.0" fill="#000000" transform="matrix(1.00, 0.00, -0.00, -1.00, 575.4, 279.5)"> </text><text xml:space="preserve" font-family="Palatino-Roman,Palatino" font-size="40.0" fill="#000000" transform="matrix(1.00, 0.00, -0.00, -1.00, 585.4, 279.5)">h</text><text xml:space="preserve" font-family="Palatino-Roman,Palatino" font-size="40.0" fill="#000000" transform="matrix(1.00, 0.00, -0.00, -1.00, 608.7, 279.5)">ä</text><text xml:space="preserve" font-family="Palatino-Roman,Palatino" font-size="40.0" fill="#000000" transform="matrix(1.00, 0.00, -0.00, -1.00, 628.7, 279.5)">r</text><text xml:space="preserve" font-family="Palatino-Roman,Palatino" font-size="40.0" fill="#000000" transform="matrix(1.00, 0.00, -0.00, -1.00, 641.5, 279.5)">,</text><text xml:space="preserve" font-family="Palatino-Roman,Palatino" font-size="40.0" fill="#000000" transform="matrix(1.00, 0.00, -0.00, -1.00, 651.5, 279.5)"> </text><text xml:space="preserve" font-family="Palatino-Roman,Palatino" font-size="40.0" fill="#000000" transform="matrix(1.00, 0.00, -0.00, -1.00, 661.5, 279.5)">d</text><text xml:space="preserve" font-family="Palatino-Roman,Palatino" font-size="40.0" fill="#000000" transform="matrix(1.00, 0.00, -0.00, -1.00, 686.0, 279.5)">e</text><text xml:space="preserve" font-family="Palatino-Roman,Palatino" font-size="40.0" fill="#000000" transform="matrix(1.00, 0.00, -0.00, -1.00, 705.1, 279.5)">n</text><text xml:space="preserve" font-family="Palatino-Roman,Palatino" font-size="40.0" fill="#000000" transform="matrix(1.00, 0.00, -0.00, -1.00, 728.4, 279.5)">n</text><text xml:space="preserve" font-family="Palatino-Roman,Palatino" font-size="40.0" fill="#000000" transform="matrix(1.00, 0.00, -0.00, -1.00, 751.7, 279.5)">a</text><text xml:space="preserve" font-family="Palatino-Italic,Palatino" font-style="italic" font-size="40.0" fill="#000000" transform="matrix(1.00, 0.00, -0.00, -1.00, 158.5, 211.5)">i</text><text xml:space="preserve" font-family="Palatino-Italic,Palatino" font-style="italic" font-size="40.0" fill="#000000" transform="matrix(1.00, 0.00, -0.00, -1.00, 169.6, 211.5)">l</text><text xml:space="preserve" font-family="Palatino-Italic,Palatino" font-style="italic" font-size="40.0" fill="#000000" transform="matrix(1.00, 0.00, -0.00, -1.00, 180.7, 211.5)">l</text><text xml:space="preserve" font-family="Palatino-Italic,Palatino" font-style="italic" font-size="40.0" fill="#000000" transform="matrix(1.00, 0.00, -0.00, -1.00, 191.8, 211.5)">e</text><text xml:space="preserve" font-family="Palatino-Italic,Palatino" font-style="italic" font-size="40.0" fill="#000000" transform="matrix(1.00, 0.00, -0.00, -1.00, 207.4, 211.5)">,</text><text xml:space="preserve" font-family="Palatino-Italic,Palatino" font-style="italic" font-size="40.0" fill="#000000" transform="matrix(1.00, 0.00, -0.00, -1.00, 217.4, 211.5)"> </text><text xml:space="preserve" font-family="Palatino-Italic,Palatino" font-style="italic" font-size="40.0" fill="#000000" transform="matrix(1.00, 0.00, -0.00, -1.00, 227.4, 211.5)">i</text><text xml:space="preserve" font-family="Palatino-Italic,Palatino" font-style="italic" font-size="40.0" fill="#000000" transform="matrix(1.00, 0.00, -0.00, -1.00, 238.5, 211.5)">l</text><text xml:space="preserve" font-family="Palatino-Italic,Palatino" font-style="italic" font-size="40.0" fill="#000000" transform="matrix(1.00, 0.00, -0.00, -1.00, 249.6, 211.5)">l</text><text xml:space="preserve" font-family="Palatino-Italic,Palatino" font-style="italic" font-size="40.0" fill="#000000" transform="matrix(1.00, 0.00, -0.00, -1.00, 260.7, 211.5)">a</text><text xml:space="preserve" font-family="Palatino-Italic,Palatino" font-style="italic" font-size="40.0" fill="#000000" transform="matrix(1.00, 0.00, -0.00, -1.00, 278.5, 211.5)">,</text><text xml:space="preserve" font-family="Palatino-Italic,Palatino" font-style="italic" font-size="40.0" fill="#000000" transform="matrix(1.00, 0.00, -0.00, -1.00, 288.5, 211.5)"> </text><text xml:space="preserve" font-family="Palatino-Italic,Palatino" font-style="italic" font-size="40.0" fill="#000000" transform="matrix(1.00, 0.00, -0.00, -1.00, 298.5, 211.5)">i</text><text xml:space="preserve" font-family="Palatino-Italic,Palatino" font-style="italic" font-size="40.0" fill="#000000" transform="matrix(1.00, 0.00, -0.00, -1.00, 309.6, 211.5)">l</text><text xml:space="preserve" font-family="Palatino-Italic,Palatino" font-style="italic" font-size="40.0" fill="#000000" transform="matrix(1.00, 0.00, -0.00, -1.00, 320.7, 211.5)">l</text><text xml:space="preserve" font-family="Palatino-Italic,Palatino" font-style="italic" font-size="40.0" fill="#000000" transform="matrix(1.00, 0.00, -0.00, -1.00, 331.8, 211.5)">u</text><text xml:space="preserve" font-family="Palatino-Italic,Palatino" font-style="italic" font-size="40.0" fill="#000000" transform="matrix(1.00, 0.00, -0.00, -1.00, 354.0, 211.5)">d</text><text xml:space="preserve" font-family="Palatino-Roman,Palatino" font-size="40.0" fill="#000000" transform="matrix(1.00, 0.00, -0.00, -1.00, 508.5, 211.5)">d</text><text xml:space="preserve" font-family="Palatino-Roman,Palatino" font-size="40.0" fill="#000000" transform="matrix(1.00, 0.00, -0.00, -1.00, 533.0, 211.5)">e</text><text xml:space="preserve" font-family="Palatino-Roman,Palatino" font-size="40.0" fill="#000000" transform="matrix(1.00, 0.00, -0.00, -1.00, 552.1, 211.5)">n</text><text xml:space="preserve" font-family="Palatino-Roman,Palatino" font-size="40.0" fill="#000000" transform="matrix(1.00, 0.00, -0.00, -1.00, 575.4, 211.5)"> </text><text xml:space="preserve" font-family="Palatino-Roman,Palatino" font-size="40.0" fill="#000000" transform="matrix(1.00, 0.00, -0.00, -1.00, 585.4, 211.5)">d</text><text xml:space="preserve" font-family="Palatino-Roman,Palatino" font-size="40.0" fill="#000000" transform="matrix(1.00, 0.00, -0.00, -1.00, 609.8, 211.5)">ä</text><text xml:space="preserve" font-family="Palatino-Roman,Palatino" font-size="40.0" fill="#000000" transform="matrix(1.00, 0.00, -0.00, -1.00, 629.8, 211.5)">r</text><text xml:space="preserve" font-family="Palatino-Roman,Palatino" font-size="40.0" fill="#000000" transform="matrix(1.00, 0.00, -0.00, -1.00, 642.7, 211.5)">,</text><text xml:space="preserve" font-family="Palatino-Roman,Palatino" font-size="40.0" fill="#000000" transform="matrix(1.00, 0.00, -0.00, -1.00, 652.7, 211.5)"> </text><text xml:space="preserve" font-family="Palatino-Roman,Palatino" font-size="40.0" fill="#000000" transform="matrix(1.00, 0.00, -0.00, -1.00, 662.7, 211.5)">d</text><text xml:space="preserve" font-family="Palatino-Roman,Palatino" font-size="40.0" fill="#000000" transform="matrix(1.00, 0.00, -0.00, -1.00, 687.1, 211.5)">e</text><text xml:space="preserve" font-family="Palatino-Roman,Palatino" font-size="40.0" fill="#000000" transform="matrix(1.00, 0.00, -0.00, -1.00, 706.3, 211.5)">n</text><text xml:space="preserve" font-family="Palatino-Roman,Palatino" font-size="40.0" fill="#000000" transform="matrix(1.00, 0.00, -0.00, -1.00, 729.5, 211.5)">n</text><text xml:space="preserve" font-family="Palatino-Roman,Palatino" font-size="40.0" fill="#000000" transform="matrix(1.00, 0.00, -0.00, -1.00, 752.8, 211.5)">a</text><text xml:space="preserve" font-family="Palatino-Italic,Palatino" font-style="italic" font-size="40.0" fill="#000000" transform="matrix(1.00, 0.00, -0.00, -1.00, 158.5, 143.5)">i</text><text xml:space="preserve" font-family="Palatino-Italic,Palatino" font-style="italic" font-size="40.0" fill="#000000" transform="matrix(1.00, 0.00, -0.00, -1.00, 169.6, 143.5)">p</text><text xml:space="preserve" font-family="Palatino-Italic,Palatino" font-style="italic" font-size="40.0" fill="#000000" transform="matrix(1.00, 0.00, -0.00, -1.00, 189.6, 143.5)">s</text><text xml:space="preserve" font-family="Palatino-Italic,Palatino" font-style="italic" font-size="40.0" fill="#000000" transform="matrix(1.00, 0.00, -0.00, -1.00, 205.2, 143.5)">e</text><text xml:space="preserve" font-family="Palatino-Italic,Palatino" font-style="italic" font-size="40.0" fill="#000000" transform="matrix(1.00, 0.00, -0.00, -1.00, 220.8, 143.5)">,</text><text xml:space="preserve" font-family="Palatino-Italic,Palatino" font-style="italic" font-size="40.0" fill="#000000" transform="matrix(1.00, 0.00, -0.00, -1.00, 230.8, 143.5)"> </text><text xml:space="preserve" font-family="Palatino-Italic,Palatino" font-style="italic" font-size="40.0" fill="#000000" transform="matrix(1.00, 0.00, -0.00, -1.00, 240.8, 143.5)">i</text><text xml:space="preserve" font-family="Palatino-Italic,Palatino" font-style="italic" font-size="40.0" fill="#000000" transform="matrix(1.00, 0.00, -0.00, -1.00, 251.9, 143.5)">p</text><text xml:space="preserve" font-family="Palatino-Italic,Palatino" font-style="italic" font-size="40.0" fill="#000000" transform="matrix(1.00, 0.00, -0.00, -1.00, 271.9, 143.5)">s</text><text xml:space="preserve" font-family="Palatino-Italic,Palatino" font-style="italic" font-size="40.0" fill="#000000" transform="matrix(1.00, 0.00, -0.00, -1.00, 287.5, 143.5)">a</text><text xml:space="preserve" font-family="Palatino-Italic,Palatino" font-style="italic" font-size="40.0" fill="#000000" transform="matrix(1.00, 0.00, -0.00, -1.00, 305.2, 143.5)">,</text><text xml:space="preserve" font-family="Palatino-Italic,Palatino" font-style="italic" font-size="40.0" fill="#000000" transform="matrix(1.00, 0.00, -0.00, -1.00, 315.2, 143.5)"> </text><text xml:space="preserve" font-family="Palatino-Italic,Palatino" font-style="italic" font-size="40.0" fill="#000000" transform="matrix(1.00, 0.00, -0.00, -1.00, 325.2, 143.5)">i</text><text xml:space="preserve" font-family="Palatino-Italic,Palatino" font-style="italic" font-size="40.0" fill="#000000" transform="matrix(1.00, 0.00, -0.00, -1.00, 336.3, 143.5)">p</text><text xml:space="preserve" font-family="Palatino-Italic,Palatino" font-style="italic" font-size="40.0" fill="#000000" transform="matrix(1.00, 0.00, -0.00, -1.00, 356.3, 143.5)">s</text><text xml:space="preserve" font-family="Palatino-Italic,Palatino" font-style="italic" font-size="40.0" fill="#000000" transform="matrix(1.00, 0.00, -0.00, -1.00, 371.9, 143.5)">u</text><text xml:space="preserve" font-family="Palatino-Italic,Palatino" font-style="italic" font-size="40.0" fill="#000000" transform="matrix(1.00, 0.00, -0.00, -1.00, 394.1, 143.5)">m</text><text xml:space="preserve" font-family="Palatino-Roman,Palatino" font-size="40.0" fill="#000000" transform="matrix(1.00, 0.00, -0.00, -1.00, 508.5, 143.5)">s</text><text xml:space="preserve" font-family="Palatino-Roman,Palatino" font-size="40.0" fill="#000000" transform="matrix(1.00, 0.00, -0.00, -1.00, 525.5, 143.5)">j</text><text xml:space="preserve" font-family="Palatino-Roman,Palatino" font-size="40.0" fill="#000000" transform="matrix(1.00, 0.00, -0.00, -1.00, 534.8, 143.5)">ä</text><text xml:space="preserve" font-family="Palatino-Roman,Palatino" font-size="40.0" fill="#000000" transform="matrix(1.00, 0.00, -0.00, -1.00, 554.8, 143.5)">l</text><text xml:space="preserve" font-family="Palatino-Roman,Palatino" font-size="40.0" fill="#000000" transform="matrix(1.00, 0.00, -0.00, -1.00, 566.5, 143.5)">v</text><text xml:space="preserve" font-family="Palatino-Roman,Palatino" font-size="40.0" fill="#000000" transform="matrix(1.00, 0.00, -0.00, -1.00, 212.5, 75.5)">b</text><text xml:space="preserve" font-family="Palatino-Roman,Palatino" font-size="40.0" fill="#000000" transform="matrix(1.00, 0.00, -0.00, -1.00, 234.7, 75.5)">ö</text><text xml:space="preserve" font-family="Palatino-Roman,Palatino" font-size="40.0" fill="#000000" transform="matrix(1.00, 0.00, -0.00, -1.00, 256.5, 75.5)">j</text><text xml:space="preserve" font-family="Palatino-Roman,Palatino" font-size="40.0" fill="#000000" transform="matrix(1.00, 0.00, -0.00, -1.00, 265.8, 75.5)">s</text><text xml:space="preserve" font-family="Palatino-Roman,Palatino" font-size="40.0" fill="#000000" transform="matrix(1.00, 0.00, -0.00, -1.00, 282.8, 75.5)"> </text><text xml:space="preserve" font-family="Palatino-Roman,Palatino" font-size="40.0" fill="#000000" transform="matrix(1.00, 0.00, -0.00, -1.00, 292.8, 75.5)">s</text><text xml:space="preserve" font-family="Palatino-Roman,Palatino" font-size="40.0" fill="#000000" transform="matrix(1.00, 0.00, -0.00, -1.00, 309.7, 75.5)">o</text><text xml:space="preserve" font-family="Palatino-Roman,Palatino" font-size="40.0" fill="#000000" transform="matrix(1.00, 0.00, -0.00, -1.00, 331.6, 75.5)">m</text><text xml:space="preserve" font-family="Palatino-Roman,Palatino" font-size="40.0" fill="#000000" transform="matrix(1.00, 0.00, -0.00, -1.00, 366.9, 75.5)"> </text><text xml:space="preserve" font-family="Palatino-Italic,Palatino" font-style="italic" font-size="40.0" fill="#000000" transform="matrix(1.00, 0.00, -0.00, -1.00, 396.9, 75.5)">i</text><text xml:space="preserve" font-family="Palatino-Italic,Palatino" font-style="italic" font-size="40.0" fill="#000000" transform="matrix(1.00, 0.00, -0.00, -1.00, 408.0, 75.5)">l</text><text xml:space="preserve" font-family="Palatino-Italic,Palatino" font-style="italic" font-size="40.0" fill="#000000" transform="matrix(1.00, 0.00, -0.00, -1.00, 419.1, 75.5)">l</text><text xml:space="preserve" font-family="Palatino-Italic,Palatino" font-style="italic" font-size="40.0" fill="#000000" transform="matrix(1.00, 0.00, -0.00, -1.00, 430.2, 75.5)">e</text><text xml:space="preserve" font-family="Palatino-Italic,Palatino" font-style="italic" font-size="40.0" fill="#000000" transform="matrix(1.00, 0.00, -0.00, -1.00, 445.8, 75.5)">,</text><text xml:space="preserve" font-family="Palatino-Italic,Palatino" font-style="italic" font-size="40.0" fill="#000000" transform="matrix(1.00, 0.00, -0.00, -1.00, 455.8, 75.5)"> </text><text xml:space="preserve" font-family="Palatino-Italic,Palatino" font-style="italic" font-size="40.0" fill="#000000" transform="matrix(1.00, 0.00, -0.00, -1.00, 465.8, 75.5)">i</text><text xml:space="preserve" font-family="Palatino-Italic,Palatino" font-style="italic" font-size="40.0" fill="#000000" transform="matrix(1.00, 0.00, -0.00, -1.00, 476.9, 75.5)">l</text><text xml:space="preserve" font-family="Palatino-Italic,Palatino" font-style="italic" font-size="40.0" fill="#000000" transform="matrix(1.00, 0.00, -0.00, -1.00, 488.0, 75.5)">l</text><text xml:space="preserve" font-family="Palatino-Italic,Palatino" font-style="italic" font-size="40.0" fill="#000000" transform="matrix(1.00, 0.00, -0.00, -1.00, 499.1, 75.5)">a</text><text xml:space="preserve" font-family="Palatino-Italic,Palatino" font-style="italic" font-size="40.0" fill="#000000" transform="matrix(1.00, 0.00, -0.00, -1.00, 516.9, 75.5)">,</text><text xml:space="preserve" font-family="Palatino-Italic,Palatino" font-style="italic" font-size="40.0" fill="#000000" transform="matrix(1.00, 0.00, -0.00, -1.00, 526.9, 75.5)"> </text><text xml:space="preserve" font-family="Palatino-Italic,Palatino" font-style="italic" font-size="40.0" fill="#000000" transform="matrix(1.00, 0.00, -0.00, -1.00, 536.9, 75.5)">i</text><text xml:space="preserve" font-family="Palatino-Italic,Palatino" font-style="italic" font-size="40.0" fill="#000000" transform="matrix(1.00, 0.00, -0.00, -1.00, 548.0, 75.5)">l</text><text xml:space="preserve" font-family="Palatino-Italic,Palatino" font-style="italic" font-size="40.0" fill="#000000" transform="matrix(1.00, 0.00, -0.00, -1.00, 559.1, 75.5)">l</text><text xml:space="preserve" font-family="Palatino-Italic,Palatino" font-style="italic" font-size="40.0" fill="#000000" transform="matrix(1.00, 0.00, -0.00, -1.00, 570.2, 75.5)">u</text><text xml:space="preserve" font-family="Palatino-Italic,Palatino" font-style="italic" font-size="40.0" fill="#000000" transform="matrix(1.00, 0.00, -0.00, -1.00, 592.4, 75.5)">d</text><text xml:space="preserve" font-family="Palatino-Roman,Palatino" font-size="16.0" fill="#000000" transform="matrix(1.00, 0.00, -0.00, -1.00, 829.2, 29.4)">©</text><text xml:space="preserve" font-family="Palatino-Roman,Palatino" font-size="16.0" fill="#000000" transform="matrix(1.00, 0.00, -0.00, -1.00, 841.2, 29.4)"> </text><text xml:space="preserve" font-family="Palatino-Roman,Palatino" font-size="16.0" fill="#000000" transform="matrix(1.00, 0.00, -0.00, -1.00, 845.2, 29.4)">J</text><text xml:space="preserve" font-family="Palatino-Roman,Palatino" font-size="16.0" fill="#000000" transform="matrix(1.00, 0.00, -0.00, -1.00, 850.5, 29.4)">o</text><text xml:space="preserve" font-family="Palatino-Roman,Palatino" font-size="16.0" fill="#000000" transform="matrix(1.00, 0.00, -0.00, -1.00, 859.2, 29.4)">o</text><text xml:space="preserve" font-family="Palatino-Roman,Palatino" font-size="16.0" fill="#000000" transform="matrix(1.00, 0.00, -0.00, -1.00, 868.0, 29.4)">n</text><text xml:space="preserve" font-family="Palatino-Roman,Palatino" font-size="16.0" fill="#000000" transform="matrix(1.00, 0.00, -0.00, -1.00, 877.3, 29.4)">a</text><text xml:space="preserve" font-family="Palatino-Roman,Palatino" font-size="16.0" fill="#000000" transform="matrix(1.00, 0.00, -0.00, -1.00, 885.3, 29.4)">s</text><text xml:space="preserve" font-family="Palatino-Roman,Palatino" font-size="16.0" fill="#000000" transform="matrix(1.00, 0.00, -0.00, -1.00, 892.1, 29.4)"> </text><text xml:space="preserve" font-family="Palatino-Roman,Palatino" font-size="16.0" fill="#000000" transform="matrix(1.00, 0.00, -0.00, -1.00, 896.1, 29.4)">V</text><text xml:space="preserve" font-family="Palatino-Roman,Palatino" font-size="16.0" fill="#000000" transform="matrix(1.00, 0.00, -0.00, -1.00, 906.1, 29.4)">a</text><text xml:space="preserve" font-family="Palatino-Roman,Palatino" font-size="16.0" fill="#000000" transform="matrix(1.00, 0.00, -0.00, -1.00, 914.1, 29.4)">n</text><text xml:space="preserve" font-family="Palatino-Roman,Palatino" font-size="16.0" fill="#000000" transform="matrix(1.00, 0.00, -0.00, -1.00, 923.5, 29.4)">h</text><text xml:space="preserve" font-family="Palatino-Roman,Palatino" font-size="16.0" fill="#000000" transform="matrix(1.00, 0.00, -0.00, -1.00, 932.8, 29.4)">a</text><text xml:space="preserve" font-family="Palatino-Roman,Palatino" font-size="16.0" fill="#000000" transform="matrix(1.00, 0.00, -0.00, -1.00, 940.8, 29.4)">l</text><text xml:space="preserve" font-family="Palatino-Roman,Palatino" font-size="16.0" fill="#000000" transform="matrix(1.00, 0.00, -0.00, -1.00, 945.4, 29.4)">a</text><text xml:space="preserve" font-family="Palatino-Roman,Palatino" font-size="16.0" fill="#000000" transform="matrix(1.00, 0.00, -0.00, -1.00, 953.4, 29.4)"> </text><text xml:space="preserve" font-family="Palatino-Roman,Palatino" font-size="16.0" fill="#000000" transform="matrix(1.00, 0.00, -0.00, -1.00, 957.4, 29.4)">2</text><text xml:space="preserve" font-family="Palatino-Roman,Palatino" font-size="16.0" fill="#000000" transform="matrix(1.00, 0.00, -0.00, -1.00, 965.4, 29.4)">0</text><text xml:space="preserve" font-family="Palatino-Roman,Palatino" font-size="16.0" fill="#000000" transform="matrix(1.00, 0.00, -0.00, -1.00, 973.4, 29.4)">1</text><text xml:space="preserve" font-family="Palatino-Roman,Palatino" font-size="16.0" fill="#000000" transform="matrix(1.00, 0.00, -0.00, -1.00, 981.4, 29.4)">6</text><text xml:space="preserve" font-family="Palatino-Roman,Palatino" font-size="84.0" fill="#164E86" transform="matrix(1.00, 0.00, -0.00, -1.00, 70.4, 640.3)">D</text><text xml:space="preserve" font-family="Palatino-Roman,Palatino" font-size="84.0" fill="#164E86" transform="matrix(1.00, 0.00, -0.00, -1.00, 135.4, 640.3)">E</text><text xml:space="preserve" font-family="Palatino-Roman,Palatino" font-size="84.0" fill="#164E86" transform="matrix(1.00, 0.00, -0.00, -1.00, 186.7, 640.3)">M</text><text xml:space="preserve" font-family="Palatino-Roman,Palatino" font-size="84.0" fill="#164E86" transform="matrix(1.00, 0.00, -0.00, -1.00, 266.2, 640.3)">O</text><text xml:space="preserve" font-family="Palatino-Roman,Palatino" font-size="84.0" fill="#164E86" transform="matrix(1.00, 0.00, -0.00, -1.00, 332.2, 640.3)">N</text><text xml:space="preserve" font-family="Palatino-Roman,Palatino" font-size="84.0" fill="#164E86" transform="matrix(1.00, 0.00, -0.00, -1.00, 402.0, 640.3)">S</text><text xml:space="preserve" font-family="Palatino-Roman,Palatino" font-size="84.0" fill="#164E86" transform="matrix(1.00, 0.00, -0.00, -1.00, 446.1, 640.3)">T</text><text xml:space="preserve" font-family="Palatino-Roman,Palatino" font-size="84.0" fill="#164E86" transform="matrix(1.00, 0.00, -0.00, -1.00, 497.6, 640.3)">R</text><text xml:space="preserve" font-family="Palatino-Roman,Palatino" font-size="84.0" fill="#164E86" transform="matrix(1.00, 0.00, -0.00, -1.00, 553.7, 640.3)">A</text><text xml:space="preserve" font-family="Palatino-Roman,Palatino" font-size="84.0" fill="#164E86" transform="matrix(1.00, 0.00, -0.00, -1.00, 612.8, 640.3)">T</text><text xml:space="preserve" font-family="Palatino-Roman,Palatino" font-size="84.0" fill="#164E86" transform="matrix(1.00, 0.00, -0.00, -1.00, 664.3, 640.3)">I</text><text xml:space="preserve" font-family="Palatino-Roman,Palatino" font-size="84.0" fill="#164E86" transform="matrix(1.00, 0.00, -0.00, -1.00, 692.5, 640.3)">V</text><text xml:space="preserve" font-family="Palatino-Roman,Palatino" font-size="84.0" fill="#164E86" transform="matrix(1.00, 0.00, -0.00, -1.00, 743.9, 640.3)">A</text><text xml:space="preserve" font-family="Palatino-Roman,Palatino" font-size="84.0" fill="#164E86" transform="matrix(1.00, 0.00, -0.00, -1.00, 804.6, 640.3)"> </text><text xml:space="preserve" font-family="Palatino-Roman,Palatino" font-size="84.0" fill="#164E86" transform="matrix(1.00, 0.00, -0.00, -1.00, 825.6, 640.3)">P</text><text xml:space="preserve" font-family="Palatino-Roman,Palatino" font-size="84.0" fill="#164E86" transform="matrix(1.00, 0.00, -0.00, -1.00, 876.4, 640.3)">R</text><text xml:space="preserve" font-family="Palatino-Roman,Palatino" font-size="84.0" fill="#164E86" transform="matrix(1.00, 0.00, -0.00, -1.00, 932.5, 640.3)">.</text></g></svg>