<?xml version="1.0" encoding="UTF-8" standalone="no"?><svg xmlns="http://www.w3.org/2000/svg" xmlns:xlink="http://www.w3.org/1999/xlink" clip-rule="evenodd" stroke-miterlimit="10" viewBox="0 0 1024 768"><desc>SVG generated by Keynote</desc><defs></defs><g transform="matrix(1.00, 0.00, -0.00, -1.00, 0.0, 768.0)"><path d="M 0.0 768.0 L 1024.0 768.0 L 1024.0 0.0 L 0.0 0.0 Z M 0.0 768.0 " fill="#FEFFFF"></path><text xml:space="preserve" font-family="Palatino-Roman,Palatino" font-size="84.0" fill="#164E86" transform="matrix(1.00, 0.00, -0.00, -1.00, 98.4, 640.3)">P</text><text xml:space="preserve" font-family="Palatino-Roman,Palatino" font-size="84.0" fill="#164E86" transform="matrix(1.00, 0.00, -0.00, -1.00, 149.1, 640.3)">E</text><text xml:space="preserve" font-family="Palatino-Roman,Palatino" font-size="84.0" fill="#164E86" transform="matrix(1.00, 0.00, -0.00, -1.00, 200.4, 640.3)">R</text><text xml:space="preserve" font-family="Palatino-Roman,Palatino" font-size="84.0" fill="#164E86" transform="matrix(1.00, 0.00, -0.00, -1.00, 256.5, 640.3)">S</text><text xml:space="preserve" font-family="Palatino-Roman,Palatino" font-size="84.0" fill="#164E86" transform="matrix(1.00, 0.00, -0.00, -1.00, 300.6, 640.3)">O</text><text xml:space="preserve" font-family="Palatino-Roman,Palatino" font-size="84.0" fill="#164E86" transform="matrix(1.00, 0.00, -0.00, -1.00, 366.6, 640.3)">N</text><text xml:space="preserve" font-family="Palatino-Roman,Palatino" font-size="84.0" fill="#164E86" transform="matrix(1.00, 0.00, -0.00, -1.00, 436.5, 640.3)">L</text><text xml:space="preserve" font-family="Palatino-Roman,Palatino" font-size="84.0" fill="#164E86" transform="matrix(1.00, 0.00, -0.00, -1.00, 487.8, 640.3)">I</text><text xml:space="preserve" font-family="Palatino-Roman,Palatino" font-size="84.0" fill="#164E86" transform="matrix(1.00, 0.00, -0.00, -1.00, 516.0, 640.3)">G</text><text xml:space="preserve" font-family="Palatino-Roman,Palatino" font-size="84.0" fill="#164E86" transform="matrix(1.00, 0.00, -0.00, -1.00, 580.2, 640.3)">A</text><text xml:space="preserve" font-family="Palatino-Roman,Palatino" font-size="84.0" fill="#164E86" transform="matrix(1.00, 0.00, -0.00, -1.00, 640.9, 640.3)"> </text><text xml:space="preserve" font-family="Palatino-Roman,Palatino" font-size="84.0" fill="#164E86" transform="matrix(1.00, 0.00, -0.00, -1.00, 661.9, 640.3)">P</text><text xml:space="preserve" font-family="Palatino-Roman,Palatino" font-size="84.0" fill="#164E86" transform="matrix(1.00, 0.00, -0.00, -1.00, 712.6, 640.3)">R</text><text xml:space="preserve" font-family="Palatino-Roman,Palatino" font-size="84.0" fill="#164E86" transform="matrix(1.00, 0.00, -0.00, -1.00, 768.7, 640.3)">O</text><text xml:space="preserve" font-family="Palatino-Roman,Palatino" font-size="84.0" fill="#164E86" transform="matrix(1.00, 0.00, -0.00, -1.00, 834.8, 640.3)">N</text><text xml:space="preserve" font-family="Palatino-Roman,Palatino" font-size="84.0" fill="#164E86" transform="matrix(1.00, 0.00, -0.00, -1.00, 904.6, 640.3)">.</text><text xml:space="preserve" font-family="Palatino-Roman,Palatino" font-size="16.0" fill="#000000" transform="matrix(1.00, 0.00, -0.00, -1.00, 829.2, 29.4)">©</text><text xml:space="preserve" font-family="Palatino-Roman,Palatino" font-size="16.0" fill="#000000" transform="matrix(1.00, 0.00, -0.00, -1.00, 841.2, 29.4)"> </text><text xml:space="preserve" font-family="Palatino-Roman,Palatino" font-size="16.0" fill="#000000" transform="matrix(1.00, 0.00, -0.00, -1.00, 845.2, 29.4)">J</text><text xml:space="preserve" font-family="Palatino-Roman,Palatino" font-size="16.0" fill="#000000" transform="matrix(1.00, 0.00, -0.00, -1.00, 850.5, 29.4)">o</text><text xml:space="preserve" font-family="Palatino-Roman,Palatino" font-size="16.0" fill="#000000" transform="matrix(1.00, 0.00, -0.00, -1.00, 859.2, 29.4)">o</text><text xml:space="preserve" font-family="Palatino-Roman,Palatino" font-size="16.0" fill="#000000" transform="matrix(1.00, 0.00, -0.00, -1.00, 868.0, 29.4)">n</text><text xml:space="preserve" font-family="Palatino-Roman,Palatino" font-size="16.0" fill="#000000" transform="matrix(1.00, 0.00, -0.00, -1.00, 877.3, 29.4)">a</text><text xml:space="preserve" font-family="Palatino-Roman,Palatino" font-size="16.0" fill="#000000" transform="matrix(1.00, 0.00, -0.00, -1.00, 885.3, 29.4)">s</text><text xml:space="preserve" font-family="Palatino-Roman,Palatino" font-size="16.0" fill="#000000" transform="matrix(1.00, 0.00, -0.00, -1.00, 892.1, 29.4)"> </text><text xml:space="preserve" font-family="Palatino-Roman,Palatino" font-size="16.0" fill="#000000" transform="matrix(1.00, 0.00, -0.00, -1.00, 896.1, 29.4)">V</text><text xml:space="preserve" font-family="Palatino-Roman,Palatino" font-size="16.0" fill="#000000" transform="matrix(1.00, 0.00, -0.00, -1.00, 906.1, 29.4)">a</text><text xml:space="preserve" font-family="Palatino-Roman,Palatino" font-size="16.0" fill="#000000" transform="matrix(1.00, 0.00, -0.00, -1.00, 914.1, 29.4)">n</text><text xml:space="preserve" font-family="Palatino-Roman,Palatino" font-size="16.0" fill="#000000" transform="matrix(1.00, 0.00, -0.00, -1.00, 923.5, 29.4)">h</text><text xml:space="preserve" font-family="Palatino-Roman,Palatino" font-size="16.0" fill="#000000" transform="matrix(1.00, 0.00, -0.00, -1.00, 932.8, 29.4)">a</text><text xml:space="preserve" font-family="Palatino-Roman,Palatino" font-size="16.0" fill="#000000" transform="matrix(1.00, 0.00, -0.00, -1.00, 940.8, 29.4)">l</text><text xml:space="preserve" font-family="Palatino-Roman,Palatino" font-size="16.0" fill="#000000" transform="matrix(1.00, 0.00, -0.00, -1.00, 945.4, 29.4)">a</text><text xml:space="preserve" font-family="Palatino-Roman,Palatino" font-size="16.0" fill="#000000" transform="matrix(1.00, 0.00, -0.00, -1.00, 953.4, 29.4)"> </text><text xml:space="preserve" font-family="Palatino-Roman,Palatino" font-size="16.0" fill="#000000" transform="matrix(1.00, 0.00, -0.00, -1.00, 957.4, 29.4)">2</text><text xml:space="preserve" font-family="Palatino-Roman,Palatino" font-size="16.0" fill="#000000" transform="matrix(1.00, 0.00, -0.00, -1.00, 965.4, 29.4)">0</text><text xml:space="preserve" font-family="Palatino-Roman,Palatino" font-size="16.0" fill="#000000" transform="matrix(1.00, 0.00, -0.00, -1.00, 973.4, 29.4)">1</text><text xml:space="preserve" font-family="Palatino-Roman,Palatino" font-size="16.0" fill="#000000" transform="matrix(1.00, 0.00, -0.00, -1.00, 981.4, 29.4)">6</text><g><g><clipPath id="clip0x7ff8c5efa660"><path d="M 92.0 571.0 L 953.5 571.0 L 953.5 302.8 L 92.0 302.8 Z M 92.0 571.0 "></path></clipPath><g clip-path="url(#clip0x7ff8c5efa660)"><g><clipPath id="clip0x7ff8c5ef9f50"><path d="M 202.4 528.0 L 352.6 528.0 L 352.6 571.0 L 202.4 571.0 Z M 202.4 528.0 "></path></clipPath><g clip-path="url(#clip0x7ff8c5ef9f50)"><text xml:space="preserve" font-family="Palatino-Bold,Palatino" font-weight="bold" font-size="24.0" fill="#000000" transform="matrix(1.00, 0.00, -0.00, -1.00, 206.4, 539.7)">J</text><text xml:space="preserve" font-family="Palatino-Bold,Palatino" font-weight="bold" font-size="24.0" fill="#000000" transform="matrix(1.00, 0.00, -0.00, -1.00, 215.7, 539.7)">a</text><text xml:space="preserve" font-family="Palatino-Bold,Palatino" font-weight="bold" font-size="24.0" fill="#000000" transform="matrix(1.00, 0.00, -0.00, -1.00, 227.7, 539.7)">g</text></g></g></g></g><g><clipPath id="clip0x7ff8c5ef3030"><path d="M 92.0 571.0 L 953.5 571.0 L 953.5 302.8 L 92.0 302.8 Z M 92.0 571.0 "></path></clipPath><g clip-path="url(#clip0x7ff8c5ef3030)"><g><clipPath id="clip0x7ff8c5ef3800"><path d="M 352.6 528.0 L 502.8 528.0 L 502.8 571.0 L 352.6 571.0 Z M 352.6 528.0 "></path></clipPath><g clip-path="url(#clip0x7ff8c5ef3800)"><text xml:space="preserve" font-family="Palatino-Bold,Palatino" font-weight="bold" font-size="24.0" fill="#000000" transform="matrix(1.00, 0.00, -0.00, -1.00, 356.6, 539.7)">D</text><text xml:space="preserve" font-family="Palatino-Bold,Palatino" font-weight="bold" font-size="24.0" fill="#000000" transform="matrix(1.00, 0.00, -0.00, -1.00, 376.6, 539.7)">u</text></g></g></g></g><g><clipPath id="clip0x7ff8c5ef5510"><path d="M 92.0 571.0 L 953.5 571.0 L 953.5 302.8 L 92.0 302.8 Z M 92.0 571.0 "></path></clipPath><g clip-path="url(#clip0x7ff8c5ef5510)"><g><clipPath id="clip0x7ff8c5ef5c70"><path d="M 502.8 528.0 L 653.1 528.0 L 653.1 571.0 L 502.8 571.0 Z M 502.8 528.0 "></path></clipPath><g clip-path="url(#clip0x7ff8c5ef5c70)"><text xml:space="preserve" font-family="Palatino-Bold,Palatino" font-weight="bold" font-size="24.0" fill="#000000" transform="matrix(1.00, 0.00, -0.00, -1.00, 506.8, 539.7)">V</text><text xml:space="preserve" font-family="Palatino-Bold,Palatino" font-weight="bold" font-size="24.0" fill="#000000" transform="matrix(1.00, 0.00, -0.00, -1.00, 524.2, 539.7)">i</text></g></g></g></g><g><clipPath id="clip0x7ff8c5ef76e0"><path d="M 92.0 571.0 L 953.5 571.0 L 953.5 302.8 L 92.0 302.8 Z M 92.0 571.0 "></path></clipPath><g clip-path="url(#clip0x7ff8c5ef76e0)"><g><clipPath id="clip0x7ff8c5ef7e40"><path d="M 653.1 528.0 L 803.3 528.0 L 803.3 571.0 L 653.1 571.0 Z M 653.1 528.0 "></path></clipPath><g clip-path="url(#clip0x7ff8c5ef7e40)"><text xml:space="preserve" font-family="Palatino-Bold,Palatino" font-weight="bold" font-size="24.0" fill="#000000" transform="matrix(1.00, 0.00, -0.00, -1.00, 657.1, 539.7)">N</text><text xml:space="preserve" font-family="Palatino-Bold,Palatino" font-weight="bold" font-size="24.0" fill="#000000" transform="matrix(1.00, 0.00, -0.00, -1.00, 677.1, 539.7)">i</text></g></g></g></g><g><clipPath id="clip0x7ff8c5ef9820"><path d="M 92.0 571.0 L 953.5 571.0 L 953.5 302.8 L 92.0 302.8 Z M 92.0 571.0 "></path></clipPath><g clip-path="url(#clip0x7ff8c5ef9820)"><g><clipPath id="clip0x7ff8c5eec5a0"><path d="M 803.3 528.0 L 953.5 528.0 L 953.5 571.0 L 803.3 571.0 Z M 803.3 528.0 "></path></clipPath><g clip-path="url(#clip0x7ff8c5eec5a0)"><text xml:space="preserve" font-family="Palatino-Bold,Palatino" font-weight="bold" font-size="24.0" fill="#000000" transform="matrix(1.00, 0.00, -0.00, -1.00, 807.3, 539.7)">S</text><text xml:space="preserve" font-family="Palatino-Bold,Palatino" font-weight="bold" font-size="24.0" fill="#000000" transform="matrix(1.00, 0.00, -0.00, -1.00, 821.9, 539.7)">i</text><text xml:space="preserve" font-family="Palatino-Bold,Palatino" font-weight="bold" font-size="24.0" fill="#000000" transform="matrix(1.00, 0.00, -0.00, -1.00, 829.9, 539.7)">g</text><text xml:space="preserve" font-family="Palatino-Bold,Palatino" font-weight="bold" font-size="24.0" fill="#000000" transform="matrix(1.00, 0.00, -0.00, -1.00, 843.3, 539.7)"> </text><text xml:space="preserve" font-family="Palatino-Bold,Palatino" font-weight="bold" font-size="24.0" fill="#000000" transform="matrix(1.00, 0.00, -0.00, -1.00, 849.3, 539.7)">(</text><text xml:space="preserve" font-family="Palatino-Bold,Palatino" font-weight="bold" font-size="24.0" fill="#000000" transform="matrix(1.00, 0.00, -0.00, -1.00, 857.3, 539.7)">s</text><text xml:space="preserve" font-family="Palatino-Bold,Palatino" font-weight="bold" font-size="24.0" fill="#000000" transform="matrix(1.00, 0.00, -0.00, -1.00, 867.9, 539.7)">g</text><text xml:space="preserve" font-family="Palatino-Bold,Palatino" font-weight="bold" font-size="24.0" fill="#000000" transform="matrix(1.00, 0.00, -0.00, -1.00, 881.3, 539.7)">/</text><text xml:space="preserve" font-family="Palatino-Bold,Palatino" font-weight="bold" font-size="24.0" fill="#000000" transform="matrix(1.00, 0.00, -0.00, -1.00, 888.4, 539.7)">p</text><text xml:space="preserve" font-family="Palatino-Bold,Palatino" font-weight="bold" font-size="24.0" fill="#000000" transform="matrix(1.00, 0.00, -0.00, -1.00, 903.0, 539.7)">l</text><text xml:space="preserve" font-family="Palatino-Bold,Palatino" font-weight="bold" font-size="24.0" fill="#000000" transform="matrix(1.00, 0.00, -0.00, -1.00, 911.0, 539.7)">)</text></g></g></g></g><g><clipPath id="clip0x7ff8c5eeaff0"><path d="M 92.0 571.0 L 953.5 571.0 L 953.5 302.8 L 92.0 302.8 Z M 92.0 571.0 "></path></clipPath><g clip-path="url(#clip0x7ff8c5eeaff0)"><g><clipPath id="clip0x7ff8c5ee89d0"><path d="M 92.0 475.0 L 202.4 475.0 L 202.4 518.0 L 92.0 518.0 Z M 92.0 475.0 "></path></clipPath><g clip-path="url(#clip0x7ff8c5ee89d0)"><text xml:space="preserve" font-family="Palatino-Bold,Palatino" font-weight="bold" font-size="24.0" fill="#000000" transform="matrix(1.00, 0.00, -0.00, -1.00, 96.0, 486.7)">N</text><text xml:space="preserve" font-family="Palatino-Bold,Palatino" font-weight="bold" font-size="24.0" fill="#000000" transform="matrix(1.00, 0.00, -0.00, -1.00, 116.0, 486.7)">o</text><text xml:space="preserve" font-family="Palatino-Bold,Palatino" font-weight="bold" font-size="24.0" fill="#000000" transform="matrix(1.00, 0.00, -0.00, -1.00, 129.3, 486.7)">m</text></g></g></g></g><g><clipPath id="clip0x7ff8c5ee3820"><path d="M 92.0 571.0 L 953.5 571.0 L 953.5 302.8 L 92.0 302.8 Z M 92.0 571.0 "></path></clipPath><g clip-path="url(#clip0x7ff8c5ee3820)"><g><clipPath id="clip0x7ff8c5ee3fb0"><path d="M 202.4 475.0 L 352.6 475.0 L 352.6 518.0 L 202.4 518.0 Z M 202.4 475.0 "></path></clipPath><g clip-path="url(#clip0x7ff8c5ee3fb0)"><text xml:space="preserve" font-family="Palatino-Roman,Palatino" font-size="24.0" fill="#000000" transform="matrix(1.00, 0.00, -0.00, -1.00, 206.4, 486.7)">e</text><text xml:space="preserve" font-family="Palatino-Roman,Palatino" font-size="24.0" fill="#000000" transform="matrix(1.00, 0.00, -0.00, -1.00, 217.9, 486.7)">g</text><text xml:space="preserve" font-family="Palatino-Roman,Palatino" font-size="24.0" fill="#000000" transform="matrix(1.00, 0.00, -0.00, -1.00, 231.3, 486.7)">ō</text></g></g></g></g><g><clipPath id="clip0x7ff8c5ee6ed0"><path d="M 92.0 571.0 L 953.5 571.0 L 953.5 302.8 L 92.0 302.8 Z M 92.0 571.0 "></path></clipPath><g clip-path="url(#clip0x7ff8c5ee6ed0)"><g><clipPath id="clip0x7ff8c5ee7630"><path d="M 352.6 475.0 L 502.8 475.0 L 502.8 518.0 L 352.6 518.0 Z M 352.6 475.0 "></path></clipPath><g clip-path="url(#clip0x7ff8c5ee7630)"><text xml:space="preserve" font-family="Palatino-Roman,Palatino" font-size="24.0" fill="#000000" transform="matrix(1.00, 0.00, -0.00, -1.00, 356.6, 486.7)">t</text><text xml:space="preserve" font-family="Palatino-Roman,Palatino" font-size="24.0" fill="#000000" transform="matrix(1.00, 0.00, -0.00, -1.00, 364.5, 486.7)">ū</text></g></g></g></g><g><clipPath id="clip0x7ff8c5ed2db0"><path d="M 92.0 571.0 L 953.5 571.0 L 953.5 302.8 L 92.0 302.8 Z M 92.0 571.0 "></path></clipPath><g clip-path="url(#clip0x7ff8c5ed2db0)"><g><clipPath id="clip0x7ff8c5ed3510"><path d="M 502.8 475.0 L 653.1 475.0 L 653.1 518.0 L 502.8 518.0 Z M 502.8 475.0 "></path></clipPath><g clip-path="url(#clip0x7ff8c5ed3510)"><text xml:space="preserve" font-family="Palatino-Roman,Palatino" font-size="24.0" fill="#000000" transform="matrix(1.00, 0.00, -0.00, -1.00, 506.8, 486.7)">n</text><text xml:space="preserve" font-family="Palatino-Roman,Palatino" font-size="24.0" fill="#000000" transform="matrix(1.00, 0.00, -0.00, -1.00, 520.8, 486.7)">ō</text><text xml:space="preserve" font-family="Palatino-Roman,Palatino" font-size="24.0" fill="#000000" transform="matrix(1.00, 0.00, -0.00, -1.00, 533.9, 486.7)">s</text></g></g></g></g><g><clipPath id="clip0x7ff8c5ed60a0"><path d="M 92.0 571.0 L 953.5 571.0 L 953.5 302.8 L 92.0 302.8 Z M 92.0 571.0 "></path></clipPath><g clip-path="url(#clip0x7ff8c5ed60a0)"><g><clipPath id="clip0x7ff8c5ed6800"><path d="M 653.1 475.0 L 803.3 475.0 L 803.3 518.0 L 653.1 518.0 Z M 653.1 475.0 "></path></clipPath><g clip-path="url(#clip0x7ff8c5ed6800)"><text xml:space="preserve" font-family="Palatino-Roman,Palatino" font-size="24.0" fill="#000000" transform="matrix(1.00, 0.00, -0.00, -1.00, 657.1, 486.7)">v</text><text xml:space="preserve" font-family="Palatino-Roman,Palatino" font-size="24.0" fill="#000000" transform="matrix(1.00, 0.00, -0.00, -1.00, 670.6, 486.7)">ō</text><text xml:space="preserve" font-family="Palatino-Roman,Palatino" font-size="24.0" fill="#000000" transform="matrix(1.00, 0.00, -0.00, -1.00, 683.7, 486.7)">s</text></g></g></g></g><g><clipPath id="clip0x7ff8c5ed9490"><path d="M 92.0 571.0 L 953.5 571.0 L 953.5 302.8 L 92.0 302.8 Z M 92.0 571.0 "></path></clipPath><g clip-path="url(#clip0x7ff8c5ed9490)"><g><clipPath id="clip0x7ff8c5ed9c50"><path d="M 803.3 475.0 L 953.5 475.0 L 953.5 518.0 L 803.3 518.0 Z M 803.3 475.0 "></path></clipPath><g clip-path="url(#clip0x7ff8c5ed9c50)"><text xml:space="preserve" font-family="Palatino-Roman,Palatino" font-size="24.0" fill="#000000" transform="matrix(1.00, 0.00, -0.00, -1.00, 807.3, 486.7)">–</text></g></g></g></g><g><clipPath id="clip0x7ff8c5edaef0"><path d="M 92.0 571.0 L 953.5 571.0 L 953.5 302.8 L 92.0 302.8 Z M 92.0 571.0 "></path></clipPath><g clip-path="url(#clip0x7ff8c5edaef0)"><g><clipPath id="clip0x7ff8c5edb650"><path d="M 92.0 431.9 L 202.4 431.9 L 202.4 475.0 L 92.0 475.0 Z M 92.0 431.9 "></path></clipPath><g clip-path="url(#clip0x7ff8c5edb650)"><text xml:space="preserve" font-family="Palatino-Bold,Palatino" font-weight="bold" font-size="24.0" fill="#000000" transform="matrix(1.00, 0.00, -0.00, -1.00, 96.0, 443.6)">G</text><text xml:space="preserve" font-family="Palatino-Bold,Palatino" font-weight="bold" font-size="24.0" fill="#000000" transform="matrix(1.00, 0.00, -0.00, -1.00, 116.0, 443.6)">e</text><text xml:space="preserve" font-family="Palatino-Bold,Palatino" font-weight="bold" font-size="24.0" fill="#000000" transform="matrix(1.00, 0.00, -0.00, -1.00, 128.0, 443.6)">n</text></g></g></g></g><g><clipPath id="clip0x7ff8c5edd690"><path d="M 92.0 571.0 L 953.5 571.0 L 953.5 302.8 L 92.0 302.8 Z M 92.0 571.0 "></path></clipPath><g clip-path="url(#clip0x7ff8c5edd690)"><g><clipPath id="clip0x7ff8c5edddf0"><path d="M 202.4 431.9 L 352.6 431.9 L 352.6 475.0 L 202.4 475.0 Z M 202.4 431.9 "></path></clipPath><g clip-path="url(#clip0x7ff8c5edddf0)"><text xml:space="preserve" font-family="Palatino-Roman,Palatino" font-size="24.0" fill="#000000" transform="matrix(1.00, 0.00, -0.00, -1.00, 206.4, 443.6)">m</text><text xml:space="preserve" font-family="Palatino-Roman,Palatino" font-size="24.0" fill="#000000" transform="matrix(1.00, 0.00, -0.00, -1.00, 227.6, 443.6)">e</text><text xml:space="preserve" font-family="Palatino-Roman,Palatino" font-size="24.0" fill="#000000" transform="matrix(1.00, 0.00, -0.00, -1.00, 239.1, 443.6)">ī</text></g></g></g></g><g><clipPath id="clip0x7ff8c5ee0950"><path d="M 92.0 571.0 L 953.5 571.0 L 953.5 302.8 L 92.0 302.8 Z M 92.0 571.0 "></path></clipPath><g clip-path="url(#clip0x7ff8c5ee0950)"><g><clipPath id="clip0x7ff8c5ee10d0"><path d="M 352.6 431.9 L 502.8 431.9 L 502.8 475.0 L 352.6 475.0 Z M 352.6 431.9 "></path></clipPath><g clip-path="url(#clip0x7ff8c5ee10d0)"><text xml:space="preserve" font-family="Palatino-Roman,Palatino" font-size="24.0" fill="#000000" transform="matrix(1.00, 0.00, -0.00, -1.00, 356.6, 443.6)">t</text><text xml:space="preserve" font-family="Palatino-Roman,Palatino" font-size="24.0" fill="#000000" transform="matrix(1.00, 0.00, -0.00, -1.00, 364.5, 443.6)">u</text><text xml:space="preserve" font-family="Palatino-Roman,Palatino" font-size="24.0" fill="#000000" transform="matrix(1.00, 0.00, -0.00, -1.00, 378.9, 443.6)">ī</text></g></g></g></g><g><clipPath id="clip0x7ff8c5ed07d0"><path d="M 92.0 571.0 L 953.5 571.0 L 953.5 302.8 L 92.0 302.8 Z M 92.0 571.0 "></path></clipPath><g clip-path="url(#clip0x7ff8c5ed07d0)"><g><clipPath id="clip0x7ff8c5ecb840"><path d="M 502.8 431.9 L 653.1 431.9 L 653.1 475.0 L 502.8 475.0 Z M 502.8 431.9 "></path></clipPath><g clip-path="url(#clip0x7ff8c5ecb840)"><text xml:space="preserve" font-family="Palatino-Roman,Palatino" font-size="24.0" fill="#000000" transform="matrix(1.00, 0.00, -0.00, -1.00, 506.8, 443.6)">n</text><text xml:space="preserve" font-family="Palatino-Roman,Palatino" font-size="24.0" fill="#000000" transform="matrix(1.00, 0.00, -0.00, -1.00, 520.8, 443.6)">o</text><text xml:space="preserve" font-family="Palatino-Roman,Palatino" font-size="24.0" fill="#000000" transform="matrix(1.00, 0.00, -0.00, -1.00, 533.9, 443.6)">s</text><text xml:space="preserve" font-family="Palatino-Roman,Palatino" font-size="24.0" fill="#000000" transform="matrix(1.00, 0.00, -0.00, -1.00, 544.1, 443.6)">t</text><text xml:space="preserve" font-family="Palatino-Roman,Palatino" font-size="24.0" fill="#000000" transform="matrix(1.00, 0.00, -0.00, -1.00, 551.9, 443.6)">r</text><text xml:space="preserve" font-family="Palatino-Roman,Palatino" font-size="24.0" fill="#000000" transform="matrix(1.00, 0.00, -0.00, -1.00, 561.4, 443.6)">ī</text></g></g></g></g><g><clipPath id="clip0x7ff8c5ece660"><path d="M 92.0 571.0 L 953.5 571.0 L 953.5 302.8 L 92.0 302.8 Z M 92.0 571.0 "></path></clipPath><g clip-path="url(#clip0x7ff8c5ece660)"><g><clipPath id="clip0x7ff8c5ecee00"><path d="M 653.1 431.9 L 803.3 431.9 L 803.3 475.0 L 653.1 475.0 Z M 653.1 431.9 "></path></clipPath><g clip-path="url(#clip0x7ff8c5ecee00)"><text xml:space="preserve" font-family="Palatino-Roman,Palatino" font-size="24.0" fill="#000000" transform="matrix(1.00, 0.00, -0.00, -1.00, 657.1, 443.6)">v</text><text xml:space="preserve" font-family="Palatino-Roman,Palatino" font-size="24.0" fill="#000000" transform="matrix(1.00, 0.00, -0.00, -1.00, 670.6, 443.6)">e</text><text xml:space="preserve" font-family="Palatino-Roman,Palatino" font-size="24.0" fill="#000000" transform="matrix(1.00, 0.00, -0.00, -1.00, 682.1, 443.6)">s</text><text xml:space="preserve" font-family="Palatino-Roman,Palatino" font-size="24.0" fill="#000000" transform="matrix(1.00, 0.00, -0.00, -1.00, 692.3, 443.6)">t</text><text xml:space="preserve" font-family="Palatino-Roman,Palatino" font-size="24.0" fill="#000000" transform="matrix(1.00, 0.00, -0.00, -1.00, 700.1, 443.6)">r</text><text xml:space="preserve" font-family="Palatino-Roman,Palatino" font-size="24.0" fill="#000000" transform="matrix(1.00, 0.00, -0.00, -1.00, 709.6, 443.6)">ī</text></g></g></g></g><g><clipPath id="clip0x7ff8c46f1930"><path d="M 92.0 571.0 L 953.5 571.0 L 953.5 302.8 L 92.0 302.8 Z M 92.0 571.0 "></path></clipPath><g clip-path="url(#clip0x7ff8c46f1930)"><g><clipPath id="clip0x7ff8c46f0bf0"><path d="M 803.3 431.9 L 953.5 431.9 L 953.5 475.0 L 803.3 475.0 Z M 803.3 431.9 "></path></clipPath><g clip-path="url(#clip0x7ff8c46f0bf0)"><text xml:space="preserve" font-family="Palatino-Roman,Palatino" font-size="24.0" fill="#000000" transform="matrix(1.00, 0.00, -0.00, -1.00, 807.3, 443.6)">s</text><text xml:space="preserve" font-family="Palatino-Roman,Palatino" font-size="24.0" fill="#000000" transform="matrix(1.00, 0.00, -0.00, -1.00, 817.4, 443.6)">u</text><text xml:space="preserve" font-family="Palatino-Roman,Palatino" font-size="24.0" fill="#000000" transform="matrix(1.00, 0.00, -0.00, -1.00, 831.9, 443.6)">ī</text></g></g></g></g><g><clipPath id="clip0x7ff8c46debd0"><path d="M 92.0 571.0 L 953.5 571.0 L 953.5 302.8 L 92.0 302.8 Z M 92.0 571.0 "></path></clipPath><g clip-path="url(#clip0x7ff8c46debd0)"><g><clipPath id="clip0x7ff8c46dcc80"><path d="M 92.0 388.9 L 202.4 388.9 L 202.4 431.9 L 92.0 431.9 Z M 92.0 388.9 "></path></clipPath><g clip-path="url(#clip0x7ff8c46dcc80)"><text xml:space="preserve" font-family="Palatino-Bold,Palatino" font-weight="bold" font-size="24.0" fill="#000000" transform="matrix(1.00, 0.00, -0.00, -1.00, 96.0, 400.6)">D</text><text xml:space="preserve" font-family="Palatino-Bold,Palatino" font-weight="bold" font-size="24.0" fill="#000000" transform="matrix(1.00, 0.00, -0.00, -1.00, 116.0, 400.6)">a</text><text xml:space="preserve" font-family="Palatino-Bold,Palatino" font-weight="bold" font-size="24.0" fill="#000000" transform="matrix(1.00, 0.00, -0.00, -1.00, 128.0, 400.6)">t</text></g></g></g></g><g><clipPath id="clip0x7ff8c46d6f80"><path d="M 92.0 571.0 L 953.5 571.0 L 953.5 302.8 L 92.0 302.8 Z M 92.0 571.0 "></path></clipPath><g clip-path="url(#clip0x7ff8c46d6f80)"><g><clipPath id="clip0x7ff8c46d6b90"><path d="M 202.4 388.9 L 352.6 388.9 L 352.6 431.9 L 202.4 431.9 Z M 202.4 388.9 "></path></clipPath><g clip-path="url(#clip0x7ff8c46d6b90)"><text xml:space="preserve" font-family="Palatino-Roman,Palatino" font-size="24.0" fill="#000000" transform="matrix(1.00, 0.00, -0.00, -1.00, 206.4, 400.6)">m</text><text xml:space="preserve" font-family="Palatino-Roman,Palatino" font-size="24.0" fill="#000000" transform="matrix(1.00, 0.00, -0.00, -1.00, 227.6, 400.6)">i</text><text xml:space="preserve" font-family="Palatino-Roman,Palatino" font-size="24.0" fill="#000000" transform="matrix(1.00, 0.00, -0.00, -1.00, 234.6, 400.6)">h</text><text xml:space="preserve" font-family="Palatino-Roman,Palatino" font-size="24.0" fill="#000000" transform="matrix(1.00, 0.00, -0.00, -1.00, 248.5, 400.6)">ī</text></g></g></g></g><g><clipPath id="clip0x7ff8c46c85c0"><path d="M 92.0 571.0 L 953.5 571.0 L 953.5 302.8 L 92.0 302.8 Z M 92.0 571.0 "></path></clipPath><g clip-path="url(#clip0x7ff8c46c85c0)"><g><clipPath id="clip0x7ff8c46c8d40"><path d="M 352.6 388.9 L 502.8 388.9 L 502.8 431.9 L 352.6 431.9 Z M 352.6 388.9 "></path></clipPath><g clip-path="url(#clip0x7ff8c46c8d40)"><text xml:space="preserve" font-family="Palatino-Roman,Palatino" font-size="24.0" fill="#000000" transform="matrix(1.00, 0.00, -0.00, -1.00, 356.6, 400.6)">t</text><text xml:space="preserve" font-family="Palatino-Roman,Palatino" font-size="24.0" fill="#000000" transform="matrix(1.00, 0.00, -0.00, -1.00, 364.5, 400.6)">i</text><text xml:space="preserve" font-family="Palatino-Roman,Palatino" font-size="24.0" fill="#000000" transform="matrix(1.00, 0.00, -0.00, -1.00, 371.4, 400.6)">b</text><text xml:space="preserve" font-family="Palatino-Roman,Palatino" font-size="24.0" fill="#000000" transform="matrix(1.00, 0.00, -0.00, -1.00, 384.7, 400.6)">ī</text></g></g></g></g><g><clipPath id="clip0x7ff8c46c2fb0"><path d="M 92.0 571.0 L 953.5 571.0 L 953.5 302.8 L 92.0 302.8 Z M 92.0 571.0 "></path></clipPath><g clip-path="url(#clip0x7ff8c46c2fb0)"><g><clipPath id="clip0x7ff8c46c25a0"><path d="M 502.8 388.9 L 653.1 388.9 L 653.1 431.9 L 502.8 431.9 Z M 502.8 388.9 "></path></clipPath><g clip-path="url(#clip0x7ff8c46c25a0)"><text xml:space="preserve" font-family="Palatino-Roman,Palatino" font-size="24.0" fill="#000000" transform="matrix(1.00, 0.00, -0.00, -1.00, 506.8, 400.6)">n</text><text xml:space="preserve" font-family="Palatino-Roman,Palatino" font-size="24.0" fill="#000000" transform="matrix(1.00, 0.00, -0.00, -1.00, 520.8, 400.6)">ō</text><text xml:space="preserve" font-family="Palatino-Roman,Palatino" font-size="24.0" fill="#000000" transform="matrix(1.00, 0.00, -0.00, -1.00, 533.9, 400.6)">b</text><text xml:space="preserve" font-family="Palatino-Roman,Palatino" font-size="24.0" fill="#000000" transform="matrix(1.00, 0.00, -0.00, -1.00, 547.2, 400.6)">ī</text><text xml:space="preserve" font-family="Palatino-Roman,Palatino" font-size="24.0" fill="#000000" transform="matrix(1.00, 0.00, -0.00, -1.00, 554.1, 400.6)">s</text></g></g></g></g><g><clipPath id="clip0x7ff8c46b5af0"><path d="M 92.0 571.0 L 953.5 571.0 L 953.5 302.8 L 92.0 302.8 Z M 92.0 571.0 "></path></clipPath><g clip-path="url(#clip0x7ff8c46b5af0)"><g><clipPath id="clip0x7ff8c46b48c0"><path d="M 653.1 388.9 L 803.3 388.9 L 803.3 431.9 L 653.1 431.9 Z M 653.1 388.9 "></path></clipPath><g clip-path="url(#clip0x7ff8c46b48c0)"><text xml:space="preserve" font-family="Palatino-Roman,Palatino" font-size="24.0" fill="#000000" transform="matrix(1.00, 0.00, -0.00, -1.00, 657.1, 400.6)">v</text><text xml:space="preserve" font-family="Palatino-Roman,Palatino" font-size="24.0" fill="#000000" transform="matrix(1.00, 0.00, -0.00, -1.00, 670.6, 400.6)">ō</text><text xml:space="preserve" font-family="Palatino-Roman,Palatino" font-size="24.0" fill="#000000" transform="matrix(1.00, 0.00, -0.00, -1.00, 683.7, 400.6)">b</text><text xml:space="preserve" font-family="Palatino-Roman,Palatino" font-size="24.0" fill="#000000" transform="matrix(1.00, 0.00, -0.00, -1.00, 697.0, 400.6)">ī</text><text xml:space="preserve" font-family="Palatino-Roman,Palatino" font-size="24.0" fill="#000000" transform="matrix(1.00, 0.00, -0.00, -1.00, 703.9, 400.6)">s</text></g></g></g></g><g><clipPath id="clip0x7ff8c46a9c00"><path d="M 92.0 571.0 L 953.5 571.0 L 953.5 302.8 L 92.0 302.8 Z M 92.0 571.0 "></path></clipPath><g clip-path="url(#clip0x7ff8c46a9c00)"><g><clipPath id="clip0x7ff8c46aa360"><path d="M 803.3 388.9 L 953.5 388.9 L 953.5 431.9 L 803.3 431.9 Z M 803.3 388.9 "></path></clipPath><g clip-path="url(#clip0x7ff8c46aa360)"><text xml:space="preserve" font-family="Palatino-Roman,Palatino" font-size="24.0" fill="#000000" transform="matrix(1.00, 0.00, -0.00, -1.00, 807.3, 400.6)">s</text><text xml:space="preserve" font-family="Palatino-Roman,Palatino" font-size="24.0" fill="#000000" transform="matrix(1.00, 0.00, -0.00, -1.00, 817.4, 400.6)">i</text><text xml:space="preserve" font-family="Palatino-Roman,Palatino" font-size="24.0" fill="#000000" transform="matrix(1.00, 0.00, -0.00, -1.00, 824.4, 400.6)">b</text><text xml:space="preserve" font-family="Palatino-Roman,Palatino" font-size="24.0" fill="#000000" transform="matrix(1.00, 0.00, -0.00, -1.00, 837.7, 400.6)">ī</text></g></g></g></g><g><clipPath id="clip0x7ff8c46a6c10"><path d="M 92.0 571.0 L 953.5 571.0 L 953.5 302.8 L 92.0 302.8 Z M 92.0 571.0 "></path></clipPath><g clip-path="url(#clip0x7ff8c46a6c10)"><g><clipPath id="clip0x7ff8c46a73b0"><path d="M 92.0 345.8 L 202.4 345.8 L 202.4 388.9 L 92.0 388.9 Z M 92.0 345.8 "></path></clipPath><g clip-path="url(#clip0x7ff8c46a73b0)"><text xml:space="preserve" font-family="Palatino-Bold,Palatino" font-weight="bold" font-size="24.0" fill="#000000" transform="matrix(1.00, 0.00, -0.00, -1.00, 96.0, 357.5)">A</text><text xml:space="preserve" font-family="Palatino-Bold,Palatino" font-weight="bold" font-size="24.0" fill="#000000" transform="matrix(1.00, 0.00, -0.00, -1.00, 114.7, 357.5)">c</text><text xml:space="preserve" font-family="Palatino-Bold,Palatino" font-weight="bold" font-size="24.0" fill="#000000" transform="matrix(1.00, 0.00, -0.00, -1.00, 125.3, 357.5)">k</text></g></g></g></g><g><clipPath id="clip0x7ff8c46a1f30"><path d="M 92.0 571.0 L 953.5 571.0 L 953.5 302.8 L 92.0 302.8 Z M 92.0 571.0 "></path></clipPath><g clip-path="url(#clip0x7ff8c46a1f30)"><g><clipPath id="clip0x7ff8c46a2650"><path d="M 202.4 345.8 L 352.6 345.8 L 352.6 388.9 L 202.4 388.9 Z M 202.4 345.8 "></path></clipPath><g clip-path="url(#clip0x7ff8c46a2650)"><text xml:space="preserve" font-family="Palatino-Roman,Palatino" font-size="24.0" fill="#000000" transform="matrix(1.00, 0.00, -0.00, -1.00, 206.4, 357.5)">m</text><text xml:space="preserve" font-family="Palatino-Roman,Palatino" font-size="24.0" fill="#000000" transform="matrix(1.00, 0.00, -0.00, -1.00, 227.6, 357.5)">ē</text></g></g></g></g><g><clipPath id="clip0x7ff8c469fc90"><path d="M 92.0 571.0 L 953.5 571.0 L 953.5 302.8 L 92.0 302.8 Z M 92.0 571.0 "></path></clipPath><g clip-path="url(#clip0x7ff8c469fc90)"><g><clipPath id="clip0x7ff8c46a03d0"><path d="M 352.6 345.8 L 502.8 345.8 L 502.8 388.9 L 352.6 388.9 Z M 352.6 345.8 "></path></clipPath><g clip-path="url(#clip0x7ff8c46a03d0)"><text xml:space="preserve" font-family="Palatino-Roman,Palatino" font-size="24.0" fill="#000000" transform="matrix(1.00, 0.00, -0.00, -1.00, 356.6, 357.5)">t</text><text xml:space="preserve" font-family="Palatino-Roman,Palatino" font-size="24.0" fill="#000000" transform="matrix(1.00, 0.00, -0.00, -1.00, 364.5, 357.5)">ē</text></g></g></g></g><g><clipPath id="clip0x7ff8c469dbd0"><path d="M 92.0 571.0 L 953.5 571.0 L 953.5 302.8 L 92.0 302.8 Z M 92.0 571.0 "></path></clipPath><g clip-path="url(#clip0x7ff8c469dbd0)"><g><clipPath id="clip0x7ff8c46f07b0"><path d="M 502.8 345.8 L 653.1 345.8 L 653.1 388.9 L 502.8 388.9 Z M 502.8 345.8 "></path></clipPath><g clip-path="url(#clip0x7ff8c46f07b0)"><text xml:space="preserve" font-family="Palatino-Roman,Palatino" font-size="24.0" fill="#000000" transform="matrix(1.00, 0.00, -0.00, -1.00, 506.8, 357.5)">n</text><text xml:space="preserve" font-family="Palatino-Roman,Palatino" font-size="24.0" fill="#000000" transform="matrix(1.00, 0.00, -0.00, -1.00, 520.8, 357.5)">ō</text><text xml:space="preserve" font-family="Palatino-Roman,Palatino" font-size="24.0" fill="#000000" transform="matrix(1.00, 0.00, -0.00, -1.00, 533.9, 357.5)">s</text></g></g></g></g><g><clipPath id="clip0x7ff8c469a860"><path d="M 92.0 571.0 L 953.5 571.0 L 953.5 302.8 L 92.0 302.8 Z M 92.0 571.0 "></path></clipPath><g clip-path="url(#clip0x7ff8c469a860)"><g><clipPath id="clip0x7ff8c46992b0"><path d="M 653.1 345.8 L 803.3 345.8 L 803.3 388.9 L 653.1 388.9 Z M 653.1 345.8 "></path></clipPath><g clip-path="url(#clip0x7ff8c46992b0)"><text xml:space="preserve" font-family="Palatino-Roman,Palatino" font-size="24.0" fill="#000000" transform="matrix(1.00, 0.00, -0.00, -1.00, 657.1, 357.5)">v</text><text xml:space="preserve" font-family="Palatino-Roman,Palatino" font-size="24.0" fill="#000000" transform="matrix(1.00, 0.00, -0.00, -1.00, 670.6, 357.5)">ō</text><text xml:space="preserve" font-family="Palatino-Roman,Palatino" font-size="24.0" fill="#000000" transform="matrix(1.00, 0.00, -0.00, -1.00, 683.7, 357.5)">s</text></g></g></g></g><g><clipPath id="clip0x7ff8c468f820"><path d="M 92.0 571.0 L 953.5 571.0 L 953.5 302.8 L 92.0 302.8 Z M 92.0 571.0 "></path></clipPath><g clip-path="url(#clip0x7ff8c468f820)"><g><clipPath id="clip0x7ff8c468ff80"><path d="M 803.3 345.8 L 953.5 345.8 L 953.5 388.9 L 803.3 388.9 Z M 803.3 345.8 "></path></clipPath><g clip-path="url(#clip0x7ff8c468ff80)"><text xml:space="preserve" font-family="Palatino-Roman,Palatino" font-size="24.0" fill="#000000" transform="matrix(1.00, 0.00, -0.00, -1.00, 807.3, 357.5)">s</text><text xml:space="preserve" font-family="Palatino-Roman,Palatino" font-size="24.0" fill="#000000" transform="matrix(1.00, 0.00, -0.00, -1.00, 817.4, 357.5)">ē</text></g></g></g></g><g><clipPath id="clip0x7ff8c4692490"><path d="M 92.0 571.0 L 953.5 571.0 L 953.5 302.8 L 92.0 302.8 Z M 92.0 571.0 "></path></clipPath><g clip-path="url(#clip0x7ff8c4692490)"><g><clipPath id="clip0x7ff8c4692bf0"><path d="M 92.0 302.8 L 202.4 302.8 L 202.4 345.8 L 92.0 345.8 Z M 92.0 302.8 "></path></clipPath><g clip-path="url(#clip0x7ff8c4692bf0)"><text xml:space="preserve" font-family="Palatino-Bold,Palatino" font-weight="bold" font-size="24.0" fill="#000000" transform="matrix(1.00, 0.00, -0.00, -1.00, 96.0, 314.5)">A</text><text xml:space="preserve" font-family="Palatino-Bold,Palatino" font-weight="bold" font-size="24.0" fill="#000000" transform="matrix(1.00, 0.00, -0.00, -1.00, 114.7, 314.5)">b</text><text xml:space="preserve" font-family="Palatino-Bold,Palatino" font-weight="bold" font-size="24.0" fill="#000000" transform="matrix(1.00, 0.00, -0.00, -1.00, 129.3, 314.5)">l</text></g></g></g></g><g><clipPath id="clip0x7ff8c4694ca0"><path d="M 92.0 571.0 L 953.5 571.0 L 953.5 302.8 L 92.0 302.8 Z M 92.0 571.0 "></path></clipPath><g clip-path="url(#clip0x7ff8c4694ca0)"><g><clipPath id="clip0x7ff8c4695400"><path d="M 202.4 302.8 L 352.6 302.8 L 352.6 345.8 L 202.4 345.8 Z M 202.4 302.8 "></path></clipPath><g clip-path="url(#clip0x7ff8c4695400)"><text xml:space="preserve" font-family="Palatino-Roman,Palatino" font-size="24.0" fill="#000000" transform="matrix(1.00, 0.00, -0.00, -1.00, 206.4, 314.5)">m</text><text xml:space="preserve" font-family="Palatino-Roman,Palatino" font-size="24.0" fill="#000000" transform="matrix(1.00, 0.00, -0.00, -1.00, 227.6, 314.5)">ē</text></g></g></g></g><g><clipPath id="clip0x7ff8c4697910"><path d="M 92.0 571.0 L 953.5 571.0 L 953.5 302.8 L 92.0 302.8 Z M 92.0 571.0 "></path></clipPath><g clip-path="url(#clip0x7ff8c4697910)"><g><clipPath id="clip0x7ff8c4698070"><path d="M 352.6 302.8 L 502.8 302.8 L 502.8 345.8 L 352.6 345.8 Z M 352.6 302.8 "></path></clipPath><g clip-path="url(#clip0x7ff8c4698070)"><text xml:space="preserve" font-family="Palatino-Roman,Palatino" font-size="24.0" fill="#000000" transform="matrix(1.00, 0.00, -0.00, -1.00, 356.6, 314.5)">t</text><text xml:space="preserve" font-family="Palatino-Roman,Palatino" font-size="24.0" fill="#000000" transform="matrix(1.00, 0.00, -0.00, -1.00, 364.5, 314.5)">ē</text></g></g></g></g><g><clipPath id="clip0x7ff8c468a230"><path d="M 92.0 571.0 L 953.5 571.0 L 953.5 302.8 L 92.0 302.8 Z M 92.0 571.0 "></path></clipPath><g clip-path="url(#clip0x7ff8c468a230)"><g><clipPath id="clip0x7ff8c468a990"><path d="M 502.8 302.8 L 653.1 302.8 L 653.1 345.8 L 502.8 345.8 Z M 502.8 302.8 "></path></clipPath><g clip-path="url(#clip0x7ff8c468a990)"><text xml:space="preserve" font-family="Palatino-Roman,Palatino" font-size="24.0" fill="#000000" transform="matrix(1.00, 0.00, -0.00, -1.00, 506.8, 314.5)">n</text><text xml:space="preserve" font-family="Palatino-Roman,Palatino" font-size="24.0" fill="#000000" transform="matrix(1.00, 0.00, -0.00, -1.00, 520.8, 314.5)">ō</text><text xml:space="preserve" font-family="Palatino-Roman,Palatino" font-size="24.0" fill="#000000" transform="matrix(1.00, 0.00, -0.00, -1.00, 533.9, 314.5)">b</text><text xml:space="preserve" font-family="Palatino-Roman,Palatino" font-size="24.0" fill="#000000" transform="matrix(1.00, 0.00, -0.00, -1.00, 547.2, 314.5)">ī</text><text xml:space="preserve" font-family="Palatino-Roman,Palatino" font-size="24.0" fill="#000000" transform="matrix(1.00, 0.00, -0.00, -1.00, 554.1, 314.5)">s</text></g></g></g></g><g><clipPath id="clip0x7ff8c4686e10"><path d="M 92.0 571.0 L 953.5 571.0 L 953.5 302.8 L 92.0 302.8 Z M 92.0 571.0 "></path></clipPath><g clip-path="url(#clip0x7ff8c4686e10)"><g><clipPath id="clip0x7ff8c46875b0"><path d="M 653.1 302.8 L 803.3 302.8 L 803.3 345.8 L 653.1 345.8 Z M 653.1 302.8 "></path></clipPath><g clip-path="url(#clip0x7ff8c46875b0)"><text xml:space="preserve" font-family="Palatino-Roman,Palatino" font-size="24.0" fill="#000000" transform="matrix(1.00, 0.00, -0.00, -1.00, 657.1, 314.5)">v</text><text xml:space="preserve" font-family="Palatino-Roman,Palatino" font-size="24.0" fill="#000000" transform="matrix(1.00, 0.00, -0.00, -1.00, 670.6, 314.5)">ō</text><text xml:space="preserve" font-family="Palatino-Roman,Palatino" font-size="24.0" fill="#000000" transform="matrix(1.00, 0.00, -0.00, -1.00, 683.7, 314.5)">b</text><text xml:space="preserve" font-family="Palatino-Roman,Palatino" font-size="24.0" fill="#000000" transform="matrix(1.00, 0.00, -0.00, -1.00, 697.0, 314.5)">ī</text><text xml:space="preserve" font-family="Palatino-Roman,Palatino" font-size="24.0" fill="#000000" transform="matrix(1.00, 0.00, -0.00, -1.00, 703.9, 314.5)">s</text></g></g></g></g><g><clipPath id="clip0x7ff8c4682380"><path d="M 92.0 571.0 L 953.5 571.0 L 953.5 302.8 L 92.0 302.8 Z M 92.0 571.0 "></path></clipPath><g clip-path="url(#clip0x7ff8c4682380)"><g><clipPath id="clip0x7ff8c4682ae0"><path d="M 803.3 302.8 L 953.5 302.8 L 953.5 345.8 L 803.3 345.8 Z M 803.3 302.8 "></path></clipPath><g clip-path="url(#clip0x7ff8c4682ae0)"><text xml:space="preserve" font-family="Palatino-Roman,Palatino" font-size="24.0" fill="#000000" transform="matrix(1.00, 0.00, -0.00, -1.00, 807.3, 314.5)">s</text><text xml:space="preserve" font-family="Palatino-Roman,Palatino" font-size="24.0" fill="#000000" transform="matrix(1.00, 0.00, -0.00, -1.00, 817.4, 314.5)">ē</text></g></g></g></g></g></g></svg>